<svg width="18" height="22" viewBox="0 0 18 22" fill="none" xmlns="http://www.w3.org/2000/svg">
  <g clip-path="url(#clip0_1889_17033)">
    <path
      d="M3.40323 15.7718L12.2633 12.1272C13.1081 14.1809 12.1264 16.5349 10.0726 17.3797L1.21253 21.0243C0.367719 18.9706 1.34949 16.6167 3.40323 15.7718Z"
      fill="#1890FF" />
    <path
      d="M15.763 14.4517C16.9111 14.4517 17.8419 13.521 17.8419 12.3728C17.8419 11.2247 16.9111 10.2939 15.763 10.2939C14.6148 10.2939 13.6841 11.2247 13.6841 12.3728C13.6841 13.521 14.6148 14.4517 15.763 14.4517Z"
      fill="#3A3C3D" />
    <path
      d="M12.3193 6.53088C12.2217 3.44616 9.69199 0.974609 6.58349 0.974609C3.47499 0.974609 0.842773 3.54453 0.842773 6.71533C0.842773 9.4992 2.82411 11.8191 5.45305 12.3446C5.48912 12.6052 5.5506 12.8659 5.64078 13.1241L8.40006 12.1609L8.59434 12.0929C10.7732 11.2781 12.3242 9.17786 12.3242 6.71533C12.3242 6.65303 12.3217 6.59236 12.3193 6.53088ZM6.58349 9.50822C6.43757 9.50822 6.29494 9.49674 6.15558 9.47543C4.81693 9.26967 3.79142 8.11218 3.79142 6.71533C3.79142 5.17337 5.04154 3.92325 6.58349 3.92325C8.12544 3.92325 9.37556 5.17337 9.37556 6.71533C9.37556 7.02847 9.3231 7.3285 9.22883 7.60968C8.85584 8.71306 7.81312 9.50822 6.58349 9.50822Z"
      fill="#3A3C3D" />
  </g>
  <defs>
    <clipPath id="clip0_1889_17033">
      <rect width="17" height="20.0503" fill="white" transform="translate(0.842773 0.974609)" />
    </clipPath>
  </defs>
</svg>
