<svg width="15" height="16" viewBox="0 0 15 16" fill="none" xmlns="http://www.w3.org/2000/svg">
<path d="M7.45294 0.935059C6.07911 0.937669 4.73569 1.33974 3.58631 2.09229C2.43693 2.84484 1.5312 3.9154 0.979436 5.17356C0.427676 6.43172 0.253702 7.82319 0.478704 9.17847C0.703707 10.5337 1.31797 11.7943 2.24669 12.8067V12.8067C2.90999 13.5257 3.71502 14.0995 4.61106 14.492C5.5071 14.8845 6.47471 15.0871 7.45294 15.0871C8.43116 15.0871 9.39877 14.8845 10.2948 14.492C11.1909 14.0995 11.9959 13.5257 12.6592 12.8067V12.8067C13.5879 11.7943 14.2022 10.5337 14.4272 9.17847C14.6522 7.82319 14.4782 6.43172 13.9264 5.17356C13.3747 3.9154 12.4689 2.84484 11.3196 2.09229C10.1702 1.33974 8.82676 0.937669 7.45294 0.935059V0.935059ZM7.45294 13.6851C5.9856 13.6828 4.57633 13.1115 3.52169 12.0913C3.84188 11.3118 4.38658 10.6451 5.08657 10.1759C5.78656 9.70669 6.61024 9.45617 7.45294 9.45617C8.29563 9.45617 9.11931 9.70669 9.8193 10.1759C10.5193 10.6451 11.064 11.3118 11.3842 12.0913C10.3295 13.1115 8.92027 13.6828 7.45294 13.6851ZM6.03627 6.60173C6.03627 6.32153 6.11936 6.04764 6.27502 5.81467C6.43069 5.5817 6.65194 5.40012 6.9108 5.2929C7.16966 5.18567 7.45451 5.15762 7.72931 5.21228C8.00412 5.26694 8.25655 5.40187 8.45467 5.59999C8.65279 5.79812 8.78772 6.05054 8.84238 6.32535C8.89704 6.60015 8.86899 6.885 8.76177 7.14386C8.65454 7.40272 8.47296 7.62397 8.23999 7.77964C8.00702 7.93531 7.73313 8.01839 7.45294 8.01839C7.07721 8.01839 6.71688 7.86914 6.4512 7.60346C6.18553 7.33778 6.03627 6.97745 6.03627 6.60173ZM12.3475 10.8517C11.7146 9.76922 10.7406 8.9272 9.57794 8.45756C9.9386 8.04861 10.1736 7.54427 10.2547 7.00508C10.3359 6.46588 10.2597 5.91472 10.0353 5.41774C9.811 4.92077 9.44802 4.49908 8.98995 4.20328C8.53189 3.90749 7.9982 3.75015 7.45294 3.75015C6.90767 3.75015 6.37398 3.90749 5.91592 4.20328C5.45785 4.49908 5.09487 4.92077 4.87053 5.41774C4.64619 5.91472 4.57001 6.46588 4.65114 7.00508C4.73228 7.54427 4.96728 8.04861 5.32794 8.45756C4.16528 8.9272 3.19123 9.76922 2.55835 10.8517C2.05398 9.99259 1.78749 9.01464 1.78627 8.01839C1.78627 6.5155 2.38329 5.07416 3.446 4.01145C4.5087 2.94875 5.95004 2.35173 7.45294 2.35173C8.95583 2.35173 10.3972 2.94875 11.4599 4.01145C12.5226 5.07416 13.1196 6.5155 13.1196 8.01839C13.1184 9.01464 12.8519 9.99259 12.3475 10.8517V10.8517Z" fill="black"/>
</svg>
