<svg width="14" height="13" viewBox="0 0 14 13" fill="none" xmlns="http://www.w3.org/2000/svg">
<path d="M3.0196 10.2415C3.05085 10.2415 3.0821 10.2384 3.11335 10.2337L5.74148 9.77278C5.77273 9.76653 5.80242 9.75247 5.82429 9.72903L12.4477 3.10559C12.4622 3.09114 12.4737 3.07397 12.4815 3.05507C12.4894 3.03616 12.4934 3.0159 12.4934 2.99544C12.4934 2.97497 12.4894 2.95471 12.4815 2.93581C12.4737 2.91691 12.4622 2.89974 12.4477 2.88528L9.85086 0.286844C9.82117 0.257156 9.78211 0.241531 9.73992 0.241531C9.69773 0.241531 9.65867 0.257156 9.62898 0.286844L3.00554 6.91028C2.9821 6.93372 2.96804 6.96184 2.96179 6.99309L2.50085 9.62122C2.48565 9.70492 2.49109 9.79107 2.51668 9.87221C2.54227 9.95334 2.58725 10.027 2.64773 10.0868C2.75085 10.1868 2.88054 10.2415 3.0196 10.2415V10.2415ZM4.07273 7.51653L9.73992 1.85091L10.8852 2.99622L5.21804 8.66185L3.82898 8.90716L4.07273 7.51653V7.51653ZM12.743 11.554H1.24304C0.96648 11.554 0.743042 11.7775 0.743042 12.054V12.6165C0.743042 12.6853 0.799292 12.7415 0.868042 12.7415H13.118C13.1868 12.7415 13.243 12.6853 13.243 12.6165V12.054C13.243 11.7775 13.0196 11.554 12.743 11.554Z" fill="#1890FF"/>
</svg>
