<svg width="15" height="15" viewBox="0 0 15 15" fill="none" xmlns="http://www.w3.org/2000/svg">
  <g clip-path="url(#clip0_1_3948)">
    <path
      d="M12.3582 0.461426H3.98315C3.9144 0.461426 3.85815 0.517676 3.85815 0.586426V1.46143C3.85815 1.53018 3.9144 1.58643 3.98315 1.58643H11.7332V12.3364C11.7332 12.4052 11.7894 12.4614 11.8582 12.4614H12.7332C12.8019 12.4614 12.8582 12.4052 12.8582 12.3364V0.961426C12.8582 0.684863 12.6347 0.461426 12.3582 0.461426ZM10.3582 2.46143H2.35815C2.08159 2.46143 1.85815 2.68486 1.85815 2.96143V11.2536C1.85815 11.3864 1.91128 11.513 2.00503 11.6067L4.71284 14.3146C4.74722 14.3489 4.78628 14.3771 4.82847 14.4005V14.4302H4.89409C4.94878 14.4505 5.00659 14.4614 5.06597 14.4614H10.3582C10.6347 14.4614 10.8582 14.238 10.8582 13.9614V2.96143C10.8582 2.68486 10.6347 2.46143 10.3582 2.46143ZM4.8269 12.8396L3.48159 11.4927H4.8269V12.8396ZM9.73316 13.3364H5.8269V11.1177C5.8269 10.7724 5.54722 10.4927 5.2019 10.4927H2.98315V3.58643H9.73316V13.3364Z"
      fill="black"
      fill-opacity="0.85" />
  </g>
  <defs>
    <clipPath id="clip0_1_3948">
      <rect width="14" height="14" fill="white" transform="translate(0.358398 0.461426)" />
    </clipPath>
  </defs>
</svg>
