<svg  viewBox="0 0 16 17" fill="none" xmlns="http://www.w3.org/2000/svg">
<g style="mix-blend-mode:multiply" opacity="0.7">
<path d="M14.7479 11.0466C15.3206 11.5705 15.2353 12.3137 14.5651 12.7036L8.20502 16.432C7.5349 16.834 6.52362 16.7244 5.95096 16.2005L1.00422 11.6436C0.431562 11.1197 0.516851 10.3765 1.18698 9.98657L7.54708 6.25823C8.21721 5.86834 9.22849 5.97799 9.78896 6.50191L14.7479 11.0466Z" fill="#1B2023"/>
</g>
<path d="M14.1141 6.27035C14.1141 5.62459 13.7242 4.74734 13.2612 4.32089L9.15513 0.555999C8.69214 0.117371 7.85142 0.0320851 7.30314 0.361056L2.03961 3.44364C1.47914 3.76042 1.02832 4.55239 1.02832 5.19814L1.02832 9.19454C1.02832 9.82811 1.41822 10.7054 1.8934 11.144L5.98726 14.8967C6.45026 15.3353 7.29096 15.4206 7.83924 15.1038L13.1028 12.0212C13.6633 11.6923 14.1141 10.9003 14.1141 10.2667L14.1141 6.27035Z" fill="url(#paint0_linear_6055_31379)"/>
<path d="M13.1153 5.69766C13.6636 5.36869 14.1144 5.62455 14.1144 6.27031L14.1144 10.2667C14.1144 10.9003 13.6636 11.6922 13.1031 12.0212L7.83955 15.1038C7.29126 15.4206 6.84045 15.1647 6.84045 14.5311L6.84045 10.5226C6.84045 9.88899 7.29126 9.09702 7.85173 8.78024L13.1153 5.69766Z" fill="url(#paint1_linear_6055_31379)"/>
<path d="M10.7626 11.5581C11.1037 11.6556 11.6642 11.3267 12.0054 10.8271C12.3465 10.3276 12.3465 9.85238 12.0054 9.7549C11.6642 9.65743 11.1037 9.97422 10.7626 10.4738C10.4214 10.9733 10.4214 11.4607 10.7626 11.5581Z" fill="white"/>
<path d="M8.94666 11.0464C9.28782 11.1439 9.83611 10.8149 10.1895 10.3154C10.5306 9.81581 10.5306 9.32845 10.1895 9.23098C9.8483 9.13351 9.28782 9.46248 8.94666 9.96203C8.60551 10.4616 8.60551 10.9489 8.94666 11.0464Z" fill="white"/>
<path d="M5.98726 8.57313C6.46244 9.01175 6.84015 9.88901 6.84015 10.5226L6.84015 14.5312C6.84015 15.1647 6.45026 15.3353 5.98726 14.8967L1.8934 11.144C1.41822 10.7054 1.02832 9.82809 1.02832 9.19452L1.02832 5.19813C1.02832 4.55237 1.41822 4.38179 1.8934 4.82042L5.98726 8.57313Z" fill="url(#paint2_linear_6055_31379)"/>
<path d="M4.9645 12.5817C5.35439 12.9473 5.67118 12.8863 5.67118 12.4721C5.67118 12.0456 5.35439 11.4121 4.9645 11.0587C4.57461 10.7054 4.25781 10.7541 4.25781 11.1806C4.25781 11.5948 4.57461 12.2284 4.9645 12.5817Z" fill="white"/>
<path d="M2.90518 10.6931C3.29507 11.0586 3.61187 10.9977 3.61187 10.5712C3.61187 10.157 3.29507 9.52339 2.90518 9.17005C2.51529 8.81671 2.21069 8.86545 2.21069 9.29189C2.21069 9.70615 2.51529 10.3397 2.90518 10.6931Z" fill="white"/>
<path d="M4.9645 10.5468C5.35439 10.9123 5.67118 10.8514 5.67118 10.425C5.67118 10.0107 5.35439 9.37715 4.9645 9.02381C4.57461 8.67047 4.25781 8.71921 4.25781 9.14565C4.25781 9.55991 4.57461 10.1935 4.9645 10.5468Z" fill="white"/>
<path d="M2.90518 8.6584C3.29507 9.01174 3.61187 8.963 3.61187 8.53656C3.61187 8.1223 3.29507 7.48872 2.90518 7.13538C2.51529 6.78204 2.21069 6.83078 2.21069 7.25722C2.21069 7.67148 2.51529 8.30506 2.90518 8.6584Z" fill="white"/>
<path d="M13.2619 4.32089C13.7249 4.74734 13.6639 5.36872 13.1157 5.6977L7.85212 8.78028C7.29165 9.09706 6.46314 9.01177 5.98796 8.57314L1.8941 4.82044C1.41892 4.38181 1.47983 3.76042 2.0403 3.44364L7.30383 0.361056C7.85212 0.0320852 8.69283 0.117371 9.15583 0.555999L13.2619 4.32089Z" fill="url(#paint3_linear_6055_31379)"/>
<path d="M8.44917 4.05288C8.05928 3.69954 7.3526 3.63862 6.86524 3.91885C6.39006 4.21127 6.30477 4.72301 6.69466 5.08853C7.08455 5.44187 7.79123 5.49061 8.27859 5.21037C8.76596 4.93014 8.83907 4.40622 8.44917 4.05288Z" fill="white"/>
<defs>
<linearGradient id="paint0_linear_6055_31379" x1="16.6939" y1="7.35108" x2="17.4683" y2="19.272" gradientUnits="userSpaceOnUse">
<stop stop-color="#FF3936"/>
<stop offset="1" stop-color="#850400"/>
</linearGradient>
<linearGradient id="paint1_linear_6055_31379" x1="25.9566" y1="21.1861" x2="-5.15589" y2="21.9046" gradientUnits="userSpaceOnUse">
<stop stop-color="#FF3936"/>
<stop offset="1" stop-color="#AB0400"/>
</linearGradient>
<linearGradient id="paint2_linear_6055_31379" x1="-5.75934" y1="16.9107" x2="8.24339" y2="2.92639" gradientUnits="userSpaceOnUse">
<stop stop-color="#FF3936"/>
<stop offset="1" stop-color="#AB0400"/>
</linearGradient>
<linearGradient id="paint3_linear_6055_31379" x1="10.3698" y1="-2.43313" x2="24.056" y2="30.2076" gradientUnits="userSpaceOnUse">
<stop stop-color="#FF3936"/>
<stop offset="1" stop-color="#AB0400"/>
</linearGradient>
</defs>
</svg>
