<svg width="14" height="14" viewBox="0 0 14 14" fill="none" xmlns="http://www.w3.org/2000/svg">
  <path
    d="M4.875 0.254883C4.94375 0.254883 5 0.311133 5 0.379883V1.37988H9V0.379883C9 0.311212 9.05636 0.255013 9.125 0.254883H10C10.0688 0.254883 10.125 0.311133 10.125 0.379883V1.37988H12.75C13.0266 1.37988 13.25 1.60332 13.25 1.87988V12.2549C13.25 12.5314 13.0265 12.7549 12.75 12.7549H1.25C0.973565 12.7548 0.750028 12.5313 0.75 12.2549V1.87988C0.75 1.6034 0.973547 1.38001 1.25 1.37988H3.875V0.379883C3.875 0.311212 3.93136 0.255012 4 0.254883H4.875ZM1.875 5.69238V11.6299H12.125V5.69238H1.875ZM1.875 2.50488V4.62988H12.125V2.50488H10.125V3.25488C10.125 3.32361 10.0687 3.37988 10 3.37988H9.125C9.05638 3.37975 9.00003 3.32353 9 3.25488V2.50488H5V3.25488C4.99997 3.32361 4.94373 3.37988 4.875 3.37988H4C3.93138 3.37975 3.87503 3.32353 3.875 3.25488V2.50488H1.875Z" />
</svg>
