<svg width="21" height="21" viewBox="0 0 21 21" fill="none" xmlns="http://www.w3.org/2000/svg">
<path d="M14.4804 4.18315H12.5814V2.29636H3.75003C3.87176 2.34505 3.96914 2.38157 4.06652 2.42417C5.59422 2.9963 7.12191 3.56842 8.6496 4.14055C8.74699 4.17706 8.77742 4.21967 8.77742 4.32314C8.77742 8.02977 8.77742 11.7364 8.77742 15.443V15.6074H12.5814V13.7145H14.4804C14.4804 13.7145 14.4865 13.7571 14.4865 13.7754C14.4865 14.4388 14.4987 15.1083 14.4743 15.7717C14.4439 16.5995 13.7561 17.3542 12.9344 17.4881C12.7884 17.5124 12.6362 17.5246 12.4901 17.5246C11.3033 17.5246 10.1164 17.5246 8.92958 17.5246C8.88089 17.5246 8.8322 17.5246 8.77133 17.5246V20.3791C8.4731 20.2574 8.19312 20.1418 7.91315 20.0261C5.87419 19.1862 3.82915 18.3524 1.7902 17.5124C1.68673 17.4698 1.57109 17.4455 1.46153 17.409C0.694644 17.1229 0.195557 16.4169 0.195557 15.5891C0.195557 12.5094 0.195557 9.42965 0.195557 6.35601C0.195557 5.00482 0.195557 3.64754 0.195557 2.29636C0.195557 1.66946 0.451187 1.16428 0.938101 0.774751C1.29111 0.500862 1.69282 0.373047 2.13104 0.373047C4.11522 0.373047 6.0933 0.373047 8.07748 0.373047C9.57474 0.373047 11.072 0.373047 12.5753 0.373047C13.2692 0.373047 13.8109 0.683455 14.1943 1.26167C14.3952 1.56599 14.4865 1.90683 14.4865 2.27201C14.4865 2.88674 14.4865 3.50756 14.4865 4.12229C14.4865 4.13446 14.4865 4.15272 14.4804 4.17098V4.18315Z" fill="white"/>
<path d="M16.3794 12.7346C15.9411 12.2964 15.4968 11.852 15.0647 11.4199C15.5516 10.9269 16.0446 10.4217 16.5498 9.91048H10.6764V7.99934H16.5194C16.0203 7.50025 15.5334 7.00117 15.0464 6.52034C15.5029 6.06386 15.9533 5.61955 16.3855 5.18132C17.6332 6.42904 18.8991 7.69502 20.159 8.95491C18.9052 10.2087 17.6393 11.4747 16.3733 12.7407L16.3794 12.7346Z" fill="white"/>
</svg>
