<svg viewBox="0 0 19 19" fill="none" xmlns="http://www.w3.org/2000/svg">
  <path d="M12.9683 3.83976H11.2561V2.13854H3.29326C3.40301 2.18244 3.49082 2.21536 3.57862 2.25378C4.95606 2.76963 6.3335 3.28549 7.71094 3.80134C7.79875 3.83427 7.82618 3.87268 7.82618 3.96597C7.82618 7.30805 7.82618 10.6501 7.82618 13.9922V14.1404H11.2561V12.4337H12.9683C12.9683 12.4337 12.9737 12.4721 12.9737 12.4885C12.9737 13.0867 12.9847 13.6904 12.9628 14.2885C12.9353 15.0349 12.3152 15.7154 11.5744 15.8361C11.4426 15.858 11.3055 15.869 11.1737 15.869C10.1036 15.869 9.0335 15.869 7.96338 15.869C7.91948 15.869 7.87557 15.869 7.8207 15.869V18.4428C7.55179 18.333 7.29935 18.2288 7.04692 18.1245C5.2085 17.3672 3.3646 16.6154 1.52618 15.858C1.43289 15.8196 1.32862 15.7977 1.22984 15.7648C0.538379 15.5068 0.0883789 14.8702 0.0883789 14.1239C0.0883789 11.3471 0.0883789 8.57024 0.0883789 5.7989C0.0883789 4.58061 0.0883789 3.35683 0.0883789 2.13854C0.0883789 1.57329 0.318867 1.1178 0.757891 0.766584C1.07618 0.519632 1.43838 0.404388 1.8335 0.404388C3.62253 0.404388 5.40606 0.404388 7.19509 0.404388C8.54509 0.404388 9.89509 0.404388 11.2506 0.404388C11.8762 0.404388 12.3646 0.684267 12.7103 1.20561C12.8914 1.48 12.9737 1.78732 12.9737 2.11658C12.9737 2.67085 12.9737 3.23061 12.9737 3.78488C12.9737 3.79585 12.9737 3.81232 12.9683 3.82878V3.83976Z" fill="white"/>
  <path d="M14.6805 11.5501C14.2853 11.155 13.8847 10.7544 13.4951 10.3648C13.9341 9.92024 14.3786 9.46476 14.8341 9.00378H9.53838V7.28061H14.8067C14.3567 6.83061 13.9176 6.38061 13.4786 5.94707C13.8902 5.53549 14.2963 5.13488 14.6859 4.73975C15.8109 5.86475 16.9524 7.00622 18.0884 8.14219C16.9579 9.27268 15.8164 10.4141 14.675 11.5556L14.6805 11.5501Z" fill="white"/>
  </svg>
  