<svg width="20" height="20" viewBox="0 0 20 20" fill="none" xmlns="http://www.w3.org/2000/svg">
  <g clip-path="url(#clip0_1_3169)">
    <path
      fill-rule="evenodd"
      clip-rule="evenodd"
      d="M9.99935 1.66406C5.39685 1.66406 1.66602 5.3949 1.66602 9.9974C1.66602 11.5724 2.10352 13.0474 2.86435 14.3041L2.12102 16.8307C2.07834 16.9758 2.07553 17.1297 2.11289 17.2762C2.15024 17.4227 2.22639 17.5565 2.33332 17.6634C2.44024 17.7704 2.574 17.8465 2.72053 17.8839C2.86706 17.9212 3.02095 17.9184 3.16602 17.8757L5.69268 17.1324C6.99158 17.9183 8.4812 18.3328 9.99935 18.3307C14.6018 18.3307 18.3327 14.5999 18.3327 9.9974C18.3327 5.3949 14.6018 1.66406 9.99935 1.66406ZM8.11435 11.8832C9.80018 13.5682 11.4093 13.7907 11.9777 13.8116C12.8418 13.8432 13.6835 13.1832 14.011 12.4174C14.0524 12.3221 14.0674 12.2175 14.0545 12.1145C14.0416 12.0114 14.0012 11.9137 13.9377 11.8316C13.481 11.2482 12.8635 10.8291 12.2602 10.4124C12.1342 10.3253 11.9794 10.2904 11.8282 10.3149C11.6771 10.3395 11.5413 10.4216 11.4493 10.5441L10.9493 11.3066C10.9231 11.3476 10.8821 11.3769 10.8348 11.3887C10.7876 11.4005 10.7376 11.3938 10.6952 11.3699C10.356 11.1757 9.86185 10.8457 9.50685 10.4907C9.15185 10.1357 8.84185 9.66406 8.66768 9.34656C8.64609 9.30622 8.63984 9.25943 8.65011 9.21484C8.66038 9.17025 8.68646 9.1309 8.72352 9.10406L9.49352 8.5324C9.6034 8.43685 9.67432 8.30423 9.69276 8.15978C9.7112 8.01534 9.67588 7.86915 9.59351 7.74906C9.22018 7.2024 8.78518 6.5074 8.15435 6.04656C8.07294 5.98757 7.97757 5.95078 7.87763 5.93982C7.77768 5.92886 7.67661 5.94411 7.58435 5.98406C6.81768 6.3124 6.15435 7.15406 6.18602 8.0199C6.20685 8.58823 6.42935 10.1974 8.11435 11.8832Z"
      fill="#7992B2" />
  </g>
  <defs>
    <clipPath id="clip0_1_3169">
      <rect width="20" height="20" fill="white" />
    </clipPath>
  </defs>
</svg>
