<svg width="16" height="15" viewBox="0 0 16 15" fill="none" xmlns="http://www.w3.org/2000/svg">
<path d="M14.9805 3.19598C14.7449 2.65042 14.4051 2.15604 13.9803 1.74052C13.5551 1.32375 13.0538 0.99255 12.5037 0.764929C11.9333 0.527964 11.3214 0.406672 10.7037 0.408093C9.83711 0.408093 8.9916 0.645398 8.25684 1.09364C8.08105 1.20087 7.91406 1.31864 7.75586 1.44696C7.59766 1.31864 7.43066 1.20087 7.25488 1.09364C6.52012 0.645398 5.67461 0.408093 4.80801 0.408093C4.18398 0.408093 3.5793 0.527625 3.00801 0.764929C2.45605 0.993445 1.95859 1.32216 1.53145 1.74052C1.10605 2.15557 0.766231 2.65007 0.53125 3.19598C0.286914 3.76376 0.162109 4.36669 0.162109 4.98719C0.162109 5.57255 0.281641 6.18251 0.518945 6.80302C0.717578 7.32157 1.00234 7.85946 1.36621 8.40262C1.94277 9.26219 2.73555 10.1587 3.71992 11.0675C5.35117 12.5739 6.9666 13.6145 7.03516 13.6567L7.45176 13.9239C7.63633 14.0417 7.87363 14.0417 8.0582 13.9239L8.47481 13.6567C8.54336 13.6128 10.157 12.5739 11.79 11.0675C12.7744 10.1587 13.5672 9.26219 14.1438 8.40262C14.5076 7.85946 14.7941 7.32157 14.991 6.80302C15.2283 6.18251 15.3479 5.57255 15.3479 4.98719C15.3496 4.36669 15.2248 3.76376 14.9805 3.19598V3.19598Z" fill="#E62A26"/>
</svg>
