<svg width="21" height="22" viewBox="0 0 21 22" fill="none" xmlns="http://www.w3.org/2000/svg">
<path d="M10.6111 0.592773C5.08876 0.592773 0.611084 5.20705 0.611084 10.8978C0.611084 16.5886 5.08876 21.2029 10.6111 21.2029C16.1334 21.2029 20.6111 16.5886 20.6111 10.8978C20.6111 5.20705 16.1334 0.592773 10.6111 0.592773ZM10.6111 19.4547C6.02626 19.4547 2.30751 15.6225 2.30751 10.8978C2.30751 6.17315 6.02626 2.34095 10.6111 2.34095C15.1959 2.34095 18.9147 6.17315 18.9147 10.8978C18.9147 15.6225 15.1959 19.4547 10.6111 19.4547Z" fill="white"/>
<path d="M9.53931 6.84942C9.53931 7.14225 9.65219 7.42308 9.85312 7.63014C10.0541 7.83721 10.3266 7.95353 10.6107 7.95353C10.8949 7.95353 11.1674 7.83721 11.3683 7.63014C11.5693 7.42308 11.6822 7.14225 11.6822 6.84942C11.6822 6.55659 11.5693 6.27575 11.3683 6.06869C11.1674 5.86163 10.8949 5.7453 10.6107 5.7453C10.3266 5.7453 10.0541 5.86163 9.85312 6.06869C9.65219 6.27575 9.53931 6.55659 9.53931 6.84942ZM11.1464 9.42568L10.075 9.42568C9.97681 9.42568 9.89645 9.50849 9.89645 9.6097L9.89645 15.8663C9.89645 15.9676 9.97681 16.0504 10.075 16.0504L11.1464 16.0504C11.2447 16.0504 11.325 15.9676 11.325 15.8663L11.325 9.6097C11.325 9.50849 11.2447 9.42568 11.1464 9.42568Z" fill="white"/>
</svg>
