<svg width="107" height="24" viewBox="0 0 107 24" fill="none" xmlns="http://www.w3.org/2000/svg">
  <mask id="mask0_7717_4937" style="mask-type: luminance" maskUnits="userSpaceOnUse" x="0" y="1" width="18" height="22">
    <path d="M17.8428 1.97461H0.842773V22.0249H17.8428V1.97461Z" fill="white" />
  </mask>
  <g mask="url(#mask0_7717_4937)">
    <path
      d="M3.403 16.7716L12.2631 13.127C13.1079 15.1807 12.1262 17.5347 10.0724 18.3795L1.2123 22.0241C0.367491 19.9704 1.34926 17.6165 3.403 16.7716Z"
      fill="#1890FF" />
    <path
      d="M15.7635 15.4508C16.9116 15.4508 17.8424 14.5201 17.8424 13.3719C17.8424 12.2238 16.9116 11.293 15.7635 11.293C14.6153 11.293 13.6846 12.2238 13.6846 13.3719C13.6846 14.5201 14.6153 15.4508 15.7635 15.4508Z"
      fill="#3A3C3D" />
    <path
      d="M12.3193 7.53088C12.2217 4.44616 9.69199 1.97461 6.58349 1.97461C3.47499 1.97461 0.842773 4.54453 0.842773 7.71533C0.842773 10.4992 2.82411 12.8191 5.45305 13.3446C5.48912 13.6052 5.5506 13.8659 5.64078 14.1241L8.40006 13.1609L8.59434 13.0929C10.7732 12.2781 12.3242 10.1779 12.3242 7.71533C12.3242 7.65303 12.3217 7.59236 12.3193 7.53088ZM6.58349 10.5082C6.43757 10.5082 6.29494 10.4967 6.15558 10.4754C4.81693 10.2697 3.79142 9.11218 3.79142 7.71533C3.79142 6.17337 5.04154 4.92325 6.58349 4.92325C8.12544 4.92325 9.37556 6.17337 9.37556 7.71533C9.37556 8.02847 9.3231 8.3285 9.22883 8.60968C8.85584 9.71306 7.81312 10.5082 6.58349 10.5082Z"
      fill="#3A3C3D" />
  </g>
  <path
    d="M34.1824 14.9999H31.9824C31.729 14.9999 31.509 14.9132 31.3224 14.7399C31.149 14.5532 31.0624 14.3332 31.0624 14.0799V13.3199C31.0624 13.0666 31.149 12.8532 31.3224 12.6799C31.509 12.4932 31.729 12.3999 31.9824 12.3999H36.8824C37.1357 12.3999 37.349 12.4932 37.5224 12.6799C37.709 12.8532 37.8024 13.0666 37.8024 13.3199V14.3999C37.8024 16.2266 37.2557 17.6332 36.1624 18.6199C35.069 19.5932 33.4624 20.0799 31.3424 20.0799H29.1424C26.9824 20.0799 25.3224 19.4999 24.1624 18.3399C23.0157 17.1666 22.4424 15.3866 22.4424 12.9999C22.4424 10.5866 23.0424 8.80659 24.2424 7.65992C25.4557 6.49992 27.269 5.91992 29.6824 5.91992H31.8624C33.3024 5.91992 34.5957 6.26659 35.7424 6.95992C36.9024 7.63992 37.4824 8.49325 37.4824 9.51992C37.4824 9.90659 37.369 10.1866 37.1424 10.3599C36.9157 10.5199 36.6957 10.5999 36.4824 10.5999H35.3224C34.7624 10.5999 34.3224 10.2932 34.0024 9.67992C33.6557 9.01325 32.829 8.67992 31.5224 8.67992H29.7824C28.3557 8.67992 27.389 8.98659 26.8824 9.59992C26.3757 10.2132 26.1224 11.3466 26.1224 12.9999C26.1224 14.6266 26.349 15.7532 26.8024 16.3799C27.2557 17.0066 28.069 17.3199 29.2424 17.3199H31.2424C32.2957 17.3199 33.0424 17.1199 33.4824 16.7199C33.9357 16.3199 34.169 15.7466 34.1824 14.9999ZM43.9649 17.9799C44.9649 17.9799 45.9315 17.6866 46.8649 17.0999V15.5799H43.8649C43.4115 15.5799 43.0515 15.6932 42.7849 15.9199C42.5182 16.1332 42.3849 16.4132 42.3849 16.7599C42.3849 17.1199 42.5182 17.4132 42.7849 17.6399C43.0649 17.8666 43.4582 17.9799 43.9649 17.9799ZM44.8649 11.3199C43.9582 11.3199 43.3249 11.5399 42.9649 11.9799C42.6849 12.3266 42.3115 12.4999 41.8449 12.4999H40.3849C40.2115 12.4999 40.0649 12.4466 39.9449 12.3399C39.8382 12.2199 39.7849 12.0732 39.7849 11.8999C39.7849 10.0332 41.5582 9.09992 45.1049 9.09992C46.6515 9.09992 47.8915 9.44659 48.8249 10.1399C49.7715 10.8332 50.2449 11.9066 50.2449 13.3599V19.3999C50.2449 19.5732 50.1849 19.7199 50.0649 19.8399C49.9582 19.9466 49.8182 19.9999 49.6449 19.9999H47.7649C47.5915 19.9999 47.4449 19.9466 47.3249 19.8399C47.2182 19.7199 47.1649 19.5732 47.1649 19.3999V19.0999C46.1382 19.8332 44.9582 20.1999 43.6249 20.1999C42.2649 20.1999 41.1515 19.8999 40.2849 19.2999C39.4315 18.6999 39.0049 17.8532 39.0049 16.7599C39.0049 15.6666 39.4315 14.8266 40.2849 14.2399C41.1515 13.6532 42.2649 13.3599 43.6249 13.3599H46.8649C46.8649 12.5999 46.7049 12.0732 46.3849 11.7799C46.0649 11.4732 45.5582 11.3199 44.8649 11.3199ZM59.8117 19.3999V13.7999C59.8117 12.2399 59.2451 11.4599 58.1117 11.4599C57.3917 11.4599 56.6984 11.9266 56.0317 12.8599V19.3999C56.0317 19.5732 55.9717 19.7199 55.8517 19.8399C55.7451 19.9466 55.6051 19.9999 55.4317 19.9999H53.2517C53.0784 19.9999 52.9317 19.9466 52.8117 19.8399C52.7051 19.7199 52.6517 19.5732 52.6517 19.3999V9.89992C52.6517 9.72659 52.7051 9.58659 52.8117 9.47992C52.9317 9.35992 53.0784 9.29992 53.2517 9.29992H55.4317C55.6051 9.29992 55.7451 9.35992 55.8517 9.47992C55.9717 9.58659 56.0317 9.72659 56.0317 9.89992V10.5199C56.4984 10.0666 56.9584 9.71992 57.4117 9.47992C57.8651 9.22659 58.4117 9.09992 59.0517 9.09992C60.5717 9.09992 61.7184 9.72659 62.4917 10.9799C63.7051 9.72659 64.9451 9.09992 66.2117 9.09992C67.4917 9.09992 68.4984 9.48659 69.2317 10.2599C69.9784 11.0199 70.3517 12.1999 70.3517 13.7999V19.3999C70.3517 19.5732 70.2917 19.7199 70.1717 19.8399C70.0651 19.9466 69.9251 19.9999 69.7517 19.9999H67.5717C67.3984 19.9999 67.2517 19.9466 67.1317 19.8399C67.0251 19.7199 66.9717 19.5732 66.9717 19.3999V13.7999C66.9717 12.2399 66.4051 11.4599 65.2717 11.4599C64.5784 11.4599 63.8651 11.9599 63.1317 12.9599C63.1717 13.2399 63.1917 13.5199 63.1917 13.7999V19.3999C63.1917 19.5732 63.1317 19.7199 63.0117 19.8399C62.9051 19.9466 62.7651 19.9999 62.5917 19.9999H60.4117C60.2384 19.9999 60.0917 19.9466 59.9717 19.8399C59.8651 19.7199 59.8117 19.5732 59.8117 19.3999ZM75.5294 19.9999H73.3494C73.1761 19.9999 73.0294 19.9466 72.9094 19.8399C72.8027 19.7199 72.7494 19.5732 72.7494 19.3999V6.59992C72.7494 6.42659 72.8027 6.28659 72.9094 6.17992C73.0294 6.05992 73.1761 5.99992 73.3494 5.99992H75.5294C75.7027 5.99992 75.8427 6.05992 75.9494 6.17992C76.0694 6.28659 76.1294 6.42659 76.1294 6.59992V19.3999C76.1294 19.5732 76.0694 19.7199 75.9494 19.8399C75.8427 19.9466 75.7027 19.9999 75.5294 19.9999ZM88.7307 15.6799H81.3707C81.4373 16.4799 81.664 17.0666 82.0507 17.4399C82.4507 17.7999 83.0573 17.9799 83.8707 17.9799C84.7907 17.9799 85.4307 17.7599 85.7907 17.3199C86.0707 16.9732 86.444 16.7999 86.9107 16.7999H88.3707C88.544 16.7999 88.684 16.8599 88.7907 16.9799C88.9107 17.0866 88.9707 17.2266 88.9707 17.3999C88.9707 19.2666 87.1907 20.1999 83.6307 20.1999C81.8307 20.1999 80.4307 19.7266 79.4307 18.7799C78.4307 17.8199 77.9307 16.4466 77.9307 14.6599C77.9307 12.8732 78.4307 11.4999 79.4307 10.5399C80.444 9.57992 81.844 9.09992 83.6307 9.09992C85.4307 9.09992 86.8307 9.56659 87.8307 10.4999C88.8307 11.4332 89.3307 12.7732 89.3307 14.5199V15.0799C89.3307 15.2532 89.2707 15.3999 89.1507 15.5199C89.044 15.6266 88.904 15.6799 88.7307 15.6799ZM85.8907 13.6199C85.824 12.0866 85.0707 11.3199 83.6307 11.3199C82.1907 11.3199 81.4307 12.0866 81.3507 13.6199H85.8907ZM99.4483 9.69992V11.1799C99.4483 11.3532 99.3883 11.4999 99.2683 11.6199C99.1616 11.7266 99.0216 11.7799 98.8483 11.7799H98.5283C98.3816 11.7799 98.135 11.7732 97.7883 11.7599C97.455 11.7332 97.2016 11.7199 97.0283 11.7199C96.1483 11.7199 95.3083 12.1999 94.5083 13.1599V19.3999C94.5083 19.5732 94.4483 19.7199 94.3283 19.8399C94.2216 19.9466 94.0816 19.9999 93.9083 19.9999H91.7283C91.555 19.9999 91.4083 19.9466 91.2883 19.8399C91.1816 19.7199 91.1283 19.5732 91.1283 19.3999V9.89992C91.1283 9.72659 91.1816 9.58659 91.2883 9.47992C91.4083 9.35992 91.555 9.29992 91.7283 9.29992H93.9083C94.0816 9.29992 94.2216 9.35992 94.3283 9.47992C94.4483 9.58659 94.5083 9.72659 94.5083 9.89992V10.5199C95.175 10.0399 95.815 9.68659 96.4283 9.45992C97.0416 9.21992 97.8483 9.09992 98.8483 9.09992C99.0216 9.09992 99.1616 9.15992 99.2683 9.27992C99.3883 9.38659 99.4483 9.52659 99.4483 9.69992Z"
    fill="#3A3C3D" />
</svg>
