<?xml version="1.0" encoding="UTF-8"?>
<svg id="_Слой_1" data-name="Слой 1" xmlns="http://www.w3.org/2000/svg" viewBox="0 0 462.64 462.64">
  <defs>
    <style>
      .cls-1 {
        fill: #eff4fa;
      }

      .cls-2 {
        fill: #1890ff;
      }

      .cls-3 {
        fill: #050606;
      }
    </style>
  </defs>
  <circle class="cls-1" cx="231.32" cy="231.32" r="231.32"/>
  <g>
    <g>
      <path class="cls-2" d="M181.85,282.3h145.49v8.47c0,27.09-22,49.09-49.09,49.09H132.76v-8.47c0-27.09,22-49.09,49.09-49.09Z" transform="translate(-101.05 110.91) rotate(-22.36)"/>
      <circle class="cls-3" cx="359.13" cy="250.96" r="29.74"/>
    </g>
    <path class="cls-3" d="M309.88,167.39c-1.4-44.12-37.58-79.47-82.04-79.47s-82.11,36.76-82.11,82.11c0,39.81,28.34,73,65.94,80.51,.52,3.73,1.4,7.46,2.69,11.15l39.46-13.77,2.78-.97c31.16-11.66,53.35-41.69,53.35-76.92,0-.89-.04-1.76-.07-2.64Zm-82.04,42.58c-2.08,0-4.13-.16-6.12-.47-19.15-2.95-33.82-19.5-33.82-39.47,0-22.06,17.88-39.94,39.94-39.94s39.94,17.88,39.94,39.94c0,4.47-.75,8.77-2.1,12.79-5.33,15.78-20.25,27.15-37.84,27.15Z"/>
  </g>
</svg>