<svg width="23" height="19" viewBox="0 0 23 19" fill="none" xmlns="http://www.w3.org/2000/svg">
  <path
    d="M22.0641 0.0432129H1.06414C0.946282 0.0432129 0.849854 0.139641 0.849854 0.257499V1.97178C0.849854 2.08964 0.946282 2.18607 1.06414 2.18607H22.0641C22.182 2.18607 22.2784 2.08964 22.2784 1.97178V0.257499C22.2784 0.139641 22.182 0.0432129 22.0641 0.0432129ZM22.0641 16.7575H1.06414C0.946282 16.7575 0.849854 16.8539 0.849854 16.9718V18.6861C0.849854 18.8039 0.946282 18.9004 1.06414 18.9004H22.0641C22.182 18.9004 22.2784 18.8039 22.2784 18.6861V16.9718C22.2784 16.8539 22.182 16.7575 22.0641 16.7575ZM22.0641 8.40036H1.06414C0.946282 8.40036 0.849854 8.49679 0.849854 8.61464V10.3289C0.849854 10.4468 0.946282 10.5432 1.06414 10.5432H22.0641C22.182 10.5432 22.2784 10.4468 22.2784 10.3289V8.61464C22.2784 8.49679 22.182 8.40036 22.0641 8.40036Z"
    fill="black"
    fill-opacity="0.85" />
</svg>
