<svg width="14" height="14" viewBox="0 0 14 14" fill="none" xmlns="http://www.w3.org/2000/svg">
<path d="M4.57926 0.0854492H1.24593C0.785694 0.0854492 0.412598 0.458545 0.412598 0.918782V4.25212C0.412598 4.71235 0.785694 5.08545 1.24593 5.08545H4.57926C5.0395 5.08545 5.4126 4.71235 5.4126 4.25212V0.918782C5.4126 0.458545 5.0395 0.0854492 4.57926 0.0854492Z" fill="black"/>
<path d="M12.9126 0.0854492H9.57926C9.11903 0.0854492 8.74593 0.458545 8.74593 0.918782V4.25212C8.74593 4.71235 9.11903 5.08545 9.57926 5.08545H12.9126C13.3728 5.08545 13.7459 4.71235 13.7459 4.25212V0.918782C13.7459 0.458545 13.3728 0.0854492 12.9126 0.0854492Z" fill="black"/>
<path d="M4.57926 8.41878H1.24593C0.785694 8.41878 0.412598 8.79188 0.412598 9.25212V12.5854C0.412598 13.0457 0.785694 13.4188 1.24593 13.4188H4.57926C5.0395 13.4188 5.4126 13.0457 5.4126 12.5854V9.25212C5.4126 8.79188 5.0395 8.41878 4.57926 8.41878Z" fill="black"/>
<path d="M12.9126 8.41878H9.57926C9.11903 8.41878 8.74593 8.79188 8.74593 9.25212V12.5854C8.74593 13.0457 9.11903 13.4188 9.57926 13.4188H12.9126C13.3728 13.4188 13.7459 13.0457 13.7459 12.5854V9.25212C13.7459 8.79188 13.3728 8.41878 12.9126 8.41878Z" fill="black"/>
</svg>
