<svg width="5" height="17" viewBox="0 0 5 17" fill="none" xmlns="http://www.w3.org/2000/svg">
<path d="M2.21704 9.57324C2.76933 9.57324 3.21704 9.12553 3.21704 8.57324C3.21704 8.02096 2.76933 7.57324 2.21704 7.57324C1.66476 7.57324 1.21704 8.02096 1.21704 8.57324C1.21704 9.12553 1.66476 9.57324 2.21704 9.57324Z" fill="black" stroke="black" stroke-width="2" stroke-linecap="round" stroke-linejoin="round"/>
<path d="M2.21704 3.57324C2.76933 3.57324 3.21704 3.12553 3.21704 2.57324C3.21704 2.02096 2.76933 1.57324 2.21704 1.57324C1.66476 1.57324 1.21704 2.02096 1.21704 2.57324C1.21704 3.12553 1.66476 3.57324 2.21704 3.57324Z" fill="black" stroke="black" stroke-width="2" stroke-linecap="round" stroke-linejoin="round"/>
<path d="M2.21704 15.5732C2.76933 15.5732 3.21704 15.1255 3.21704 14.5732C3.21704 14.021 2.76933 13.5732 2.21704 13.5732C1.66476 13.5732 1.21704 14.021 1.21704 14.5732C1.21704 15.1255 1.66476 15.5732 2.21704 15.5732Z" fill="black" stroke="black" stroke-width="2" stroke-linecap="round" stroke-linejoin="round"/>
</svg>
