<svg viewBox="0 0 16 19" xmlns="http://www.w3.org/2000/svg">
<path d="M8.13996 0.221588C8.68713 0.221588 9.22895 0.329362 9.73447 0.538757C10.24 0.748151 10.6993 1.05507 11.0862 1.44198C11.4731 1.82889 11.7801 2.28822 11.9895 2.79374C12.1989 3.29926 12.3066 3.84108 12.3066 4.38826V7.72159C12.3066 8.82666 11.8676 9.88647 11.0862 10.6679C10.3048 11.4493 9.24503 11.8883 8.13996 11.8883C7.03489 11.8883 5.97508 11.4493 5.19368 10.6679C4.41228 9.88647 3.97329 8.82666 3.97329 7.72159V4.38826C3.97329 3.28319 4.41228 2.22338 5.19368 1.44198C5.97508 0.660575 7.03489 0.221588 8.13996 0.221588ZM0.685791 8.55492H2.36496C2.56687 9.94224 3.26152 11.2105 4.32182 12.1276C5.38212 13.0448 6.73719 13.5496 8.13912 13.5496C9.54106 13.5496 10.8961 13.0448 11.9564 12.1276C13.0167 11.2105 13.7114 9.94224 13.9133 8.55492H15.5933C15.4038 10.2455 14.6455 11.8215 13.4426 13.0245C12.2398 14.2275 10.6639 14.9861 8.97329 15.1758V18.5549H7.30662V15.1758C5.6159 14.9862 4.03978 14.2278 2.83677 13.0248C1.63376 11.8218 0.875302 10.2456 0.685791 8.55492Z" />
</svg>
