<svg width="20" height="20" viewBox="0 0 20 20" fill="none" xmlns="http://www.w3.org/2000/svg">
<path d="M19.6807 10.4941C19.6807 15.7558 15.3204 19.9999 9.94448 19.9999C4.53874 19.9999 0.178285 15.7556 0.178233 10.494L0.178223 9.47656L19.6807 9.47668L19.6807 10.4941Z" fill="url(#paint0_linear_10038_1591)"/>
<path d="M0.178225 9.68005C0.178277 14.9126 4.53874 19.1568 9.94447 19.1569C15.3203 19.1569 19.6807 14.9127 19.6807 9.68017L19.6807 9.47668L0.178223 9.47656L0.178225 9.68005Z" fill="url(#paint1_linear_10038_1591)"/>
<path d="M19.6808 9.47687C19.6808 14.7094 15.3204 18.9827 9.94457 18.9826C4.53883 18.9826 0.17837 14.7093 0.178317 9.47675C0.178265 4.24418 4.53864 2.66739e-05 9.94438 5.97423e-05C15.3202 9.2628e-05 19.6807 4.2443 19.6808 9.47687Z" fill="url(#paint2_linear_10038_1591)"/>
<g style="mix-blend-mode:overlay">
<path d="M9.94356 1.37024e-05C9.16705 8.95222e-06 8.4204 0.0775203 7.70362 0.232555L17.9478 14.8838C19.0528 13.3431 19.68 11.4826 19.68 9.47682C19.6799 8.89542 19.6302 8.33341 19.5306 7.79077L15.0506 1.39539C13.5573 0.523289 11.8251 2.52124e-05 9.94356 1.37024e-05Z" fill="url(#paint3_linear_10038_1591)"/>
<path d="M3.70184 2.17971C1.70084 3.77854 0.386755 6.16224 0.207586 8.83666L7.01712 18.546C7.94296 18.8077 8.89867 18.9821 9.94398 18.9821C11.6463 18.9821 13.2293 18.546 14.6329 17.7902L3.70184 2.17971Z" fill="url(#paint4_linear_10038_1591)"/>
</g>
<path d="M17.7092 9.47621C17.7092 13.6623 14.2448 17.0634 9.94409 17.0634C5.64339 17.0633 2.14904 13.6622 2.149 9.47612C2.14896 5.29006 5.64324 1.91799 9.94393 1.91802C14.2446 1.91804 17.7091 5.29016 17.7092 9.47621Z" fill="url(#paint5_linear_10038_1591)"/>
<g style="mix-blend-mode:multiply">
<path d="M17.3816 9.47676C17.3817 13.4884 14.0367 16.7151 9.94506 16.7151C5.82356 16.7151 2.50841 13.4883 2.50837 9.47667C2.50833 5.49411 5.82341 2.2383 9.94491 2.23833C14.0366 2.23835 17.3816 5.4942 17.3816 9.47676Z" fill="#E86B05"/>
</g>
<path d="M16.903 9.47625C16.9031 13.2263 13.797 16.2786 9.94433 16.2785C6.09162 16.2785 2.95567 13.2262 2.95563 9.47617C2.9556 5.72616 6.09148 2.67385 9.94419 2.67387C13.7969 2.67389 16.903 5.72625 16.903 9.47625Z" fill="url(#paint6_linear_10038_1591)"/>
<path d="M14.0057 7.44241L11.7657 7.00635L10.6607 5.08774C10.2724 4.39007 9.61535 4.39006 9.19723 5.08773L8.09223 7.00633L5.88214 7.44236C5.07576 7.5877 4.86671 8.19816 5.43417 8.77956L6.95734 10.4075L6.68858 12.6168C6.59899 13.4017 7.13658 13.7796 7.88322 13.4307L9.94396 12.5005L12.0047 13.4308C12.7514 13.7796 13.2591 13.4017 13.1695 12.6168L13.0799 11.861L12.9007 10.4075L14.4537 8.77962C15.0211 8.19822 14.8121 7.58776 14.0057 7.44241Z" fill="url(#paint7_linear_10038_1591)"/>
<g style="mix-blend-mode:overlay">
<path d="M14.0069 7.44133L12.5435 7.17969L14.0069 9.24366L14.4549 8.77854C15.0223 8.19715 14.8132 7.58669 14.0069 7.44133Z" fill="url(#paint8_linear_10038_1591)"/>
<path d="M11.4093 13.1681L7.19818 7.1797L5.88407 7.44133C5.07769 7.58667 4.86863 8.19713 5.43609 8.77853L6.95927 10.4065L6.6905 12.6158C6.60091 13.4006 7.13851 13.7785 7.88515 13.4297L9.94588 12.4995L11.4093 13.1681Z" fill="url(#paint9_linear_10038_1591)"/>
</g>
<defs>
<linearGradient id="paint0_linear_10038_1591" x1="9.13496" y1="4.17719" x2="21.708" y2="22.7433" gradientUnits="userSpaceOnUse">
<stop stop-color="#FFA705"/>
<stop offset="1" stop-color="#FF8605"/>
</linearGradient>
<linearGradient id="paint1_linear_10038_1591" x1="7.39659" y1="17.1295" x2="7.39663" y2="11.39" gradientUnits="userSpaceOnUse">
<stop stop-color="#FFEA05"/>
<stop offset="1" stop-color="#FFBB05"/>
</linearGradient>
<linearGradient id="paint2_linear_10038_1591" x1="13.8203" y1="-8.21678" x2="30.8818" y2="16.9773" gradientUnits="userSpaceOnUse">
<stop stop-color="#FFEA05"/>
<stop offset="1" stop-color="#FFBB05"/>
</linearGradient>
<linearGradient id="paint3_linear_10038_1591" x1="-7.85674" y1="10.3429" x2="10.7689" y2="-6.93445" gradientUnits="userSpaceOnUse">
<stop stop-color="white"/>
<stop offset="1" stop-color="white" stop-opacity="0"/>
</linearGradient>
<linearGradient id="paint4_linear_10038_1591" x1="-14.5874" y1="11.1238" x2="2.73021" y2="-2.85587" gradientUnits="userSpaceOnUse">
<stop stop-color="white"/>
<stop offset="1" stop-color="white" stop-opacity="0"/>
</linearGradient>
<linearGradient id="paint5_linear_10038_1591" x1="6.3686" y1="22.8029" x2="-8.14437" y2="1.91147" gradientUnits="userSpaceOnUse">
<stop stop-color="#FFEA05"/>
<stop offset="1" stop-color="#FFBB05"/>
</linearGradient>
<linearGradient id="paint6_linear_10038_1591" x1="12.7148" y1="-3.18426" x2="24.9243" y2="14.845" gradientUnits="userSpaceOnUse">
<stop stop-color="#FFA705"/>
<stop offset="1" stop-color="#FF8605"/>
</linearGradient>
<linearGradient id="paint7_linear_10038_1591" x1="8.00122" y1="16.9741" x2="-0.787614" y2="4.32233" gradientUnits="userSpaceOnUse">
<stop stop-color="#FFEA05"/>
<stop offset="1" stop-color="#FFBB05"/>
</linearGradient>
<linearGradient id="paint8_linear_10038_1591" x1="10.5111" y1="9.02271" x2="13.5079" y2="6.2429" gradientUnits="userSpaceOnUse">
<stop stop-color="white"/>
<stop offset="1" stop-color="white" stop-opacity="0"/>
</linearGradient>
<linearGradient id="paint9_linear_10038_1591" x1="19.1003" y1="6.32628" x2="9.9898" y2="15.6864" gradientUnits="userSpaceOnUse">
<stop stop-color="white"/>
<stop offset="1" stop-color="white" stop-opacity="0"/>
</linearGradient>
</defs>
</svg>
