<svg width="17" height="19" viewBox="0 0 17 19" fill="none" xmlns="http://www.w3.org/2000/svg">
<path d="M14.3775 7.79657V9.33841C14.3775 10.7696 13.8293 12.1422 12.8534 13.1543C11.8775 14.1663 10.5539 14.7349 9.1738 14.7349M9.1738 14.7349C7.79369 14.7349 6.47011 14.1663 5.49422 13.1543C4.51834 12.1422 3.97009 10.7696 3.97009 9.33841V7.79657M9.1738 14.7349L9.17383 17.6258M5.70471 17.6258H12.0648M8.88475 1.43652C8.34804 1.43652 7.83331 1.67149 7.4538 2.08972C7.07429 2.50796 6.86108 3.07521 6.86108 3.66669V9.61378C6.86108 10.2053 7.07429 10.7725 7.4538 11.1907C7.83331 11.609 8.34804 11.8439 8.88475 11.8439C9.42146 11.8439 9.93619 11.609 10.3157 11.1907C10.6952 10.7725 10.9084 10.2053 10.9084 9.61378V3.66669C10.9084 3.07521 10.6952 2.50796 10.3157 2.08972C9.93619 1.67149 9.42146 1.43652 8.88475 1.43652Z" stroke="white" stroke-width="1.2" stroke-linecap="round" stroke-linejoin="round"/>
<line opacity="0.8" x1="0.957814" y1="15.1877" x2="16.6148" y2="2.74339" stroke="white"/>
</svg>
