<svg width="14" height="14" viewBox="0 0 14 14" fill="none" xmlns="http://www.w3.org/2000/svg">
<path d="M11 0.254883C11.0688 0.254883 11.125 0.311133 11.125 0.379883V1.00488H12.5625C12.7448 1.00488 12.9199 1.07718 13.0488 1.20605C13.1778 1.33499 13.25 1.51005 13.25 1.69238V4.00488C13.25 5.28142 12.3127 6.34239 11.0908 6.53613C10.8486 8.35173 9.39061 9.78145 7.5625 9.98145V11.625H10.625C10.9015 11.625 11.1249 11.8485 11.125 12.125V12.6299C11.125 12.6986 11.0687 12.7549 11 12.7549H3C2.93138 12.7548 2.87503 12.6985 2.875 12.6299V12.125C2.87508 11.8486 3.09859 11.6251 3.375 11.625H6.4375V9.98145C4.60948 9.78135 3.15136 8.35168 2.90918 6.53613C1.68752 6.34221 0.750026 5.28128 0.75 4.00488V1.69238C0.75 1.51012 0.822332 1.33497 0.951172 1.20605C1.08005 1.07718 1.25525 1.00495 1.4375 1.00488H2.875V0.379883C2.875 0.311212 2.93136 0.255012 3 0.254883H11ZM4 1.37988V6.00488C4.00001 6.77205 4.29904 7.49435 4.84277 8.03809C5.38486 8.58153 6.10809 8.87982 6.875 8.87988H7.125C7.89212 8.87988 8.61447 8.58174 9.1582 8.03809C9.70194 7.49591 9.99999 6.77205 10 6.00488V1.37988H4ZM1.875 2.12988V4.00488C1.87511 4.30955 1.97261 4.60653 2.15234 4.85254C2.33205 5.09837 2.58492 5.28135 2.875 5.37402V2.12988H1.875ZM11.125 2.12988V5.37402C11.7047 5.18965 12.125 4.64548 12.125 4.00488V2.12988H11.125Z" fill="black" fill-opacity="0.85"/>
</svg>
