<svg width="14" height="14" viewBox="0 0 14 14" fill="none" xmlns="http://www.w3.org/2000/svg">
<path d="M8.5127 2.94226C10.2439 2.9157 11.6873 4.33615 11.6875 6.06726C11.6875 7.04846 11.2361 7.92351 10.5283 8.49695C11.0302 8.72981 11.4869 9.04992 11.8779 9.44128C12.7342 10.2959 13.2187 11.4237 13.25 12.6268C13.2504 12.6435 13.2473 12.6601 13.2412 12.6757C13.2351 12.6912 13.2265 12.7057 13.2148 12.7177C13.2032 12.7295 13.1891 12.7385 13.1738 12.745C13.1585 12.7515 13.1417 12.7548 13.125 12.7548H12.25C12.1829 12.7546 12.1266 12.7017 12.125 12.6346C12.0937 11.7284 11.7267 10.8799 11.083 10.2362C10.4096 9.56283 9.51402 9.19226 8.56251 9.19226C8.09444 9.19099 7.63071 9.28273 7.19825 9.46179C6.76564 9.64095 6.37222 9.90423 6.042 10.2362C5.39682 10.8799 5.02971 11.7285 5.00001 12.6346C4.99844 12.7018 4.94219 12.7548 4.87501 12.7548H4.00001C3.98352 12.7547 3.96736 12.7514 3.95215 12.745C3.93693 12.7386 3.92272 12.7294 3.91114 12.7177C3.89949 12.7057 3.88989 12.6912 3.8838 12.6757C3.87773 12.6602 3.87459 12.6435 3.87501 12.6268C3.90628 11.4238 4.3911 10.2959 5.24415 9.44128C5.63509 9.04975 6.09178 8.72965 6.59376 8.49695C5.88769 7.92351 5.43458 7.04837 5.43458 6.06726C5.43474 4.35805 6.80815 2.96886 8.5127 2.94226ZM5.49122 0.254761C6.69109 0.273624 7.72856 0.967932 8.23633 1.97253C8.27514 2.0506 8.2251 2.14383 8.1377 2.1532C7.83928 2.18445 7.54843 2.25223 7.27344 2.34753C7.22044 2.36607 7.15914 2.34598 7.12794 2.29773C7.03887 2.16023 6.93301 2.03152 6.80958 1.91589C6.44553 1.57532 5.96422 1.38347 5.46583 1.37878C4.9143 1.37256 4.39569 1.58799 4.00977 1.98328C3.65821 2.34265 3.45645 2.8196 3.44239 3.32117C3.43413 3.59785 3.48384 3.87326 3.5879 4.12976C3.69199 4.38634 3.84811 4.61864 4.04688 4.8114C4.21563 4.97703 4.41153 5.10867 4.62403 5.20398C4.67522 5.2275 4.70506 5.28472 4.69434 5.3407C4.65061 5.57654 4.62698 5.81893 4.62696 6.06726C4.62696 6.20632 4.63438 6.34441 4.64844 6.48035C4.65612 6.54275 4.61555 6.60048 4.55469 6.61609C3.94075 6.7708 3.37825 7.08941 2.91895 7.54871C2.27367 8.19243 1.90667 9.04094 1.87696 9.94714C1.8754 10.0143 1.8191 10.0672 1.75196 10.0673H0.875006C0.85852 10.0672 0.842363 10.0639 0.827155 10.0575C0.811926 10.0511 0.797721 10.0419 0.786139 10.0302C0.77449 10.0182 0.76489 10.0037 0.758795 9.98816C0.752726 9.97266 0.74959 9.95597 0.750006 9.93933C0.78128 8.73468 1.26585 7.6065 2.12208 6.75183C2.5189 6.35501 2.97684 6.03815 3.47364 5.80847C2.76589 5.23509 2.31455 4.35992 2.31446 3.37878C2.31446 1.6491 3.7584 0.228199 5.49122 0.254761ZM8.542 4.06726C8.00624 4.07363 7.50478 4.28847 7.12989 4.67273C6.77225 5.03989 6.56719 5.53536 6.56251 6.04773C6.55892 6.31375 6.60936 6.57781 6.70997 6.8241C6.81058 7.07037 6.95962 7.29391 7.14844 7.48132C7.52494 7.85938 8.02823 8.06719 8.56251 8.06726C8.82549 8.06803 9.08612 8.01647 9.32911 7.91589C9.57209 7.81532 9.79302 7.66772 9.97852 7.48132C10.3565 7.10322 10.5645 6.60154 10.5645 6.06726C10.5644 5.52675 10.3513 5.01914 9.96387 4.63953C9.58577 4.26934 9.07159 4.06257 8.542 4.06726Z" fill="black" fill-opacity="0.85"/>
</svg>
