<svg width="18" height="17" viewBox="0 0 18 17" fill="none" xmlns="http://www.w3.org/2000/svg">
<path fill-rule="evenodd" clip-rule="evenodd" d="M8.71273 0.166504C4.11023 0.166504 0.379395 3.89734 0.379395 8.49984C0.379395 10.0748 0.816895 11.5498 1.57773 12.8065L0.834395 15.3332C0.791715 15.4782 0.788907 15.6321 0.826265 15.7787C0.863623 15.9252 0.939768 16.0589 1.04669 16.1659C1.15362 16.2728 1.28738 16.3489 1.43391 16.3863C1.58044 16.4237 1.73433 16.4209 1.87939 16.3782L4.40606 15.6348C5.70496 16.4207 7.19458 16.8352 8.71273 16.8332C13.3152 16.8332 17.0461 13.1023 17.0461 8.49984C17.0461 3.89734 13.3152 0.166504 8.71273 0.166504ZM6.82773 10.3857C8.51356 12.0707 10.1227 12.2932 10.6911 12.314C11.5552 12.3457 12.3969 11.6857 12.7244 10.9198C12.7657 10.8246 12.7807 10.7199 12.7678 10.6169C12.7549 10.5138 12.7146 10.4161 12.6511 10.334C12.1944 9.75067 11.5769 9.3315 10.9736 8.91484C10.8476 8.82774 10.6928 8.7928 10.5416 8.81735C10.3905 8.84189 10.2547 8.92402 10.1627 9.0465L9.66273 9.809C9.63644 9.85 9.59548 9.87939 9.54823 9.89116C9.50097 9.90294 9.45101 9.8962 9.40856 9.87234C9.06939 9.67817 8.57523 9.34817 8.22023 8.99317C7.86523 8.63817 7.55523 8.1665 7.38106 7.849C7.35947 7.80867 7.35322 7.76187 7.36349 7.71728C7.37376 7.67269 7.39983 7.63334 7.43689 7.6065L8.20689 7.03484C8.31678 6.93929 8.3877 6.80667 8.40614 6.66222C8.42458 6.51778 8.38925 6.37159 8.30689 6.2515C7.93356 5.70484 7.49856 5.00984 6.86773 4.549C6.78632 4.49001 6.69095 4.45322 6.591 4.44226C6.49106 4.4313 6.38999 4.44655 6.29773 4.4865C5.53106 4.81484 4.86773 5.6565 4.89939 6.52234C4.92023 7.09067 5.14273 8.69984 6.82773 10.3857Z" fill="#7992B2"/>
</svg>
