<svg width="21" height="21" viewBox="0 0 21 21" fill="none" xmlns="http://www.w3.org/2000/svg">
<path d="M14.9102 9.66664H11.5173V6.27379C11.5173 6.17557 11.437 6.09522 11.3388 6.09522H10.2673C10.1691 6.09522 10.0888 6.17557 10.0888 6.27379V9.66664H6.69591C6.59769 9.66664 6.51733 9.747 6.51733 9.84522V10.9166C6.51733 11.0149 6.59769 11.0952 6.69591 11.0952H10.0888V14.4881C10.0888 14.5863 10.1691 14.6666 10.2673 14.6666H11.3388C11.437 14.6666 11.5173 14.5863 11.5173 14.4881V11.0952H14.9102C15.0084 11.0952 15.0888 11.0149 15.0888 10.9166V9.84522C15.0888 9.747 15.0084 9.66664 14.9102 9.66664Z" fill="black"/>
<path d="M10.8032 0.379883C5.2809 0.379883 0.803223 4.85756 0.803223 10.3799C0.803223 15.9022 5.2809 20.3799 10.8032 20.3799C16.3255 20.3799 20.8032 15.9022 20.8032 10.3799C20.8032 4.85756 16.3255 0.379883 10.8032 0.379883ZM10.8032 18.6835C6.2184 18.6835 2.49965 14.9647 2.49965 10.3799C2.49965 5.79506 6.2184 2.07631 10.8032 2.07631C15.388 2.07631 19.1068 5.79506 19.1068 10.3799C19.1068 14.9647 15.388 18.6835 10.8032 18.6835Z" fill="black"/>
</svg>
