<svg width="14" height="14" viewBox="0 0 14 14" fill="none" xmlns="http://www.w3.org/2000/svg">
<rect width="14" height="14" fill="white"/>
<path d="M7.05567 0.767578C7.07304 0.776324 7.08796 0.789126 7.09962 0.804688L10.0156 4.69336L13.0557 2.82031C13.1463 2.76564 13.2605 2.83872 13.2481 2.94336L12.0547 12.0156C12.039 12.1405 11.9306 12.2344 11.8057 12.2344H2.19532C2.06886 12.2344 1.96263 12.1389 1.94532 12.0156L0.750987 2.94336C0.737076 2.83876 0.85338 2.76566 0.942394 2.82031L3.98439 4.69336L6.89845 0.804688C6.91009 0.78915 6.92506 0.776323 6.94239 0.767578C6.95987 0.758835 6.97949 0.753914 6.99903 0.753906C7.01859 0.753906 7.03818 0.758827 7.05567 0.767578ZM4.25489 6.11426L2.07032 4.76855L2.91114 11.165H11.0869L11.9297 4.76855L9.74513 6.11426L7.00001 2.45117L4.25489 6.11426ZM7.00001 6.45312C7.97015 6.4532 8.75863 7.24179 8.7588 8.21191C8.7588 9.18218 7.97026 9.9716 7.00001 9.97168C6.0297 9.97168 5.24025 9.18223 5.24025 8.21191C5.24042 7.24175 6.0298 6.45312 7.00001 6.45312ZM7.00001 7.45801C6.58449 7.45801 6.24725 7.79643 6.24708 8.21191C6.24708 8.6291 6.58439 8.9668 7.00001 8.9668C7.41557 8.96672 7.75294 8.62749 7.75294 8.21191C7.75277 7.79492 7.41547 7.45809 7.00001 7.45801Z" fill="black" fill-opacity="0.85"/>
</svg>
