<svg width="23" height="23" viewBox="0 0 23 23" fill="none" xmlns="http://www.w3.org/2000/svg">
<path d="M0.756592 13.0323C0.946346 12.6525 1.11219 12.3086 1.28701 11.9692C1.62767 11.3098 1.95189 10.6415 2.31945 9.9986C2.67654 9.37362 3.13375 8.82639 3.72243 8.39728C4.38732 7.91136 5.12542 7.66914 5.94868 7.67363C6.84366 7.67811 7.73864 7.67363 8.63363 7.67512C8.72925 7.67512 8.78901 7.64672 8.84729 7.57046C9.80353 6.29808 10.9256 5.19017 12.1672 4.19888C13.2355 3.34515 14.3741 2.60355 15.6022 2.001C16.5973 1.51209 17.6283 1.11587 18.707 0.849732C19.5079 0.652371 20.3222 0.529768 21.1499 0.531264C21.9358 0.532759 22.7217 0.531264 23.5091 0.531264C23.5839 0.531264 23.6586 0.531264 23.7377 0.531264C23.7452 0.562662 23.7527 0.579109 23.7527 0.59705C23.7527 1.51657 23.7646 2.43609 23.7467 3.35561C23.7273 4.32298 23.545 5.26643 23.2656 6.19043C22.653 8.21039 21.6624 10.033 20.3954 11.712C19.345 13.104 18.1213 14.3256 16.7602 15.4096C16.6586 15.4903 16.6123 15.571 16.6123 15.7056C16.6152 16.6535 16.6212 17.6015 16.6018 18.5494C16.5794 19.5796 16.1341 20.4228 15.402 21.1315C14.7536 21.7595 13.9736 22.1856 13.1803 22.5878C12.5572 22.9033 11.9297 23.2098 11.2827 23.5313C11.2767 23.4595 11.2678 23.4027 11.2678 23.3444C11.2678 21.7431 11.2678 20.1402 11.2693 18.5389C11.2693 18.4298 11.2364 18.352 11.1602 18.2773C9.43448 16.5593 7.71175 14.8384 5.98454 13.122C5.93225 13.0696 5.83662 13.0368 5.76191 13.0368C4.16171 13.0323 2.56 13.0338 0.959793 13.0323C0.90451 13.0323 0.850722 13.0323 0.756592 13.0323ZM18.3948 7.66316C18.3813 6.65991 17.5834 5.86897 16.6003 5.88393C15.6142 5.89888 14.8163 6.69879 14.8328 7.65868C14.8492 8.68884 15.6336 9.47529 16.6332 9.46184C17.6163 9.44987 18.4082 8.641 18.3948 7.66316Z" fill="#9D16B8"/>
<path d="M8.54398 18.1457C8.03299 18.6241 7.59222 19.1774 6.99009 19.5541C6.51944 19.8487 6.02339 20.0924 5.49148 20.2509C4.95359 20.4124 4.40973 20.5544 3.86587 20.6934C3.65819 20.7458 3.44004 20.7637 3.20248 20.7996C3.21742 20.7024 3.22638 20.6291 3.24132 20.5589C3.50429 19.2955 3.83449 18.056 4.51731 16.9406C4.7728 16.5234 5.13139 16.1975 5.47056 15.8566C5.60354 15.7235 5.72755 15.5815 5.85156 15.4469C6.76149 16.359 7.64601 17.2471 8.54398 18.1472V18.1457Z" fill="#9D16B8"/>
</svg>
