<svg width="11" height="14" viewBox="0 0 11 14" fill="none" xmlns="http://www.w3.org/2000/svg">
  <path
    d="M7.211 13.4327L9.87767 10.7661C9.93983 10.7039 9.98913 10.6301 10.0228 10.5489C10.0564 10.4677 10.0737 10.3806 10.0737 10.2927C10.0737 10.1152 10.0032 9.94494 9.87767 9.8194C9.75213 9.69387 9.58187 9.62334 9.40434 9.62334C9.2268 9.62334 9.05654 9.69387 8.931 9.8194L7.40434 11.3527L7.40434 3.62607C7.40434 3.44926 7.3341 3.27969 7.20907 3.15467C7.08405 3.02964 6.91448 2.9594 6.73767 2.9594C6.56086 2.9594 6.39129 3.02964 6.26626 3.15466C6.14124 3.27969 6.071 3.44926 6.071 3.62607L6.071 12.9594C6.07166 13.091 6.11126 13.2195 6.18482 13.3286C6.25837 13.4378 6.36259 13.5227 6.48434 13.5727C6.60574 13.6238 6.73955 13.6377 6.86888 13.6128C6.9982 13.5879 7.11725 13.5252 7.211 13.4327V13.4327ZM4.73767 10.2927L4.73767 0.959403C4.73701 0.827786 4.69741 0.699308 4.62386 0.590161C4.5503 0.481015 4.44608 0.396083 4.32434 0.346069C4.20293 0.295016 4.06912 0.281068 3.93979 0.305984C3.81047 0.3309 3.69142 0.393564 3.59767 0.486069L0.931003 3.15274C0.868518 3.21471 0.81892 3.28845 0.785074 3.36968C0.751229 3.45092 0.733804 3.53806 0.733804 3.62607C0.733804 3.71408 0.751229 3.80121 0.785074 3.88245C0.81892 3.96369 0.868518 4.03743 0.931003 4.0994C0.992978 4.16189 1.06671 4.21148 1.14795 4.24533C1.22919 4.27918 1.31633 4.2966 1.40434 4.2966C1.49234 4.2966 1.57948 4.27918 1.66072 4.24533C1.74196 4.21148 1.81569 4.16189 1.87767 4.0994L3.40434 2.56607L3.40434 10.2927C3.40434 10.4695 3.47457 10.6391 3.5996 10.7641C3.72462 10.8892 3.89419 10.9594 4.071 10.9594C4.24781 10.9594 4.41738 10.8892 4.54241 10.7641C4.66743 10.6391 4.73767 10.4695 4.73767 10.2927Z"
    fill="black" />
</svg>
