<svg width="17" height="15" viewBox="0 0 17 15" fill="none" xmlns="http://www.w3.org/2000/svg">
<path fill-rule="evenodd" clip-rule="evenodd" d="M15.1942 0.191638C15.4002 0.104963 15.6256 0.07507 15.847 0.105069C16.0684 0.135067 16.2777 0.223861 16.4532 0.362209C16.6286 0.500556 16.7638 0.683399 16.8446 0.891706C16.9254 1.10001 16.9488 1.32617 16.9126 1.54664L15.0226 13.0108C14.8392 14.1166 13.6259 14.7508 12.6117 14.2C11.7634 13.7391 10.5034 13.0291 9.37008 12.2883C8.80342 11.9175 7.06758 10.73 7.28092 9.88497C7.46425 9.16247 10.3809 6.44747 12.0476 4.8333C12.7017 4.19914 12.4034 3.8333 11.6309 4.41664C9.71175 5.86497 6.63258 8.06747 5.61425 8.68747C4.71592 9.23414 4.24758 9.32747 3.68758 9.23414C2.66592 9.06414 1.71842 8.80081 0.945082 8.47997C-0.0999176 8.04664 -0.0490843 6.60997 0.944249 6.19164L15.1942 0.191638Z" fill="#7992B2"/>
</svg>
