<svg width="21" height="21" viewBox="0 0 21 21" fill="none" xmlns="http://www.w3.org/2000/svg">
  <path
    fill-rule="evenodd"
    clip-rule="evenodd"
    d="M16.7367 3.90258C16.9427 3.8159 17.1681 3.78601 17.3895 3.81601C17.6109 3.846 17.8202 3.9348 17.9956 4.07315C18.1711 4.21149 18.3062 4.39434 18.387 4.60264C18.4678 4.81095 18.4913 5.03711 18.4551 5.25758L16.5651 16.7217C16.3817 17.8276 15.1684 18.4617 14.1542 17.9109C13.3059 17.4501 12.0459 16.7401 10.9126 15.9992C10.3459 15.6284 8.61006 14.4409 8.8234 13.5959C9.00673 12.8734 11.9234 10.1584 13.5901 8.54424C14.2442 7.91008 13.9459 7.54424 13.1734 8.12758C11.2542 9.57591 8.17506 11.7784 7.15673 12.3984C6.2584 12.9451 5.79006 13.0384 5.23006 12.9451C4.2084 12.7751 3.2609 12.5117 2.48756 12.1909C1.44256 11.7576 1.4934 10.3209 2.48673 9.90258L16.7367 3.90258Z"
    fill="#7992B2" />
</svg>
