<svg width="14" height="14" viewBox="0 0 14 14" fill="none" xmlns="http://www.w3.org/2000/svg">
  <path
    d="M12.75 0.254883C13.0265 0.254978 13.25 0.478379 13.25 0.754883V12.2549C13.25 12.5314 13.0265 12.7548 12.75 12.7549H1.25C0.973455 12.7549 0.750028 12.5314 0.75 12.2549V0.754883C0.75 0.47832 0.973437 0.254883 1.25 0.254883H12.75ZM1.875 1.37988V11.6299H12.125V1.37988H1.875ZM4.9375 8.12988C5.10302 8.12993 5.26177 8.19556 5.37891 8.3125C5.49612 8.42971 5.5625 8.58912 5.5625 8.75488C5.56249 8.92059 5.49606 9.0791 5.37891 9.19629C5.26174 9.31346 5.1032 9.37984 4.9375 9.37988C4.77174 9.37988 4.61233 9.3135 4.49512 9.19629C4.37815 9.07913 4.31251 8.92045 4.3125 8.75488C4.3125 8.58912 4.37791 8.42971 4.49512 8.3125C4.61232 8.19533 4.77177 8.12988 4.9375 8.12988ZM9.5625 8.25488C9.63117 8.25498 9.6875 8.31119 9.6875 8.37988V9.12988C9.68747 9.19855 9.63115 9.25479 9.5625 9.25488H6.6875C6.61877 9.25488 6.56253 9.19861 6.5625 9.12988V8.37988C6.5625 8.31113 6.61875 8.25488 6.6875 8.25488H9.5625ZM4.9375 5.87988C5.10302 5.87993 5.26177 5.94556 5.37891 6.0625C5.49612 6.17971 5.5625 6.33912 5.5625 6.50488C5.56249 6.67059 5.49606 6.8291 5.37891 6.94629C5.26174 7.06346 5.1032 7.12984 4.9375 7.12988C4.77174 7.12988 4.61233 7.0635 4.49512 6.94629C4.37815 6.82913 4.31251 6.67045 4.3125 6.50488C4.3125 6.33912 4.37791 6.17971 4.49512 6.0625C4.61232 5.94533 4.77177 5.87988 4.9375 5.87988ZM9.5625 6.00488C9.63117 6.00498 9.6875 6.06119 9.6875 6.12988V6.87988C9.68747 6.94855 9.63115 7.00479 9.5625 7.00488H6.6875C6.61877 7.00488 6.56253 6.94861 6.5625 6.87988V6.12988C6.5625 6.06113 6.61875 6.00488 6.6875 6.00488H9.5625ZM4.9375 3.62988C5.10302 3.62993 5.26177 3.69556 5.37891 3.8125C5.49612 3.92971 5.5625 4.08912 5.5625 4.25488C5.56249 4.42059 5.49607 4.5791 5.37891 4.69629C5.26174 4.81346 5.1032 4.87984 4.9375 4.87988C4.77174 4.87988 4.61233 4.8135 4.49512 4.69629C4.37815 4.57913 4.31251 4.42045 4.3125 4.25488C4.3125 4.08912 4.37791 3.92971 4.49512 3.8125C4.61232 3.69533 4.77177 3.62988 4.9375 3.62988ZM9.5625 3.75488C9.63117 3.75498 9.6875 3.81119 9.6875 3.87988V4.62988C9.68747 4.69855 9.63115 4.75479 9.5625 4.75488H6.6875C6.61877 4.75488 6.56253 4.69861 6.5625 4.62988V3.87988C6.5625 3.81113 6.61875 3.75488 6.6875 3.75488H9.5625Z" />
</svg>
