<svg viewBox="0 0 53 59" fill="none" xmlns="http://www.w3.org/2000/svg">
  <path
    style="mix-blend-mode: multiply"
    opacity="0.4"
    d="M52.0932 32.0383C52.0932 46.4383 40.3932 58.0383 25.9932 58.0383C11.5932 58.0383 -0.00683594 46.4383 -0.00683594 32.0383V28.0383H52.0932V32.0383Z"
    fill="url(#paint0_radial_5494_8116)" />
  <path
    d="M52.0932 29.8383C52.0932 44.1383 40.3932 55.8383 25.9932 55.8383C11.5932 55.8383 -0.00683594 44.1383 -0.00683594 29.8383V25.8383H52.0932V29.8383Z"
    fill="url(#paint1_linear_5494_8116)" />
  <path
    d="M25.9932 53.6383C40.2932 53.6383 51.8932 42.1383 52.0932 27.8383V27.2383C52.0932 27.1716 52.0932 27.0717 52.0932 26.9383H-0.00683594C-0.00683594 27.1383 -0.00683594 27.3383 -0.00683594 27.5383C-0.00683594 41.9383 11.5932 53.6383 25.9932 53.6383Z"
    fill="var(--stop-color-1)" />
  <path d="M0.893066 36.6383C2.09307 41.0383 4.39304 45.0383 7.49304 48.1383V32.6383H0.893066V36.6383Z" fill="url(#paint2_linear_5494_8116)" />
  <path d="M51.1932 36.6383C49.9932 41.0383 47.5932 45.0383 44.4932 48.1383V32.6383H51.1932V36.6383Z" fill="url(#paint3_linear_5494_8116)" />
  <path d="M0.893066 34.3383C2.09307 38.8383 4.39304 42.7383 7.49304 45.9383V33.8383H0.893066V34.3383Z" fill="white" />
  <path d="M51.1932 34.3383C49.9932 38.8383 47.5932 42.7383 44.4932 45.9383V33.8383H51.1932V34.3383Z" fill="white" />
  <path
    d="M19.3931 54.9383C21.5264 55.5383 23.7264 55.8383 25.993 55.8383C28.3264 55.8383 30.5597 55.5383 32.6931 54.9383V50.9383H19.3931V54.9383Z"
    fill="url(#paint4_linear_5494_8116)" />
  <path
    d="M19.3931 52.7383C21.5264 53.3383 23.7264 53.6383 25.993 53.6383C28.3264 53.6383 30.5597 53.3383 32.6931 52.7383V52.1383H19.3931V52.7383Z"
    fill="white" />
  <path
    d="M52.0932 26.9383C52.0932 29.3383 51.7932 31.6383 51.1932 33.8383C49.6932 38.1383 47.4932 42.0383 44.4932 45.3383C41.2932 48.5383 37.1932 50.9383 32.6932 52.1383C30.3932 52.5383 28.2932 52.9383 25.9932 52.9383C23.6932 52.9383 21.5932 52.6383 19.3932 52.1383C14.7932 50.9383 10.7932 48.6383 7.5932 45.3383C4.6932 42.0383 2.29319 38.1383 0.893188 33.8383C0.293188 31.6383 -0.00683594 29.3383 -0.00683594 26.9383C-0.00683594 12.6383 11.5932 0.938324 25.9932 0.938324C40.3932 0.938324 52.0932 12.6383 52.0932 26.9383Z"
    fill="url(#paint5_linear_5494_8116)" />
  <path
    d="M43.6932 26.9383C43.6932 36.7383 35.7932 44.7383 25.9932 44.7383C16.1932 44.7383 8.29321 36.7383 8.29321 26.9383C8.29321 17.2383 16.1932 9.23831 25.9932 9.23831C35.7932 9.23831 43.6932 17.2383 43.6932 26.9383Z"
    fill="var(--stop-color-1)" />
  <path
    d="M25.993 0.938324C23.7264 0.938324 21.5264 1.20498 19.3931 1.73831L19.993 4.93832C20.093 5.53832 20.9931 6.43832 21.8931 6.43832H30.0931C31.0931 6.43832 31.8931 5.53832 32.0931 4.93832L32.6931 1.73831C30.5597 1.20498 28.3264 0.938324 25.993 0.938324Z"
    fill="white" />
  <path
    d="M3.49304 13.9383C2.29304 15.9383 1.4264 18.005 0.893066 20.1383L3.89307 21.1383C4.49307 21.3383 5.69305 21.1383 6.19305 20.2383L10.2931 13.1383C10.7931 12.3383 10.3931 11.1383 9.89307 10.7383L7.49304 8.63834C5.95971 10.1717 4.62638 11.9383 3.49304 13.9383Z"
    fill="white" />
  <path
    d="M3.49304 40.0383C4.62638 42.0383 5.95971 43.805 7.49304 45.3383L9.89307 43.2383C10.3931 42.8383 10.7931 41.6383 10.2931 40.8383L6.19305 33.6383C5.69305 32.8383 4.49307 32.5383 3.89307 32.7383L0.893066 33.8383C1.4264 35.9716 2.29304 38.0383 3.49304 40.0383Z"
    fill="white" />
  <path
    d="M25.993 53.0383C28.3264 53.0383 30.5597 52.7383 32.6931 52.1383L32.0931 49.0383C31.8931 48.4383 31.0931 47.5383 30.0931 47.5383H21.8931C20.9931 47.5383 20.093 48.4383 19.993 49.0383L19.3931 52.1383C21.5264 52.7383 23.7264 53.0383 25.993 53.0383Z"
    fill="white" />
  <path
    d="M48.5932 40.0383C49.7265 38.0383 50.5932 35.9716 51.1932 33.8383L48.1932 32.7383C47.4932 32.5383 46.2932 32.8383 45.7932 33.6383L41.6932 40.8383C41.2932 41.6383 41.5932 42.8383 42.0932 43.2383L44.4932 45.3383C46.0265 43.805 47.3932 42.0383 48.5932 40.0383Z"
    fill="white" />
  <path
    d="M48.5932 13.9383C47.3932 11.9383 46.0265 10.1717 44.4932 8.63834L42.0932 10.7383C41.5932 11.1383 41.2932 12.3383 41.6932 13.1383L45.7932 20.2383C46.2932 21.1383 47.4932 21.3383 48.1932 21.1383L51.1932 20.1383C50.5932 18.005 49.7265 15.9383 48.5932 13.9383Z"
    fill="white" />
  <path
    d="M25.993 44.7383C35.093 44.7383 42.6931 37.8383 43.5931 28.9383C43.5931 19.2383 35.693 11.4383 25.993 11.4383C16.293 11.4383 8.49307 19.2383 8.39307 28.9383C9.39307 37.8383 16.893 44.7383 25.993 44.7383Z"
    fill="var(--stop-color-1)" />
  <path
    d="M25.993 11.4383C35.393 11.4383 43.0931 18.7383 43.5931 28.0383C43.5931 27.705 43.5931 27.3383 43.5931 26.9383C43.5931 17.2383 35.693 9.33829 25.993 9.33829C16.293 9.33829 8.39307 17.2383 8.39307 26.9383C8.39307 27.3383 8.39307 27.705 8.39307 28.0383C8.99307 18.7383 16.593 11.4383 25.993 11.4383Z"
    fill="var(--stop-color-2)" />
  <defs>
    <radialGradient
      id="paint0_radial_5494_8116"
      cx="0"
      cy="0"
      r="1"
      gradientUnits="userSpaceOnUse"
      gradientTransform="translate(26.0102 43.0423) scale(21.268 21.268)">
      <stop stop-color="" />
      <stop offset="1" stop-color="" />
    </radialGradient>
    <linearGradient id="paint1_linear_5494_8116" x1="34.6792" y1="2.16929" x2="34.6792" y2="47.1373" gradientUnits="userSpaceOnUse">
      <stop stop-color="var(--stop-color-1)" />
      <stop offset="1" stop-color="var(--stop-color-2)" />
    </linearGradient>
    <linearGradient id="paint2_linear_5494_8116" x1="-9.64089" y1="55.0013" x2="-15.5956" y2="45.4508" gradientUnits="userSpaceOnUse">
      <stop stop-color="white" />
      <stop offset="1" stop-color="#B8C4D9" />
    </linearGradient>
    <linearGradient id="paint3_linear_5494_8116" x1="61.6562" y1="54.9993" x2="67.6117" y2="45.4476" gradientUnits="userSpaceOnUse">
      <stop stop-color="white" />
      <stop offset="1" stop-color="#B8C4D9" />
    </linearGradient>
    <linearGradient id="paint4_linear_5494_8116" x1="25.0061" y1="60.5203" x2="25.103" y2="52.4873" gradientUnits="userSpaceOnUse">
      <stop stop-color="white" />
      <stop offset="1" stop-color="#B8C4D9" />
    </linearGradient>
    <linearGradient id="paint5_linear_5494_8116" x1="12.5772" y1="-41.1417" x2="97.7274" y2="49.8902" gradientUnits="userSpaceOnUse">
      <stop stop-color="var(--stop-color-1)" />
      <stop offset="1" stop-color="var(--stop-color-2)" />
    </linearGradient>
  </defs>
</svg>
