<svg viewBox="0 0 20 15" xmlns="http://www.w3.org/2000/svg">
<path d="M14.3043 5.05492L18.6484 2.01325C18.7109 1.96947 18.7842 1.94367 18.8603 1.93867C18.9364 1.93368 19.0125 1.94967 19.0801 1.98492C19.1478 2.02016 19.2045 2.0733 19.244 2.13855C19.2835 2.20379 19.3044 2.27864 19.3043 2.35492V12.4216C19.3044 12.4979 19.2835 12.5727 19.244 12.638C19.2045 12.7032 19.1478 12.7563 19.0801 12.7916C19.0125 12.8268 18.9364 12.8428 18.8603 12.8378C18.7842 12.8328 18.7109 12.807 18.6484 12.7633L14.3043 9.72159V13.2216C14.3043 13.4426 14.2165 13.6546 14.0602 13.8108C13.9039 13.9671 13.692 14.0549 13.4709 14.0549H1.80428C1.58327 14.0549 1.37131 13.9671 1.21502 13.8108C1.05874 13.6546 0.970947 13.4426 0.970947 13.2216V1.55492C0.970947 1.33391 1.05874 1.12195 1.21502 0.965666C1.37131 0.809386 1.58327 0.721588 1.80428 0.721588H13.4709C13.692 0.721588 13.9039 0.809386 14.0602 0.965666C14.2165 1.12195 14.3043 1.33391 14.3043 1.55492V5.05492ZM4.30428 4.05492V5.72159H5.97095V4.05492H4.30428Z" />
</svg>
