<svg viewBox="0 0 21 21" fill="none" xmlns="http://www.w3.org/2000/svg">
  <path
    d="M17.9053 6.30427C18.0116 5.95119 17.9053 5.69226 17.4026 5.69226H15.7374C15.3137 5.69226 15.1201 5.91626 15.0138 6.16228C15.0138 6.16228 14.1671 8.22686 12.9674 9.56554C12.5802 9.95507 12.4032 10.0781 12.1921 10.0781C12.0866 10.0781 11.9332 9.95507 11.9332 9.60199V6.30427C11.9332 5.88057 11.811 5.69226 11.4579 5.69226H8.84128C8.57704 5.69226 8.41758 5.88816 8.41758 6.07496C8.41758 6.47588 9.01744 6.56851 9.07895 7.69838V10.1495C9.07895 10.6863 8.98251 10.7842 8.7699 10.7842C8.20573 10.7842 6.83288 8.71207 6.01814 6.33996C5.85944 5.87905 5.69922 5.69302 5.27401 5.69302H3.60958C3.13349 5.69302 3.03857 5.91702 3.03857 6.16304C3.03857 6.60496 3.60275 8.7918 5.66657 11.684C7.04246 13.659 8.97948 14.7297 10.7441 14.7297C11.8019 14.7297 11.9325 14.492 11.9325 14.082V12.5891C11.9325 12.1138 12.0335 12.0181 12.3683 12.0181C12.6143 12.0181 13.038 12.1427 14.0259 13.0941C15.1542 14.2224 15.341 14.7289 15.9751 14.7289H17.6395C18.1148 14.7289 18.3525 14.4912 18.2158 14.022C18.0662 13.555 17.5271 12.8754 16.8118 12.0713C16.4231 11.6127 15.8422 11.1191 15.6653 10.8723C15.4185 10.5542 15.4899 10.4137 15.6653 10.1312C15.666 10.132 17.6942 7.27544 17.9053 6.30427Z"
    fill="#7992B2" />
</svg>
