<svg viewBox="0 0 30 32" fill="none" xmlns="http://www.w3.org/2000/svg">
<path d="M7.1009 11.14C7.24691 10.263 7.80738 9.72574 8.55626 9.72574C9.30513 9.72574 9.85148 10.2446 10.0163 11.1216H19.9684C20.0155 10.6578 20.1803 10.2262 20.6136 9.99205C20.8632 9.8543 21.1694 9.7441 21.452 9.7441C22.1962 9.73492 22.6342 10.1895 22.8885 11.14C23.0015 11.14 23.1193 11.14 23.2417 11.14C24.2214 11.14 25.1964 11.14 26.176 11.14C26.8778 11.14 27.0709 11.2823 27.1745 11.9481C27.4807 13.9363 27.768 15.9245 28.0694 17.9127C28.3661 19.878 28.6817 21.8432 28.9831 23.8084C29.2799 25.7645 29.5719 27.7205 29.8686 29.6766C29.9063 29.9108 29.9392 30.145 29.9816 30.3791C30.0805 30.9347 29.7744 31.3204 29.1998 31.3388C28.6581 31.3572 28.1118 31.3388 27.5654 31.3388C27.4336 31.3388 27.3017 31.3388 27.1463 31.3388V31.9954H25.0127V31.3618H5.00028V32H2.86669C2.85727 31.7888 2.84785 31.5867 2.83372 31.3434C2.37686 31.3434 1.93884 31.3434 1.50082 31.3434C1.18997 31.3434 0.874402 31.348 0.572968 31.3021C0.205595 31.247 -0.0299003 30.9761 0.00306904 30.6179C0.0784275 29.8878 0.196175 29.1623 0.299793 28.4369C0.554128 26.7379 0.808463 25.039 1.06751 23.3401C1.32184 21.6733 1.58089 20.0065 1.83522 18.3397C2.06601 16.8107 2.3015 15.2863 2.53229 13.7572C2.6312 13.1144 2.71127 12.4716 2.81959 11.8333C2.90908 11.3145 3.14458 11.1354 3.68151 11.1354C4.81188 11.1354 5.94697 11.1354 7.1009 11.1354V11.14ZM14.5002 18.0918C16.6667 18.0918 18.8333 18.0918 20.9951 18.101C21.1694 18.101 21.3625 18.1653 21.5085 18.2525C21.9748 18.5418 22.5494 18.4821 22.9309 18.0826C23.2888 17.7061 23.2936 17.1183 22.945 16.7189C22.6012 16.3286 22.003 16.223 21.565 16.5306C21.3389 16.6913 21.1129 16.7189 20.8538 16.7143C17.5569 16.7143 14.2552 16.7143 10.9583 16.7143C9.94568 16.7143 8.93776 16.7143 7.92513 16.7143C7.59544 16.7143 7.33639 16.8245 7.1951 17.1229C6.96902 17.6051 7.33639 18.0918 7.93455 18.0918C10.1247 18.0918 12.3101 18.0918 14.5002 18.0918ZM21.419 21.2049C21.419 21.756 21.4143 22.307 21.419 22.8625C21.4237 23.3447 21.6969 23.6523 22.1114 23.6615C22.5306 23.6753 22.8461 23.3447 22.8461 22.8671C22.8508 21.7743 22.8508 20.6815 22.8461 19.5887C22.8461 19.0974 22.5541 18.7943 22.1161 18.8035C21.6922 18.8127 21.4237 19.1065 21.419 19.5841C21.4143 20.1259 21.419 20.6677 21.419 21.2095V21.2049Z" fill="black"/>
<path d="M7.84506 7.21408C7.77442 5.64373 8.22186 4.08256 9.30985 2.74178C10.8971 0.781134 12.9836 -0.164753 15.5646 0.0235058C18.8521 0.262273 21.5462 2.6775 22.0407 5.8779C22.1679 6.70441 22.1208 7.56305 22.1302 8.40333C22.1302 8.76607 21.7864 9.05535 21.4284 9.05994C21.0375 9.05994 20.722 8.77526 20.7078 8.35741C20.6843 7.72835 20.7078 7.09929 20.6701 6.47482C20.5194 4.10551 18.6402 2.00711 16.257 1.5204C12.9647 0.850009 9.91271 2.8428 9.36636 6.07075C9.2392 6.82379 9.30043 7.60438 9.27217 8.37119C9.26275 8.68802 9.0508 8.94974 8.73995 9.03698C8.46677 9.11504 8.11353 8.98647 7.96752 8.72475C7.89687 8.60077 7.86861 8.44006 7.85919 8.29313C7.84506 7.9809 7.85448 7.66407 7.85448 7.21408H7.84506Z" fill="black"/>
</svg>
