<svg viewBox="0 0 32 31" fill="none" xmlns="http://www.w3.org/2000/svg">
<path d="M13.1393 13.9831C15.0429 15.6538 17.3817 15.3664 18.9102 13.9546C19.4441 14.4 19.9716 14.8642 20.5214 15.2938C22.4853 16.8255 24.6049 18.0604 27.0836 18.5594C27.4681 18.6384 27.6715 18.8121 27.8558 19.1374C29.003 21.1461 30.1692 23.1421 31.3323 25.1413C31.3641 25.195 31.4149 25.2456 31.4213 25.3024C31.4594 25.5582 31.5833 25.8677 31.4817 26.0541C31.3959 26.2088 31.0304 26.3067 30.808 26.2783C29.7053 26.1488 28.6089 25.9656 27.5094 25.8046C26.9501 25.7225 26.3972 25.5772 25.8379 25.8519C25.3707 26.0825 25.0434 26.4173 24.8559 26.9005C24.4174 28.0343 23.9757 29.165 23.5308 30.2957C23.4132 30.5926 23.3179 30.9652 22.9461 30.9842C22.5615 31.0063 22.4535 30.6305 22.3232 30.3399C20.4642 26.1678 18.6052 21.9925 16.7462 17.8204C16.6699 17.653 16.6 17.4793 16.5078 17.3214C16.2218 16.8382 15.8341 16.835 15.5418 17.3088C15.4719 17.4225 15.4147 17.5488 15.3606 17.672C13.4984 21.8567 11.6362 26.0414 9.77087 30.2262C9.68189 30.4252 9.58338 30.6305 9.44991 30.801C9.23699 31.0695 8.97959 31.0663 8.77303 30.7915C8.65546 30.6368 8.57601 30.4536 8.50292 30.2704C8.06438 29.165 7.6322 28.0533 7.19684 26.9447C6.81868 25.9814 6.00199 25.5488 4.98191 25.7225C3.79023 25.9246 2.5922 26.0951 1.39416 26.2752C1.26069 26.2941 1.12087 26.2941 0.987403 26.2878C0.561577 26.2625 0.367731 25.9941 0.494843 25.5867C0.545688 25.4256 0.628311 25.2708 0.714112 25.1224C1.90261 23.0663 3.09111 21.0134 4.29232 18.9637C4.3813 18.8153 4.55926 18.651 4.72133 18.6194C6.87588 18.2089 8.78892 17.2645 10.5494 16.0044C11.4392 15.3664 12.2782 14.6589 13.1425 13.9831H13.1393Z" fill="black"/>
<path d="M13.222 5.3925C12.8152 6.02415 12.437 6.60844 12.043 7.21799C11.8968 7.08218 11.7125 6.90532 11.525 6.73161C10.1172 5.42092 8.71583 4.09759 7.05066 3.09957C6.27845 2.6353 5.43316 2.37316 4.5243 2.33526C3.88556 2.31 3.3072 2.45212 2.96082 3.04588C2.60173 3.66175 2.68435 4.27762 3.05298 4.85558C3.64405 5.78412 4.53384 6.33367 5.56663 6.63371C7.53369 7.2022 9.51346 7.72332 11.4869 8.26339C11.6172 8.29813 11.7475 8.33287 11.9095 8.37709C11.9095 8.89189 11.9095 9.40669 11.9095 9.92149C11.9032 10.9164 11.8492 11.9175 12.3449 12.8398C12.3798 12.9029 12.3354 13.0608 12.2718 13.1177C10.327 14.8737 8.23598 16.4055 5.68738 17.1951C4.68955 17.5046 3.66312 17.7256 2.6208 17.5835C0.981048 17.3656 -0.150252 15.8086 0.0626609 14.1757C0.145284 13.5567 0.332775 12.985 0.679156 12.4608C1.03825 11.9175 1.3751 11.3585 1.70877 10.7995C2.36657 9.6941 2.39835 8.56974 1.78503 7.43591C1.36556 6.65581 0.917491 5.89151 0.510732 5.10509C-0.0898739 3.94599 -0.216986 2.73953 0.434465 1.57727C1.04143 0.493976 2.00748 -0.055568 3.28814 0.0044397C5.38549 0.105505 7.25722 0.85718 9.00819 1.94995C10.524 2.89428 11.8873 4.03443 13.1393 5.3009C13.1807 5.34512 13.222 5.38934 13.2251 5.3925H13.222Z" fill="black"/>
<path d="M18.8022 5.38302C20.9123 3.30802 23.213 1.42252 26.1429 0.493976C26.9469 0.238154 27.8018 0.102347 28.647 0.0265478C30.5156 -0.144 31.971 1.23302 31.9996 3.09641C32.0092 3.86704 31.8312 4.5745 31.4499 5.24406C31.0368 5.97046 30.6332 6.70319 30.2391 7.44223C29.6322 8.57606 29.6639 9.70357 30.3281 10.8058C30.7222 11.4596 31.1575 12.0881 31.5261 12.7576C32.3397 14.2389 32.1903 16.2412 30.3821 17.2803C29.5623 17.7509 28.6884 17.6625 27.8145 17.5361C25.6949 17.2298 23.8486 16.2791 22.1421 15.0506C21.3413 14.4758 20.604 13.8157 19.8318 13.203C19.6602 13.0672 19.6189 12.9471 19.7269 12.7387C20.0384 12.1355 20.1337 11.4849 20.1273 10.8121C20.121 10.0131 20.1273 9.21719 20.1273 8.38024C21.1506 8.12126 22.1707 7.89071 23.1749 7.6033C24.5127 7.21799 25.8538 6.83584 27.1598 6.35893C28.0719 6.02415 28.8028 5.39881 29.1714 4.4608C29.5813 3.4154 28.9553 2.43317 27.8304 2.36685C26.5211 2.29105 25.3517 2.74268 24.357 3.52594C22.9429 4.63766 21.6018 5.84097 20.2322 7.00954C20.1401 7.0885 20.0511 7.17062 19.9907 7.22747C19.603 6.62739 19.2217 6.03679 18.8086 5.39881L18.8022 5.38302Z" fill="black"/>
<path d="M19.0151 9.94044C18.9674 10.4521 18.9865 11.1532 18.8244 11.8133C18.494 13.1493 17.3054 13.9862 15.9453 13.9578C14.6107 13.9294 13.4381 13.004 13.1584 11.6807C13.0535 11.1817 13.0567 10.6542 13.0663 10.1394C13.079 9.34353 13.0345 8.52553 13.2061 7.75806C13.5048 6.41263 14.7251 5.54725 16.0566 5.57884C17.4357 5.61358 18.602 6.50737 18.8816 7.85281C19.0119 8.47184 18.9738 9.12245 19.0215 9.94044H19.0151Z" fill="black"/>
</svg>
