<svg viewBox="0 0 32 32" fill="none" xmlns="http://www.w3.org/2000/svg">
<path d="M12.975 6.03251C17.4861 4.61108 22.9238 6.51526 25.3421 11.2255C28.0239 16.4478 25.8978 22.4236 21.0869 25.0949C20.5796 24.513 20.0352 23.9417 19.5518 23.323C18.214 21.6121 17.5414 19.6381 17.2548 17.5106C17.0253 15.8098 16.8248 14.1014 16.4903 12.4199C16.078 10.3473 15.1067 8.51425 13.7275 6.90009C13.4855 6.6163 13.239 6.33626 12.975 6.03251Z" fill="black"/>
<path d="M10.8879 6.91256C12.7782 8.70136 14.1154 10.8051 14.5573 13.3948C14.7603 14.5854 14.9093 15.7854 15.0602 16.9842C15.345 19.2439 15.812 21.4512 17.0787 23.3978C17.6539 24.2816 18.3222 25.1049 18.9382 25.9419C15.3248 27.2268 9.51501 25.9999 6.76536 20.8992C3.91073 15.6027 6.16376 9.45979 10.8879 6.91256Z" fill="black"/>
<path d="M0 23.8862C1.71554 23.4465 3.49332 22.9912 5.28493 22.5321C6.33915 24.2093 7.70706 25.5677 9.40877 26.6211C8.94861 28.3894 8.48971 30.1532 8.00943 32C7.46378 31.2777 6.58369 31.2784 5.94059 30.8318C5.37734 30.4401 4.9505 29.943 4.74808 29.2825C4.41553 28.1997 3.7014 27.5068 2.62141 27.1563C1.63005 26.8351 1.00959 26.1496 0.653151 25.1835C0.488449 24.7369 0.225051 24.3265 0 23.8862Z" fill="black"/>
<path d="M22.6019 5.33645C23.0646 3.56325 23.5229 1.80938 23.995 0C24.4432 0.499591 25.0259 0.661755 25.5785 0.892527C26.407 1.23806 26.9829 1.84493 27.2601 2.70315C27.6065 3.77656 28.3118 4.47511 29.3949 4.82376C30.3492 5.13125 30.9615 5.79114 31.323 6.71547C31.5046 7.17951 31.7617 7.61424 32 8.092C30.3052 8.52859 28.5356 8.98452 26.7446 9.44607C25.6841 7.75831 24.3068 6.38304 22.6019 5.33645Z" fill="black"/>
</svg>
