<svg viewBox="0 0 39 36" fill="none" xmlns="http://www.w3.org/2000/svg">
<path d="M38.6158 14.3218C38.5959 13.8204 38.6059 13.3191 38.5761 12.8277C38.5165 11.6579 38.437 10.498 38.3874 9.32831C38.3477 8.4633 38.3675 7.58847 38.3377 6.72346C38.2881 5.30799 38.2285 3.90236 38.1689 2.48689C38.1391 1.7595 38.1192 1.02228 38.0894 0.294889C38.0894 0.196593 38.01 0.0982962 37.9603 0C37.871 0.0491481 37.7816 0.0884669 37.7021 0.137615C37.3942 0.334207 37.1062 0.540629 36.7984 0.717562C35.9443 1.2287 35.0803 1.73001 34.2163 2.24115C33.3324 2.76212 32.4684 3.30275 31.5845 3.82372C30.7006 4.34469 29.8266 4.87549 28.9229 5.36697C28.4164 5.6422 27.9993 6.04522 27.324 6.04522C22.1299 6.01573 16.9359 6.02556 11.7518 6.04522C11.1857 6.04522 10.6593 5.99607 10.1926 5.6422C10.0833 5.55373 9.96415 5.4751 9.84497 5.40629C8.64329 4.6789 7.43168 3.96134 6.23 3.23394C5.06805 2.52621 3.90609 1.80865 2.74413 1.10092C2.21778 0.77654 1.70135 0.452163 1.175 0.127785C1.08562 0.0688075 0.976373 0.0491483 0.877061 0.00982984C0.847267 0.108126 0.79761 0.196593 0.787679 0.294889C0.757885 0.697903 0.738023 1.10092 0.718161 1.50393C0.668505 2.62451 0.608916 3.74509 0.569191 4.86566C0.489742 6.92988 0.410292 8.98427 0.340773 11.0485C0.301048 12.1101 0.281186 13.1815 0.251392 14.2431C0.231529 15 0.251392 15.747 0.221598 16.5039C0.15208 18.4404 0.052767 20.367 0.00311078 22.3034C-0.0167517 22.8637 0.0626981 23.4338 0.122286 24.0039C0.261323 25.1835 0.569192 26.3041 1.04589 27.3952C1.4928 28.4076 2.04895 29.3611 2.78386 30.1868C3.74719 31.2877 4.84956 32.2412 6.15055 32.9292C7.08409 33.4207 8.03749 33.8827 9.01075 34.2955C9.61656 34.5511 10.272 34.7182 10.9175 34.8755C12.0298 35.1409 13.1421 35.4358 14.2743 35.5734C15.8236 35.77 17.3927 35.8486 18.5447 35.9469C20.2132 35.8879 21.4645 35.8683 22.7159 35.7995C23.4408 35.7602 24.1559 35.6324 24.8709 35.5439C24.9206 35.5439 24.9603 35.5242 25.01 35.5144C26.3408 35.2785 27.6815 35.0524 28.9626 34.5904C29.7373 34.3054 30.5516 34.0891 31.2865 33.7058C32.2896 33.1946 33.2728 32.6245 34.1666 31.9463C34.9412 31.3663 35.6364 30.6586 36.272 29.9312C37.1261 28.9581 37.7617 27.8277 38.1192 26.5793C38.3675 25.6946 38.6654 24.8001 38.7648 23.8958C38.8839 22.8145 38.8641 21.7235 38.8343 20.6324C38.7846 18.5288 38.6853 16.4253 38.6059 14.3218H38.6158ZM9.87477 19.6887C8.47446 19.6494 7.52106 18.5092 7.60051 17.3394C7.61044 15.8748 8.80219 15 9.99394 15.059C11.2552 15.118 12.3377 16.0813 12.2583 17.595C12.2086 18.637 11.1658 19.728 9.87477 19.6887ZM26.4897 25.4587C26.2514 26.4613 25.6456 27.2575 24.8213 27.867C24.0665 28.4273 23.2025 28.6533 22.259 28.6239C21.256 28.5944 20.4118 28.2012 19.6471 27.5819C19.5677 27.5131 19.3492 27.5229 19.2598 27.5819C18.7434 27.9653 18.2071 28.2995 17.5715 28.4666C16.5784 28.732 15.6448 28.6533 14.7113 28.211C13.9863 27.8768 13.4103 27.3853 12.9733 26.7464C12.4768 26.0092 12.2483 25.1737 12.2881 24.289C12.3079 23.8761 12.9038 23.306 13.3706 23.2372C13.7877 23.1684 14.4531 23.5419 14.602 23.945C14.6815 24.171 14.7709 24.4069 14.7808 24.6429C14.8205 25.5767 15.5952 26.2353 16.628 26.1566C17.214 26.1075 17.6311 25.8322 17.9588 25.3604C18.1078 25.1442 18.1276 24.9574 17.8893 24.8001C17.5318 24.5544 17.3927 24.171 17.3629 23.7779C17.3331 23.2471 17.9489 22.6671 18.4852 22.6474C18.793 22.6474 19.091 22.6474 19.3988 22.6474V22.6278C19.7961 22.6474 20.1933 22.6474 20.5906 22.6868C21.1368 22.7457 21.3751 23.1291 21.4943 23.6107C21.5936 24.0138 21.4447 24.3775 21.1765 24.6625C20.7793 25.0655 20.7991 25.3997 21.256 25.7536C22.1001 26.4122 23.272 26.2942 23.8381 25.4292C24.0467 25.1147 24.136 24.7018 24.2056 24.3283C24.3148 23.768 24.6922 23.3159 25.2185 23.2372C25.6853 23.1684 26.4004 23.5223 26.5096 24.0039C26.6089 24.4659 26.6089 24.9869 26.5096 25.4391L26.4897 25.4587ZM28.9328 19.6691C27.6815 19.6592 26.6188 18.6075 26.6288 17.3886C26.6288 16.1206 27.7411 15.0197 29.0023 15.0295C30.1742 15.0295 31.3958 16.1992 31.3461 17.31C31.2865 18.637 30.4126 19.6789 28.9328 19.6691Z" fill="black"/>
</svg>
