<svg viewBox="0 0 29 34" fill="none" xmlns="http://www.w3.org/2000/svg">
<path d="M15.6518 9.52316C15.5143 9.49378 15.4425 9.47419 15.3692 9.46385C14.4875 9.33542 13.5962 9.25379 12.7252 9.07149C10.3023 8.56485 8.07805 7.62504 6.29595 5.808C5.31952 4.81214 4.60646 3.64377 4.17927 2.30343C4.04276 1.87407 3.92767 1.43709 3.81364 1.00119C3.70658 0.589787 3.97264 0.198517 4.41481 0.142465C5.49724 0.00533021 6.58449 -0.0714002 7.6696 0.0934885C8.54807 0.227359 9.43671 0.339461 10.2938 0.566931C11.8435 0.977793 13.2514 1.70809 14.487 2.75837C15.8804 3.94307 16.8949 5.40856 17.5988 7.10425C17.632 7.1837 17.6904 7.25227 17.783 7.39811C18.0057 6.99269 18.2187 6.65149 18.3863 6.28851C18.7824 5.43142 18.9511 4.51991 18.9553 3.57465C18.9575 3.15236 19.2359 2.84 19.6101 2.82803C20.003 2.81551 20.3092 3.1159 20.3081 3.55724C20.3065 4.4878 20.1657 5.39605 19.8568 6.27709C19.7888 6.47082 19.7685 6.68305 19.7407 6.88875C19.5426 8.35643 19.3799 9.83117 19.6625 11.3005C19.8087 12.0607 20.0843 12.7943 20.2706 13.548C20.4987 14.4682 20.7353 15.39 20.8911 16.3244C21.011 17.0449 21.0233 17.7856 21.0602 18.518C21.0742 18.7972 21.2203 18.8081 21.4296 18.8103C22.5881 18.8222 23.7492 18.7956 24.9034 18.8756C25.8503 18.9409 26.7245 19.2837 27.436 19.9688C28.1212 20.6289 28.4965 21.4632 28.7095 22.3736C28.9841 23.5463 29.0468 24.7463 28.9692 25.9424C28.8953 27.0792 28.5848 28.1637 28.0698 29.1874C27.3771 30.5652 26.4055 31.6857 25.1426 32.539C24.0757 33.2595 22.905 33.7079 21.6298 33.9017C20.5249 34.0693 19.4398 33.9882 18.3649 33.7395C17.4211 33.5213 16.5458 33.118 15.7327 32.5825C15.5903 32.4884 15.5812 32.3904 15.7102 32.2549C16.8317 31.0751 17.6261 29.6929 18.0876 28.1251C18.4564 26.8724 18.5956 25.5821 18.4623 24.2788C18.3751 23.425 18.283 22.563 18.0812 21.7325C17.8285 20.6937 17.3285 19.762 16.5469 19.0127C16.5164 18.9833 16.488 18.9507 16.4024 18.8598C16.5892 18.8299 16.7204 18.7912 16.852 18.7912C17.6898 18.7918 18.5276 18.8016 19.3654 18.8075C19.6994 18.8097 19.7375 18.7754 19.7096 18.431C19.6438 17.6272 19.6213 16.8147 19.4842 16.0235C19.344 15.2159 19.1186 14.4192 18.8761 13.635C18.4516 12.2626 18.1101 10.8815 18.162 9.42793C18.1647 9.34685 18.1411 9.26413 18.1202 9.11448C17.8917 9.3376 17.7262 9.52588 17.5351 9.68043C16.601 10.433 15.677 11.1998 14.7177 11.9181C13.5352 12.803 12.29 13.6051 11.2595 14.6842C10.2424 15.7492 9.52236 16.9731 9.34785 18.4778C9.30984 18.8037 9.32322 18.8103 9.65352 18.813C10.7054 18.8206 11.7579 18.8037 12.8087 18.8467C13.6658 18.8815 14.4768 19.1248 15.1947 19.6287C15.9511 20.1598 16.4372 20.8989 16.7118 21.7723C17.2594 23.518 17.3381 25.3095 16.9816 27.0922C16.5972 29.0116 15.6235 30.6131 14.1572 31.8974C13.1615 32.7697 12.0239 33.3765 10.7595 33.7123C9.43778 34.0633 8.09839 34.0997 6.75847 33.7852C4.23869 33.1931 2.34792 31.7369 1.07813 29.4605C0.0717125 27.6571 -0.148842 25.7029 0.085631 23.6715C0.182525 22.8307 0.325457 22.0041 0.686802 21.233C1.27673 19.9748 2.2537 19.2331 3.59523 18.9615C4.77081 18.7232 5.95495 18.7656 7.1407 18.8021C7.37249 18.8092 7.65996 18.887 7.81895 18.7771C7.95814 18.6813 7.97152 18.3716 8.00846 18.1507C8.17227 17.1766 8.48222 16.2602 8.98543 15.4113C9.60962 14.3577 10.4212 13.4685 11.373 12.7273C12.5737 11.7924 13.8162 10.913 15.0389 10.0075C15.2295 9.86655 15.412 9.71363 15.6513 9.52425L15.6518 9.52316Z" fill="black"/>
</svg>
