<svg viewBox="0 0 27 27" fill="none" xmlns="http://www.w3.org/2000/svg">
<path d="M0 20.2595C0 19.9709 0 19.6823 0 19.3899C0.026646 19.1582 0.053292 18.9266 0.0875511 18.6949C0.258847 17.4494 0.746088 16.3367 1.55689 15.3835C2.03651 14.8177 2.58085 14.3089 3.09855 13.7734C3.23178 13.6367 3.36881 13.5038 3.5325 13.3405C3.5325 14.7722 3.97406 16.0139 4.82673 17.1266C4.78105 17.1608 4.74679 17.1835 4.72015 17.2101C3.62385 18.3076 3.34978 19.6101 3.82941 21.0532C4.26336 22.3633 5.56521 23.3772 7.14874 23.3734C8.12322 23.3734 8.97589 23.0734 9.67249 22.3899C10.5594 21.5203 11.4349 20.6354 12.3143 19.7582C14.111 17.9582 15.9077 16.1506 17.7044 14.3506C19.2308 12.8203 20.7572 11.2899 22.2913 9.76709C23.2543 8.81013 23.5855 7.65949 23.3114 6.34937C22.8851 4.31772 20.742 3.12532 18.6903 3.76329C18.0774 3.95316 17.5902 4.32532 17.141 4.77342C14.5259 7.38987 11.9031 10.0025 9.28422 12.6152C9.23474 12.6646 9.18525 12.7139 9.13957 12.7671C8.77414 13.1696 8.83885 13.8038 9.28042 14.119C9.65346 14.3848 10.1445 14.3278 10.5023 13.9709C12.5503 11.9278 14.5944 9.88861 16.6423 7.84557C16.6842 7.8038 16.7261 7.76582 16.7756 7.72025C17.396 8.35063 17.7653 9.07595 17.83 9.94937C17.9099 11.0013 17.5749 11.8975 16.8479 12.6532C16.4406 13.0785 16.0219 13.4924 15.6069 13.9139C14.7505 14.7797 13.894 15.6418 13.0375 16.5114C11.9526 17.6089 10.6279 17.9848 9.12435 17.7949C8.27548 17.6848 7.53701 17.3127 6.8937 16.7506C5.94206 15.9152 5.3901 14.8823 5.33681 13.6063C5.29494 12.6418 5.50049 11.738 6.03341 10.9215C6.35697 10.4278 6.79473 10.0405 7.20584 9.62658C9.45933 7.37468 11.7128 5.12278 13.9739 2.87848C14.4802 2.37722 14.9865 1.86835 15.5422 1.42405C16.4672 0.675949 17.5445 0.239241 18.7283 0.0835443C18.9834 0.0531646 19.2422 0.0303797 19.5011 0C19.7104 0 19.9198 0 20.1291 0C20.3119 0.0189873 20.4946 0.0417722 20.6773 0.056962C21.6099 0.144304 22.4778 0.425316 23.2924 0.881013C24.1831 1.38228 24.9254 2.05063 25.5535 2.8557C26.2501 3.7519 26.7069 4.75443 26.8896 5.87848C26.9353 6.16329 26.9657 6.4481 27 6.73291V7.60253C26.9734 7.83038 26.9467 8.05443 26.9163 8.28228C26.7107 9.77468 26.056 11.0506 25.0054 12.1177C23.0754 14.0696 21.1227 15.9987 19.1813 17.9392C17.2514 19.8646 15.3291 21.7937 13.3915 23.7114C12.7596 24.338 12.1315 24.9797 11.4464 25.5494C10.529 26.3127 9.44791 26.7532 8.26026 26.9127C8.00902 26.9468 7.75779 26.9696 7.50656 27H6.87847C6.69576 26.981 6.51304 26.962 6.33033 26.943C5.52714 26.8671 4.76963 26.6468 4.04638 26.2899C3.02622 25.7886 2.18497 25.0671 1.48456 24.1785C0.772734 23.2785 0.308332 22.2722 0.125617 21.1367C0.079938 20.8481 0.0494854 20.5557 0.0114197 20.2671L0 20.2595Z" fill="black"/>
</svg>
