<svg viewBox="0 0 37 31" fill="none" xmlns="http://www.w3.org/2000/svg">
<path d="M37 22.6219C33.4138 28.8619 26.0459 31.1413 20.4022 29.7345C20.7155 29.5987 21.0312 29.4831 21.3262 29.3295C22.6716 28.6278 23.5136 27.5284 23.7595 26.0662C24.043 24.3824 23.53 22.9173 22.1822 21.8041C21.7736 21.4664 21.2515 21.2633 20.7919 20.981C20.6608 20.9006 20.5127 20.7779 20.4678 20.6433C19.6166 18.1281 17.1469 16.4521 14.4446 16.5575C13.5813 16.5914 12.7671 16.7886 12.0016 17.1745C11.8377 17.2573 11.726 17.2597 11.5724 17.1424C10.7291 16.4979 9.7668 16.1358 8.70132 16.0608C8.4518 16.0429 8.38988 15.9595 8.38198 15.7219C8.27817 12.6659 9.00852 9.8195 10.6216 7.20364C12.0119 4.94871 13.897 3.18277 16.2416 1.89747C18.4704 0.674709 20.866 0.040994 23.4232 0.0016846C23.4839 0.000493408 23.5446 -0.000697785 23.6053 0.000493408C23.6247 0.000493408 23.6436 0.00883176 23.6891 0.0201481C21.039 5.03626 20.8575 10.0959 23.7547 15.031C26.6591 19.978 31.2197 22.3526 37 22.6219Z" fill="black"/>
<path d="M11.5262 18.8279C12.208 18.5194 12.803 18.159 13.4502 17.9738C16.0698 17.224 18.8686 18.9333 19.3774 21.5659C19.4369 21.875 19.5668 21.9864 19.8691 22.037C21.24 22.2675 22.3753 23.5236 22.5295 24.8869C22.7742 27.0501 20.9225 28.8542 18.7533 28.5951C18.5462 28.5701 18.4503 28.632 18.3495 28.8012C16.9259 31.2002 13.9607 31.7184 11.7788 29.9477C11.6319 29.8286 11.528 29.8327 11.3787 29.9185C9.55917 30.9679 7.20115 30.5504 5.89161 28.9167C5.76169 28.7547 5.63481 28.7779 5.46846 28.828C3.59855 29.3914 1.56716 28.5409 0.567854 26.8863C-0.882535 24.4843 0.58546 21.193 3.38364 20.6874C3.86325 20.601 4.04903 20.4152 4.22266 19.9697C4.94148 18.1263 6.81078 17.0489 8.81485 17.3193C9.88216 17.4634 10.757 17.9577 11.4613 18.7517C11.5007 18.7963 11.5384 18.8422 11.5262 18.8279Z" fill="black"/>
</svg>
