<svg viewBox="0 0 30 36" fill="none" xmlns="http://www.w3.org/2000/svg">
<path d="M15.6032 22.0622C15.5884 22.1262 15.5638 22.1877 15.5614 22.2516C15.4876 23.5209 15.4163 24.7878 15.3425 26.0571C15.2736 27.2526 15.2564 28.448 15.3818 29.6386C15.4384 30.1798 15.5688 30.7136 15.6745 31.2498C15.7385 31.5696 15.8148 31.887 15.9008 32.1994C15.9943 32.529 16.105 32.8561 16.2108 33.1808C16.2698 33.3653 16.3387 33.5474 16.4027 33.7294C16.5109 34.0295 16.6265 34.3271 16.7224 34.6297C16.747 34.706 16.7224 34.8019 16.7003 34.8831C16.6118 35.2176 16.3682 35.4341 16.105 35.6309C16.073 35.6555 16.0238 35.6604 15.982 35.6629C15.8935 35.6702 15.8049 35.6629 15.7188 35.6702C15.1727 35.7244 15.003 35.4488 14.8456 35.0356C14.6611 34.5436 14.4938 34.0467 14.3315 33.5449C14.2404 33.2596 14.1716 32.9668 14.1002 32.6766C14.0018 32.2879 13.9084 31.8968 13.8149 31.5057C13.7977 31.4393 13.7829 31.3704 13.7731 31.3015C13.6525 30.4479 13.5443 29.5968 13.4976 28.7334C13.4533 27.9143 13.4582 27.1 13.5123 26.2834C13.564 25.4667 13.5812 24.6475 13.6279 23.8309C13.6501 23.4225 13.7017 23.0167 13.7337 22.6083C13.7411 22.5124 13.7189 22.4164 13.7091 22.3033C13.6624 22.3254 13.6353 22.3303 13.6304 22.3426C13.5492 22.6059 13.4754 22.8715 13.3918 23.1323C13.3081 23.4004 13.2171 23.6685 13.1261 23.9342C13.0499 24.1531 12.9662 24.3671 12.89 24.5861C12.703 25.11 12.43 25.5872 12.0831 26.0152C11.8076 26.3547 11.5124 26.6892 11.1804 26.9697C10.9196 27.1911 10.5998 27.3583 10.285 27.501C9.58882 27.8208 8.84348 27.8995 8.09322 27.7962C7.60616 27.7298 7.13633 27.5822 6.69109 27.3436C6.09334 27.0238 5.67516 26.5171 5.22255 26.0398C4.71827 25.5085 4.214 24.9772 3.71219 24.4434C3.17347 23.8727 2.63476 23.2995 2.10097 22.7239C1.79103 22.3894 1.47124 22.0598 1.19328 21.7006C0.937452 21.3685 0.7751 20.9799 0.706224 20.5568C0.671786 20.3526 0.607829 20.1534 0.58569 19.9467C0.514354 19.3145 0.647187 18.7143 0.858736 18.1215C1.09242 17.4598 1.48354 16.9113 2.0198 16.4734C2.45519 16.1192 2.92503 15.8166 3.48342 15.6518C4.31485 15.4083 5.14875 15.3984 6.00233 15.4599C6.67879 15.5091 7.36018 15.5263 8.0391 15.5239C8.80658 15.5214 9.57652 15.514 10.3391 15.4427C10.8212 15.3984 11.2984 15.2508 11.7658 15.1155C11.997 15.0491 12.2061 14.9065 12.4226 14.7908C12.4521 14.7736 12.4669 14.7244 12.4865 14.6925C12.4398 14.6679 12.3931 14.626 12.3439 14.6236C11.9355 14.5965 11.5272 14.5522 11.1189 14.5596C9.51502 14.5867 7.91119 14.6383 6.30489 14.6629C5.65794 14.6728 5.00608 14.6605 4.36159 14.6088C3.94587 14.5768 3.54492 14.4563 3.14396 14.3112C2.24364 13.984 1.56226 13.3813 0.954671 12.6803C0.666866 12.3482 0.472536 11.9546 0.317564 11.5389C0.0272995 10.7616 -0.0710953 9.95966 0.0518983 9.13806C0.21425 8.06556 0.725903 7.18 1.50814 6.42974C2.21658 5.75082 2.88813 5.03008 3.57443 4.32901C4.551 3.33277 5.51773 2.32668 6.50414 1.34027C6.89034 0.95161 7.33066 0.621987 7.84231 0.412898C8.12274 0.297284 8.43514 0.255466 8.72048 0.144772C9.19032 -0.0372584 9.67245 0.011939 10.1521 0.0242384C10.3243 0.0291581 10.4941 0.127553 10.6687 0.157071C11.1681 0.238247 11.6256 0.417818 12.0684 0.666265C12.7055 1.02295 13.1901 1.52968 13.6009 2.11021C13.8518 2.46443 14.0633 2.85063 14.2503 3.24175C14.361 3.47544 14.4126 3.74356 14.452 4.00431C14.5922 4.91692 14.5553 5.83199 14.5184 6.75199C14.4692 7.95732 14.4717 9.16758 14.5012 10.3754C14.511 10.8009 14.6709 11.2216 14.7644 11.6447C14.7964 11.7849 14.8357 11.9251 14.8726 12.0628C14.8898 12.0628 14.9095 12.0628 14.9267 12.0628C14.9489 12.0235 14.9809 11.9841 14.9907 11.9423C15.0424 11.7431 15.0989 11.5414 15.1358 11.3396C15.404 9.92768 15.6032 8.51817 15.4581 7.06685C15.3695 6.1813 15.3671 5.28098 15.3892 4.39051C15.399 3.99201 15.554 3.59597 15.6647 3.20485C15.8689 2.49149 16.292 1.90358 16.779 1.35995C17.1111 0.988508 17.5219 0.705623 17.9844 0.518672C18.3312 0.37846 18.7026 0.294824 19.0396 0.139852C19.416 -0.0347985 19.8022 0.031618 20.1859 0.00947918C20.2622 0.00455944 20.3385 0.0143989 20.4123 0.00701931C20.9042 -0.0397182 21.3421 0.157071 21.7922 0.297284C22.5007 0.518673 23.0443 0.986048 23.5609 1.49278C24.198 2.11759 24.8376 2.73502 25.4771 3.3549C26.2348 4.09041 26.9924 4.82591 27.7476 5.56387C28.1781 5.98451 28.611 6.40268 29.0193 6.843C29.1866 7.02257 29.3145 7.24888 29.4301 7.47027C29.9393 8.42716 30.114 9.448 29.927 10.5156C29.7376 11.5955 29.221 12.4958 28.3945 13.2214C28.0379 13.5339 27.6689 13.8192 27.2458 14.0332C27.0416 14.1365 26.8227 14.2226 26.6013 14.2866C25.3172 14.6556 24.0037 14.5941 22.6876 14.567C21.7258 14.5473 20.764 14.5891 19.8022 14.6334C19.3151 14.6556 18.8306 14.7441 18.346 14.8056C18.2968 14.813 18.25 14.8474 18.2008 14.8671C18.1984 14.8843 18.1959 14.904 18.1934 14.9212C18.3533 14.9926 18.5059 15.086 18.6707 15.1328C19.015 15.2262 19.3668 15.2853 19.7136 15.3738C20.4 15.5485 21.0986 15.5337 21.7972 15.5362C22.9484 15.5386 24.1021 15.5116 25.2533 15.5337C25.7133 15.5411 26.1634 15.6739 26.6062 15.8314C27.3589 16.0995 27.969 16.5644 28.5003 17.14C28.7758 17.4377 28.9874 17.7796 29.162 18.1559C29.4375 18.7488 29.5728 19.3711 29.5925 20.0082C29.6073 20.5076 29.5212 21.0069 29.3194 21.4768C29.2161 21.7178 29.1423 21.981 28.9947 22.1901C28.7217 22.5763 28.4191 22.9478 28.0993 23.2971C27.6074 23.8333 27.0883 24.3499 26.5791 24.8714C26.006 25.4568 25.4255 26.0374 24.8572 26.6277C24.3308 27.1738 23.8315 27.747 23.2928 28.2808C22.7614 28.8072 22.1194 29.1516 21.3691 29.2721C21.2511 29.2918 21.1355 29.3287 21.0174 29.3361C20.7566 29.3533 20.4885 29.3853 20.2327 29.3557C19.7924 29.3041 19.3447 29.2598 18.9289 29.0778C18.3927 28.8416 17.9056 28.5415 17.4875 28.1209C17.089 27.7199 16.8405 27.2304 16.6462 26.7188C16.5257 26.4014 16.4715 26.0546 16.4125 25.7151C16.3018 25.078 16.2108 24.436 16.105 23.7989C16.0337 23.3733 15.9648 22.9453 15.8713 22.5222C15.8344 22.3599 15.7262 22.2123 15.6499 22.0573C15.6327 22.0573 15.618 22.0622 15.6007 22.0647L15.6032 22.0622Z" fill="black"/>
</svg>
