<svg viewBox="0 0 36 23" fill="none" xmlns="http://www.w3.org/2000/svg">
<path d="M0 4.29132C0.123418 3.9973 0.323064 3.79765 0.646128 3.72868C0.874814 3.68149 1.07809 3.75046 1.25596 3.87025C1.80771 4.24413 2.3522 4.62165 2.88943 5.01005C4.86774 6.42935 6.84605 7.85229 8.828 9.27159C9.12928 9.48576 9.44872 9.67814 9.75726 9.88142C9.88068 9.96491 9.9678 9.96854 10.0767 9.82697C11.2637 8.25521 12.4579 6.69434 13.6485 5.12621C14.8609 3.5363 16.0806 1.95002 17.2821 0.352846C17.5471 0.000742334 17.8738 -0.0464468 18.2477 0.0334117C18.3711 0.0624512 18.4945 0.178609 18.578 0.283877C19.3512 1.27485 20.1171 2.27308 20.883 3.27131C22.5709 5.46742 24.2552 7.66716 25.9395 9.86327C25.9794 9.91409 26.023 9.96128 26.0774 10.0302C26.4477 9.77252 26.8107 9.52569 27.1664 9.26796C29.3407 7.71798 31.5115 6.16074 33.6858 4.61076C34.0306 4.36392 34.3972 4.15339 34.7421 3.90655C35.3047 3.50363 35.8057 3.80128 36.0053 4.28769V4.48371C36.0053 4.48371 35.9763 4.51275 35.9726 4.5309C35.4899 5.86671 35.0143 7.20979 34.5207 8.54198C33.6096 10.9958 32.6876 13.446 31.7655 15.8962C31.4534 16.7311 31.123 17.5587 30.7964 18.3864C30.6875 18.6622 30.4914 18.8328 30.1684 18.8111C30.005 18.8002 29.8417 18.8328 29.682 18.8328C27.5766 18.851 25.4712 18.88 23.3659 18.88C18.3058 18.88 13.2456 18.8691 8.1855 18.8546C7.38328 18.8546 6.58107 18.8219 5.78248 18.8038C5.53928 18.7965 5.35052 18.7239 5.25614 18.4626C5.09643 18.0306 4.90767 17.6095 4.74432 17.1776C3.9893 15.192 3.23427 13.2064 2.48287 11.2172C1.82949 9.48576 1.1761 7.75428 0.52634 6.01917C0.341214 5.52187 0.174237 5.02094 0 4.52001C0 4.44015 0 4.36392 0 4.28406V4.29132ZM18.0371 15.1666C18.1388 15.0396 18.215 14.9488 18.2803 14.8544C18.578 14.4442 18.8829 14.0377 19.1697 13.6166C19.6125 12.9669 20.0445 12.3062 20.4801 11.6492C20.5454 11.5512 20.5999 11.4604 20.5128 11.3334C19.696 10.15 18.8865 8.95942 18.0625 7.75791C18.0045 7.82688 17.9573 7.87407 17.921 7.92489C17.1732 8.99209 16.4363 10.0665 15.6777 11.1265C15.5071 11.3624 15.5143 11.5476 15.6704 11.7726C16.244 12.6039 16.803 13.4424 17.3729 14.2736C17.5761 14.5677 17.7976 14.8472 18.0335 15.163L18.0371 15.1666Z" fill="black"/>
<path d="M5.71351 23C5.70263 22.9492 5.68085 22.902 5.68085 22.8512C5.68085 22.0344 5.68085 21.2213 5.68085 20.4046C5.68085 20.3792 5.68811 20.3538 5.69174 20.3138H30.2519V22.9964H5.71351V23Z" fill="black"/>
<path d="M29.8562 5.32585C29.7945 5.40571 29.74 5.51098 29.6529 5.57269C29.3444 5.79775 29.0286 6.0228 28.7019 6.22245C28.0412 6.63626 27.3697 7.03555 26.7018 7.43848C26.6473 7.47114 26.5856 7.50018 26.5276 7.52196C26.2843 7.61271 26.19 7.59093 26.052 7.36951C25.6673 6.75242 25.2861 6.1317 24.9122 5.50372C24.6944 5.13347 24.5057 4.74869 24.2843 4.38207C24.1499 4.16065 24.1717 3.98641 24.346 3.80854C24.8832 3.24953 25.4095 2.67963 25.954 2.12788C26.3824 1.69229 26.8325 1.27485 27.2753 0.853777C27.337 0.795698 27.4024 0.741249 27.4713 0.69406C27.6782 0.556122 27.8198 0.570642 27.9469 0.788438C28.1066 1.05705 28.2554 1.33293 28.3752 1.61969C28.8471 2.75223 29.3044 3.89203 29.7691 5.03183C29.8018 5.11532 29.8235 5.20244 29.8598 5.32948L29.8562 5.32585Z" fill="black"/>
<path d="M6.13459 5.344C6.23986 5.0645 6.31608 4.82129 6.41772 4.59261C6.96221 3.34028 7.5067 2.09158 8.05845 0.846517C8.18187 0.570642 8.38152 0.527083 8.59205 0.733989C9.6411 1.77578 10.6829 2.82483 11.7319 3.86662C11.859 3.99367 11.8917 4.12072 11.7937 4.28043C11.1911 5.28955 10.5994 6.30957 9.98595 7.31143C9.79356 7.62723 9.69192 7.64538 9.37612 7.45663C8.37426 6.85043 7.38328 6.22608 6.39231 5.60173C6.29067 5.53639 6.21808 5.42749 6.13822 5.34037L6.13459 5.344Z" fill="black"/>
</svg>
