<svg viewBox="0 0 34 28" fill="none" xmlns="http://www.w3.org/2000/svg">
<path d="M0 6.70066C0.412641 6.19508 0.833453 5.68949 1.24201 5.17986C1.84667 4.42755 2.44316 3.67119 3.05191 2.9027C4.99664 3.69141 6.9291 4.47608 8.86974 5.26075C8.44484 6.97166 8.02403 8.65425 7.59913 10.3652C7.1007 10.1629 6.62269 9.96877 6.14468 9.77058C4.26124 8.994 2.37371 8.21742 0.490267 7.44084C0.326845 7.37613 0.163422 7.31546 0 7.25074C0 7.06873 0 6.88267 0 6.70066Z" fill="black"/>
<path d="M16.9632 28C14.3444 22.7217 11.746 17.4757 9.12305 12.1893C14.4016 12.2298 19.6229 12.2702 24.8851 12.3106C22.2459 17.5404 19.6148 22.75 16.9632 28Z" fill="black"/>
<path d="M4.43691 1.99669C5.2908 1.66907 6.07522 1.36976 6.86373 1.07045C7.70944 0.750924 8.55107 0.427349 9.39678 0.111863C9.51117 0.0673718 9.63783 0.039059 9.76039 0.039059C11.7787 0.0228802 13.7928 0.0107462 15.8111 0.00265677C18.6179 -0.00138792 21.4247 -0.00138792 24.2355 0.00670146C24.4602 0.00670146 24.7013 0.0633271 24.9096 0.15231C26.3396 0.759014 27.7654 1.38594 29.1872 2.00478C29.2076 2.01287 29.2199 2.03309 29.2608 2.0614C28.6683 2.29195 28.0964 2.51845 27.5244 2.74091C26.3314 3.20201 25.1384 3.6631 23.9414 4.12015C23.7902 4.17678 23.6186 4.21318 23.4552 4.21318C19.1245 4.21722 14.7979 4.20913 10.4672 4.22531C9.78491 4.22531 9.15165 4.10802 8.53473 3.8532C7.4684 3.41233 6.40615 2.95933 5.35208 2.49823C5.04975 2.36476 4.77193 2.18274 4.43691 1.99264V1.99669Z" fill="black"/>
<path d="M24.8647 10.4986H8.82889C8.98822 9.92428 9.14756 9.35802 9.3069 8.79581C9.58063 7.82104 9.86253 6.85032 10.124 5.87555C10.173 5.68949 10.2547 5.64904 10.4345 5.64904C14.7734 5.65309 19.1122 5.64904 23.4511 5.64904C23.5777 5.64904 23.6799 5.63286 23.7248 5.81488C24.1007 7.34377 24.4888 8.86862 24.8729 10.3975C24.877 10.4218 24.8729 10.446 24.8688 10.4946L24.8647 10.4986Z" fill="black"/>
<path d="M0.318673 8.69874C0.706801 8.87266 1.09084 9.04658 1.47897 9.22455C3.16222 10.0052 4.84547 10.7898 6.5328 11.5705C6.82696 11.708 7.13338 11.8253 7.41528 11.9871C7.54194 12.0599 7.64408 12.1974 7.70945 12.3309C8.64095 14.2076 9.56429 16.0924 10.4958 17.9692C11.1699 19.3363 11.8522 20.6953 12.5263 22.0624C13.3067 23.6358 14.0829 25.2092 14.8633 26.7825C14.8714 26.8028 14.8755 26.827 14.8919 26.912C9.99327 20.8247 5.13963 14.782 0.281903 8.73919C0.29416 8.72705 0.306417 8.71087 0.318673 8.69874Z" fill="black"/>
<path d="M18.912 26.5884C19.2021 26.0302 19.4922 25.468 19.7863 24.9139C20.2194 24.0969 20.6566 23.2839 21.0896 22.4709C22.2745 20.2382 23.4633 18.0056 24.6441 15.7689C25.2038 14.7091 25.7758 13.6575 26.3151 12.5857C26.5071 12.2014 26.7726 11.9547 27.1649 11.7727C28.7296 11.0487 30.2781 10.2923 31.8347 9.55217C32.3617 9.3014 32.8887 9.05467 33.4362 8.83626C28.6071 14.7658 23.7739 20.6953 18.9447 26.6248C18.9325 26.6127 18.9202 26.6005 18.912 26.5884Z" fill="black"/>
<path d="M34 7.07682C31.471 8.18506 28.9707 9.28118 26.4172 10.4016C25.7472 8.72301 25.2733 7.00806 24.8279 5.2648C25.4694 5.03425 26.0781 4.81584 26.695 4.59742C28.0351 4.12015 29.3751 3.64692 30.7111 3.1656C30.8459 3.11707 30.9113 3.12111 31.0012 3.23841C31.994 4.51653 32.995 5.79061 34 7.08086V7.07682Z" fill="black"/>
</svg>
