<svg viewBox="0 0 30 33" fill="none" xmlns="http://www.w3.org/2000/svg">
<path d="M4.1973 29.0785C3.43027 29.4919 2.64623 29.5985 1.83953 29.3276C0.899947 29.0122 0.292871 28.3633 0.0245986 27.4249C-0.016335 27.2811 -0.0075185 27.084 0.0611239 26.9545C1.5574 24.1339 3.18404 21.392 5.19041 18.8857C6.60545 17.1174 8.16093 15.488 10.076 14.2268C10.4148 14.0037 10.77 13.8047 11.1434 13.5791C10.901 12.9296 10.6554 12.2751 10.4116 11.6206C9.92548 10.3154 9.43805 9.01016 8.95819 7.70243C8.92229 7.60513 8.90529 7.47435 8.94055 7.38263C9.75419 5.29522 9.96452 3.11857 9.94752 0.906598C9.94563 0.639474 9.94752 0.372351 9.94752 0.0258971C10.3461 0.0258971 10.719 0.0209389 11.0911 0.0314751C11.1453 0.0327146 11.2089 0.10089 11.2479 0.152951C11.2901 0.209351 11.3122 0.281864 11.3361 0.350039C11.9986 2.24779 13.3563 3.61935 14.9288 4.90477C15.3149 4.51369 15.6864 4.07737 16.1197 3.7117C17.0221 2.94938 17.6821 2.02777 18.1456 0.959278C18.1947 0.84586 18.281 0.743597 18.3099 0.626459C18.446 0.0853956 18.7904 -0.081324 19.3232 0.0351937C19.4743 0.0680418 19.6355 0.0550265 19.8308 0.0643232C19.8308 0.198195 19.832 0.318431 19.8308 0.438667C19.8157 1.94782 19.8484 3.45697 20.157 4.94009C20.3207 5.72473 20.5846 6.48891 20.7886 7.26549C20.8245 7.40122 20.8251 7.56918 20.7773 7.69995C20.3012 9.00892 19.8144 10.3135 19.3244 11.6175C19.121 12.158 18.9063 12.6947 18.6871 13.2296C18.6242 13.3833 18.6059 13.4874 18.7854 13.581C20.9568 14.717 22.6684 16.378 24.2245 18.2132C25.8423 20.1215 27.2145 22.1953 28.4608 24.3514C28.9728 25.2377 29.4634 26.137 29.9376 27.0431C30.015 27.1913 30.0201 27.4323 29.9546 27.5879C29.2814 29.1752 27.2794 29.7404 25.8077 28.7742C25.7227 28.7184 25.6396 28.6595 25.5161 28.5758C25.5671 30.0075 24.9834 31.0463 23.6313 31.5297C22.4593 31.948 21.4272 31.6034 20.5512 30.7165C20.077 32.0156 19.1771 32.7915 17.7652 32.7742C16.3816 32.7575 15.5145 31.9679 15.0579 30.6905C14.2827 32.4742 13.4363 33.0915 11.9369 32.9893C10.6944 32.9043 9.83668 32.0522 9.39775 30.4426C8.60049 31.4627 7.56771 31.9276 6.30192 31.5941C5.04998 31.2644 4.37678 30.3781 4.19667 29.0803L4.1973 29.0785ZM14.8407 7.18554C15.0497 6.7926 15.2298 6.45358 15.4062 6.12138C15.2248 5.93545 15.0592 5.76625 14.8608 5.56359C14.6801 5.77121 14.5107 5.96458 14.3199 6.18336C14.4691 6.47094 14.6385 6.79694 14.84 7.18554H14.8407ZM13.3393 4.09162C13.3154 4.11207 13.2921 4.13191 13.2682 4.15236C13.5301 4.65376 13.7921 5.15516 14.0717 5.6894C14.238 5.5233 14.3677 5.39315 14.4546 5.30638C14.0761 4.89423 13.7077 4.49324 13.3387 4.09162H13.3393ZM15.6448 5.66895C15.9244 5.14152 16.1877 4.64508 16.4503 4.14926C16.4308 4.1381 16.4112 4.12695 16.3917 4.11579C16.0189 4.50005 15.6455 4.88431 15.2638 5.27787C15.3665 5.38323 15.495 5.51463 15.6448 5.66833V5.66895Z" fill="black"/>
</svg>
