<svg viewBox="0 0 29 28" fill="none" xmlns="http://www.w3.org/2000/svg">
<path d="M0 21.7324C0 21.42 0 21.1075 0 20.7951C0.0087178 20.7533 0.0201886 20.7115 0.0261534 20.6693C0.0949782 20.1724 0.142238 19.6715 0.234922 19.1792C0.671271 16.8563 1.47698 14.6655 2.68692 12.626C3.2054 11.7518 3.8005 10.9339 4.60071 10.2831C4.72872 10.1791 4.85949 10.0787 4.98154 9.98291C4.17491 8.85618 4.25612 7.76443 5.06734 6.69084C4.93795 6.59547 4.82094 6.51555 4.71083 6.42699C3.56742 5.50872 3.10537 4.31206 3.36507 2.89333C3.58623 1.68531 4.31439 0.808369 5.45367 0.304728C5.78541 0.157587 6.15706 0.0990025 6.5099 0C6.71684 0 6.92423 0 7.13116 0C7.33947 0.0326981 7.55145 0.0508637 7.75563 0.100365C10.3623 0.734798 11.3405 3.74983 9.7699 5.7812C9.50562 6.12272 9.17113 6.38702 8.81829 6.62999C8.73661 6.6863 8.72056 6.7408 8.76873 6.82118C8.83435 6.92972 8.90088 7.03826 8.96511 7.14771C9.31474 7.7449 9.41247 8.37661 9.23766 9.04828C9.14497 9.40524 8.95318 9.70906 8.71964 10.0079C8.88115 10.1646 9.03623 10.3208 9.19728 10.4707C10.1425 11.3512 10.8592 12.3939 11.4258 13.5434C12.4853 15.6919 13.2084 17.9403 13.4708 20.3237C13.5658 21.1865 13.5539 22.0435 13.3488 22.8964C12.7422 25.4159 10.6027 27.4269 8.01992 27.886C7.76435 27.9314 7.50649 27.9623 7.24954 28H6.33234C6.16303 27.9777 5.99326 27.9582 5.82441 27.9328C4.46673 27.7262 3.26688 27.1821 2.2446 26.2715C1.11037 25.2611 0.39276 24.0136 0.117461 22.5235C0.0688248 22.2615 0.0385419 21.9963 0 21.7324ZM6.90037 5.6386C8.15895 5.73488 9.01237 4.51551 9.00274 3.60587C8.99035 2.44191 8.06901 1.50411 6.89991 1.50366C5.7643 1.50275 4.85719 2.43147 4.81223 3.56137C4.77323 4.54185 5.7409 5.7485 6.90037 5.6386ZM6.87605 9.31895C7.39729 9.31714 7.78592 8.92839 7.78637 8.40886C7.78637 7.88342 7.37388 7.46969 6.85678 7.47741C6.34427 7.48468 5.93315 7.90794 5.93315 8.42793C5.93315 8.91295 6.36491 9.32077 6.87605 9.31895Z" fill="black"/>
<path d="M28.9995 20.766C28.9995 21.0685 28.9995 21.3714 28.9995 21.6738C28.9904 21.7211 28.9807 21.7678 28.9725 21.8151C28.9018 22.222 28.8729 22.6411 28.755 23.034C27.9594 25.6934 26.1764 27.307 23.438 27.8851C23.1751 27.9405 22.9044 27.9623 22.6374 28H21.8386C21.5949 27.9687 21.3494 27.9482 21.1081 27.9042C19.365 27.5863 17.9389 26.7425 16.8469 25.3583C16.2128 24.5544 15.7751 23.6502 15.5893 22.6493C15.5012 22.1747 15.5163 21.6788 15.5099 21.1924C15.5048 20.7837 15.5039 20.3695 15.5604 19.9658C15.642 19.3836 15.7558 18.8041 15.8939 18.2319C16.3927 16.1637 17.1543 14.1978 18.2849 12.3821C18.8337 11.5006 19.4705 10.6923 20.3203 10.0674C20.3547 10.0419 20.3717 9.95838 20.3588 9.91206C20.3373 9.8344 20.2891 9.76265 20.246 9.6918C20.0569 9.38344 19.9266 9.05601 19.9005 8.69269C19.8546 8.05735 19.9468 7.45789 20.3593 6.93971C20.4217 6.86115 20.4822 6.78076 20.5469 6.6972C20.4488 6.62726 20.3643 6.56868 20.2813 6.50737C19.036 5.58865 18.5405 4.34249 18.8217 2.85927C19.0668 1.56587 19.9078 0.689384 21.1466 0.211175C21.4224 0.105815 21.7257 0.0690293 22.0161 0C22.2332 0 22.4502 0 22.6672 0C22.6998 0.00862866 22.7324 0.0217987 22.7659 0.0254318C23.4725 0.107631 24.1066 0.35105 24.6521 0.81609C25.4225 1.47232 25.9006 2.28296 25.9754 3.29342C26.0676 4.53413 25.6019 5.5505 24.6457 6.34979C24.4851 6.48421 24.313 6.60501 24.1465 6.73217C25.004 7.84073 24.9751 8.94792 24.1713 10.0592C24.1896 10.076 24.2025 10.091 24.2181 10.1019C24.8526 10.5578 25.3541 11.1382 25.8024 11.7672C26.648 12.9534 27.2762 14.2509 27.785 15.607C28.3333 17.0675 28.7275 18.5671 28.9174 20.1166C28.944 20.3328 28.9725 20.5489 29 20.7656L28.9995 20.766ZM24.4484 3.57227C24.5484 2.62448 23.6129 1.4923 22.3121 1.50048C21.1687 1.50729 20.2969 2.44146 20.2689 3.63948C20.2473 4.55457 21.1503 5.69128 22.413 5.66358C23.4018 5.64224 24.5411 4.72124 24.4484 3.57227ZM21.4178 8.37707C21.4224 8.95473 21.7794 9.32486 22.33 9.32213C22.8544 9.31986 23.2458 8.9125 23.2385 8.37616C23.2316 7.85935 22.8471 7.48741 22.324 7.49149C21.7862 7.49558 21.4137 7.8598 21.4178 8.37707Z" fill="black"/>
</svg>
