<svg viewBox="0 0 35 34" fill="none" xmlns="http://www.w3.org/2000/svg">
<path d="M0 12.5636C1.37718 11.3072 2.76305 10.0566 4.02161 8.67625C4.49321 8.15756 5.10947 7.85787 5.76913 7.64751C6.62264 7.37664 7.48482 7.30748 8.35279 7.58988C8.93144 7.77718 9.39436 8.12586 9.75891 8.6071C10.4128 9.47159 11.0782 10.3303 11.7176 11.2092C12.8373 12.7422 13.9396 14.2897 15.0507 15.8285C15.0709 15.8573 15.0912 15.8861 15.1143 15.9236C14.7903 16.1829 14.5704 16.523 14.3852 16.886C14.3331 16.9869 14.2753 16.9552 14.2 16.9321C13.3031 16.6325 12.4062 16.3356 11.5093 16.0388C11.463 16.0244 11.4138 16.01 11.356 15.9927C11.2923 16.18 11.2345 16.3587 11.1679 16.5547C12.1603 16.8832 13.1411 17.2088 14.1364 17.5402C14.0438 18.0156 13.9744 18.4911 14.0988 18.981C13.821 19.0703 13.5548 19.1568 13.2887 19.2403C10.7629 20.0357 8.23417 20.831 5.70837 21.6263C5.35539 21.7387 4.99953 21.7013 4.64655 21.6551C3.8133 21.5485 3.04369 21.2748 2.37246 20.7561C1.51606 20.0933 1.07339 19.2 0.943197 18.1482C0.853507 17.422 0.813001 16.6901 0.726204 15.9639C0.596008 14.8689 0.396374 13.7825 0.0636514 12.7278C0.0491851 12.6817 0.0231459 12.6385 0.00289324 12.5953C0.00289324 12.5866 0.00289324 12.5751 0.00289324 12.5665L0 12.5636Z" fill="black"/>
<path d="M20.9326 18.9752C21.0339 18.494 20.9934 18.0243 20.8834 17.5459C21.8787 17.2145 22.8624 16.8889 23.8577 16.5575C23.794 16.3673 23.7333 16.1887 23.6696 15.9898C22.6772 16.3184 21.6935 16.644 20.6983 16.9754C20.4842 16.5863 20.2701 16.206 19.9113 15.9236C20.2556 15.4395 20.5912 14.9553 20.9384 14.4828C22.3792 12.5232 23.8201 10.5666 25.2667 8.61286C25.8309 7.85211 26.6092 7.47461 27.5408 7.42274C28.6981 7.35935 29.7483 7.68497 30.68 8.37656C30.7928 8.46013 30.8998 8.55523 30.9924 8.65896C32.0108 9.79433 33.1363 10.8231 34.2531 11.8605C34.4788 12.0679 34.7045 12.2754 34.9359 12.4771C35.0025 12.5348 35.014 12.5866 34.9851 12.6702C34.6032 13.8632 34.3949 15.0937 34.256 16.3356C34.1808 17.0071 34.1605 17.69 34.0448 18.3557C33.7642 20.0011 32.7573 21.0183 31.1747 21.488C30.8593 21.5831 30.5266 21.6321 30.1997 21.6753C29.8062 21.7272 29.4272 21.6638 29.0424 21.5428C26.3748 20.6898 23.7043 19.8541 21.0339 19.0127C21.0021 19.0012 20.9702 18.9896 20.9326 18.9752Z" fill="black"/>
<path d="M19.4976 21.1393C20.0965 22.0009 20.6838 22.8481 21.2798 23.704C21.4476 23.5887 21.6039 23.4792 21.7717 23.364C21.1757 22.5052 20.5825 21.6551 19.9952 20.8051C20.1457 20.6379 20.3019 20.4881 20.435 20.3181C20.5681 20.1509 20.6751 19.9636 20.8111 19.7619C20.9384 19.8051 21.0946 19.8541 21.248 19.9118C23.849 20.8454 26.4529 21.7791 29.054 22.7127C29.5603 22.8943 30.0377 23.1219 30.4138 23.5224C30.9548 24.0959 31.2297 24.7904 31.3338 25.5569C31.4525 26.4387 31.3772 27.3032 30.9895 28.1129C30.8333 28.4414 30.6076 28.7382 30.4369 29.061C29.731 30.4067 29.0308 31.7553 28.3335 33.1039C28.2786 33.2105 28.2236 33.2537 28.0963 33.2509C26.8869 33.222 25.692 33.3604 24.5058 33.565C23.823 33.6831 23.146 33.8502 22.4574 33.9396C20.8719 34.1442 19.6191 33.5592 18.6961 32.2682C18.349 31.7841 18.0886 31.2539 17.9497 30.6689C17.9265 30.5767 17.9208 30.4816 17.9236 30.3865C17.9873 27.502 18.0509 24.6175 18.1117 21.733C18.1117 21.6177 18.1377 21.5687 18.2679 21.5601C18.6556 21.5284 19.0086 21.3843 19.35 21.2085C19.3934 21.1854 19.4397 21.1624 19.4947 21.1336L19.4976 21.1393Z" fill="black"/>
<path d="M19.0925 15.3069C18.6672 15.0476 18.2072 14.9496 17.7182 14.8948V11.7855H17.1106V11.9556C17.1106 12.8892 17.1106 13.8229 17.1106 14.7565C17.1106 14.8574 17.0933 14.9006 16.9776 14.9208C16.5899 14.9813 16.208 15.0764 15.8637 15.3011C15.8463 15.2838 15.8289 15.2666 15.8145 15.2493C14.1537 12.9353 12.4901 10.6242 10.8352 8.30741C10.5777 7.95008 10.326 7.58411 10.1929 7.15475C9.95276 6.38247 10.0367 5.6246 10.3433 4.89267C10.7455 3.93308 11.3647 3.13775 12.2847 2.62194C12.7042 2.38564 13.1672 2.23003 13.5925 2.00527C14.8279 1.35978 16.0546 0.702765 17.2813 0.0428704C17.3855 -0.0118807 17.4549 -0.0205257 17.5591 0.0543969C18.7222 0.895835 19.9981 1.53268 21.3058 2.11477C21.8093 2.33953 22.3358 2.5326 22.8103 2.80924C24.257 3.65356 24.8125 4.96759 24.7141 6.59283C24.6852 7.05101 24.5984 7.49767 24.4306 7.92703C24.3987 8.00483 24.3611 8.08264 24.309 8.1518C22.5904 10.5119 20.8719 12.869 19.1533 15.2262C19.1359 15.2493 19.1157 15.2723 19.0896 15.3069H19.0925Z" fill="black"/>
<path d="M15.2937 20.8915C14.6745 21.7301 14.0612 22.5629 13.4391 23.4072C13.6011 23.5253 13.7516 23.6377 13.9165 23.7587C13.957 23.7069 13.9917 23.6636 14.0264 23.6147C14.5819 22.8626 15.1375 22.1133 15.6872 21.3583C15.7537 21.269 15.8029 21.2517 15.9042 21.3036C16.2485 21.4851 16.6101 21.6234 17.021 21.6523C17.021 21.7099 17.021 21.7646 17.021 21.8165C16.9978 24.2515 16.9804 26.6836 16.9486 29.1157C16.9399 29.718 16.911 30.3202 16.8676 30.9196C16.8097 31.7236 16.4307 32.3748 15.8231 32.8878C14.8626 33.6975 13.74 34.0721 12.4843 33.9886C12.0561 33.9597 11.6366 33.8157 11.2113 33.7494C10.0424 33.565 8.87358 33.3921 7.70471 33.2163C7.38066 33.1673 7.05373 33.1385 6.73258 33.0895C6.68918 33.0837 6.62842 33.0318 6.61396 32.9886C6.09028 31.3864 5.3091 29.9082 4.43824 28.4731C4.13445 27.9717 3.87116 27.4559 3.74675 26.8796C3.49504 25.7327 3.78147 24.7039 4.4556 23.7674C4.80568 23.2833 5.2223 22.8626 5.72862 22.5398C5.80674 22.4879 5.89643 22.4505 5.98612 22.4217C8.74049 21.5428 11.4949 20.6667 14.2463 19.7878C14.3765 19.7475 14.4315 19.759 14.4923 19.8916C14.6687 20.2835 14.9639 20.5889 15.2879 20.8857L15.2937 20.8915Z" fill="black"/>
<path d="M17.4578 15.6786C18.9218 15.6786 20.108 16.863 20.108 18.324C20.108 19.7821 18.9189 20.9664 17.4549 20.9664C15.991 20.9664 14.8047 19.7821 14.8076 18.3211C14.8076 16.8601 15.9939 15.6786 17.4607 15.6815L17.4578 15.6786Z" fill="black"/>
</svg>
