<svg viewBox="0 0 26 39" fill="none" xmlns="http://www.w3.org/2000/svg">
<path d="M7.0417 30.6338C6.02955 31.6697 4.72038 31.9697 3.39294 32.1883C1.73736 32.4612 1.47282 33.5229 1.66023 34.7496C1.72045 35.1447 1.81382 35.5344 1.85779 35.9328C1.33548 34.6654 0.690703 33.432 0.992455 31.9779C1.21234 30.9189 1.85306 30.2828 2.91934 30.1423C3.08713 30.1199 3.2556 30.1043 3.42406 30.0927C4.71699 30.0017 5.49235 29.3799 5.88206 28.1308C6.26094 26.9143 6.03631 25.8037 5.29073 24.7963C4.93485 24.3157 4.55123 23.8541 4.15273 23.4088C3.34017 22.4998 3.01676 21.4442 3.18726 20.2453C3.23733 19.8944 3.37941 19.557 3.46939 19.2495C2.74275 19.7335 2.38214 21.0973 2.87874 22.0321C3.29957 22.8236 3.86113 23.5405 4.36247 24.2892C4.7197 24.8221 5.1473 25.3204 5.42469 25.892C6.05255 27.1866 5.75824 28.5314 4.7312 29.4424C4.06004 30.0377 2.9261 29.999 2.2996 29.3582C1.96063 29.0113 1.87471 28.4037 2.10542 27.8776C2.26374 27.9795 2.41394 28.0887 2.57564 28.1777C3.02962 28.4282 3.4633 28.3759 3.78332 28.0412C4.17168 27.636 4.26166 27.2354 3.92676 26.7955C3.34693 26.0339 2.75696 25.2675 2.07836 24.5974C0.792189 23.3273 0.242811 21.7741 0.041192 20.0247C-0.166516 18.2285 0.430222 16.6909 1.40449 15.2476C1.8199 14.6319 2.27862 14.0468 2.4613 13.2946C2.62435 12.6239 2.67442 11.9681 2.55669 11.2825C1.93425 7.65472 3.3219 3.68549 6.9206 1.55322C10.0423 -0.296642 13.3068 -0.387607 16.6633 0.718916C18.0469 1.1751 19.3838 1.76095 20.5015 2.73781C21.7457 3.82465 22.5988 5.14908 22.8904 6.8048C22.9094 6.91341 22.9818 7.04375 23.0697 7.10417C24.2551 7.91811 24.7794 9.0932 24.9696 10.476C25.1955 12.1222 24.6008 13.577 23.9148 14.9938C23.5785 15.6882 23.1313 16.3453 22.6442 16.9461C22.0427 17.6881 21.8269 18.4667 22.0068 19.4036C22.1543 20.1673 22.224 20.9466 22.3194 21.7205C22.4412 22.7109 22.0041 23.4536 21.2004 23.9491C20.5136 24.3727 19.7687 24.704 19.0407 25.059C18.373 25.3842 17.6666 25.6395 17.0252 26.0081C15.8811 26.6652 15.0774 27.604 14.8825 28.9713C14.8615 29.1165 14.7952 29.2557 14.7499 29.3982C14.7134 29.4016 14.6768 29.405 14.6403 29.4091C14.5598 29.2455 14.4549 29.0887 14.4035 28.9163C14.0963 27.8932 14.1275 26.8553 14.3602 25.8295C14.6924 24.3646 15.0571 22.9071 15.4292 21.4523C15.5151 21.117 15.6768 20.7993 15.8257 20.4836C15.9522 20.2155 16.1599 20.1197 16.4637 20.2236C17.1342 20.4537 17.8067 20.6825 18.488 20.8753C18.8716 20.9839 19.2775 21.0864 19.6483 20.7877C19.8892 20.5936 20.0076 20.3505 19.9751 20.0485C19.9304 19.6303 20.0583 19.2929 20.3851 19.0295C20.4196 19.0017 20.4703 18.9704 20.4771 18.9338C20.5671 18.4661 20.6584 17.999 20.7288 17.5286C20.7464 17.4125 20.6916 17.2849 20.6672 17.1634C20.6063 16.8606 20.6659 16.6596 21.0055 16.5422C21.5562 16.3514 21.6043 16.1933 21.337 15.6529C21.0157 15.0019 20.6679 14.3495 20.6781 13.6069C20.6862 13.036 20.7755 12.4623 20.8749 11.8982C21.0468 10.9261 21.1598 9.96823 20.6395 9.0579C20.6172 9.0192 20.5948 8.98119 20.5373 8.88207C20.3689 8.99748 20.1767 9.07758 20.0583 9.22014C19.6848 9.67158 19.3256 10.1366 18.9846 10.6138C18.2255 11.6769 17.6125 12.8133 17.2296 14.0739C17.1132 14.4568 16.9163 14.8268 16.6998 15.1662C16.1924 15.9618 15.4793 16.4689 14.5381 16.663C13.3162 16.9149 12.3014 17.5795 11.4489 18.4545C10.1844 19.7532 10.1106 21.2887 10.7987 22.8847C11.1918 23.7957 11.6789 24.666 12.1113 25.56C12.8508 27.0915 13.3643 28.6882 13.3643 30.4077C13.3643 30.8876 13.2845 31.3791 13.164 31.8455C12.8988 32.8712 12.275 33.6098 11.2689 33.9879C10.1945 34.3919 9.08699 34.5331 7.94696 34.3803C7.83126 34.3647 7.72031 34.3192 7.60664 34.2873L7.58635 34.1848C7.77849 34.0884 7.96793 33.9845 8.16346 33.897C9.68711 33.2154 10.6079 31.9989 11.1039 30.4525C11.2459 30.0085 11.2804 29.4838 11.2033 29.0228C10.9672 27.6136 10.3265 26.3502 9.61539 25.114C9.62418 25.167 9.63027 25.2206 9.64313 25.2722C9.65666 25.3265 9.67899 25.3795 9.69523 25.4331C10.0031 26.4602 10.3353 27.4805 10.6127 28.5157C10.9611 29.8171 10.6039 30.9929 9.79807 32.0166C8.69187 33.4218 7.29812 34.3749 5.47138 34.6003C4.3848 34.734 3.92879 35.5249 4.33067 36.5024C4.56071 37.0625 5.42198 37.52 6.00857 37.3937C6.37595 37.315 6.59855 37.0842 6.69936 36.7271C6.79408 36.3918 6.62426 36.1616 6.38813 35.9634C6.25079 35.848 6.10465 35.7441 5.9355 35.6138C6.28123 35.2988 6.67162 35.1786 7.09651 35.2608C7.52681 35.3443 7.75346 35.6824 7.87862 36.0754C8.26089 37.2749 7.50854 38.5994 6.29003 38.8899C4.60401 39.2925 2.99647 38.5749 2.30298 37.0007C1.92071 36.1338 1.7624 35.1759 1.83411 34.2181C1.90109 33.3329 2.42476 32.7979 3.31852 32.6031C3.80294 32.4979 4.29549 32.432 4.78059 32.3309C5.63511 32.153 6.3083 31.6846 6.83467 30.9969C6.91857 30.8876 6.97202 30.7553 7.03967 30.6338H7.0417Z" fill="black"/>
</svg>
