<svg viewBox="0 0 30 29" fill="none" xmlns="http://www.w3.org/2000/svg">
<path d="M29.9977 11.3948C29.9538 11.7295 29.9191 12.0665 29.8659 12.399C29.6347 13.8099 29.1029 15.1094 28.3954 16.3414C27.311 18.2289 25.9029 19.8537 24.3699 21.3786C22.7098 23.029 20.9179 24.5237 19.0682 25.951C17.7711 26.9528 16.4555 27.9338 15.1514 28.9264C15.0613 28.9938 14.9942 29.0403 14.8786 28.9496C13.022 27.5154 11.1399 26.1114 9.30405 24.6492C7.2948 23.0476 5.40347 21.3112 3.73642 19.3423C2.57341 17.9685 1.55607 16.4994 0.850867 14.8304C0.409249 13.7867 0.113295 12.7104 0.0346821 11.5784C0.0300578 11.518 0.0115607 11.4575 0 11.3971C0 10.9694 0 10.5417 0 10.1163C0.0115607 10.0372 0.0300578 9.95587 0.0346821 9.87684C0.0809249 9.00282 0.221965 8.14506 0.453179 7.30126C1.60462 3.08456 5.0659 0.304425 9.18613 0.0417533C11.2231 -0.0884203 13.1306 0.325346 14.8717 1.42485C14.9665 1.48529 15.0312 1.47831 15.1237 1.42252C17.3526 0.0371042 19.7665 -0.299953 22.2936 0.253286C26.5503 1.18775 29.3665 4.67454 29.8867 9.01211C29.9306 9.37939 29.963 9.74666 30 10.1139V11.3948H29.9977ZM14.9827 4.07016C14.9503 4.04227 14.9087 4.00508 14.8694 3.96788C14.3538 3.47741 13.7827 3.06364 13.1399 2.7568C11.6601 2.0455 10.104 1.87116 8.49942 2.15475C6.15954 2.56852 4.38613 3.82609 3.18844 5.89027C2.5711 6.95723 2.23353 8.12182 2.0948 9.34452C1.96301 10.5114 1.96069 11.6737 2.26821 12.8197C2.6289 14.1586 3.26936 15.3581 4.05549 16.4855C5.37803 18.3893 7.00809 20.0048 8.73064 21.5367C10.6844 23.2731 12.7723 24.8375 14.8578 26.4089C14.9688 26.4926 15.0358 26.4903 15.1445 26.4089C16.2104 25.5883 17.2902 24.784 18.3514 23.9565C20.2358 22.4828 22.0601 20.9346 23.711 19.1936C24.9711 17.8662 26.1156 16.4506 26.9549 14.8118C27.5006 13.7495 27.889 12.6314 27.9653 11.4296C28.0416 10.2441 27.9329 9.07488 27.637 7.91958C26.726 4.37235 23.7249 2.02458 20.0994 2.03388C18.5942 2.03852 17.1977 2.41742 15.9561 3.29145C15.6208 3.52855 15.3133 3.80517 14.9827 4.07016Z" fill="black"/>
<path d="M15.0012 7.85682C15.2231 7.23152 15.5006 6.69456 15.859 6.20176C16.6867 5.06506 17.7827 4.34678 19.1699 4.13293C22.037 3.69126 24.8185 5.21151 25.6809 8.41703C25.9514 9.42355 26.0509 10.4533 25.9376 11.4924C25.8335 12.4385 25.4751 13.3078 25.0173 14.1354C24.1665 15.6765 23.0358 16.9969 21.8127 18.2405C19.9954 20.0908 17.9884 21.718 15.926 23.2801C15.6509 23.487 15.3803 23.6985 15.1006 23.8984C15.0566 23.9309 14.9549 23.9402 14.9156 23.91C12.4555 22.076 10.0439 20.1815 7.91214 17.9592C6.75145 16.7481 5.68555 15.465 4.89249 13.9703C4.48555 13.2032 4.15723 12.399 4.07168 11.5296C4.01619 10.9833 4.02543 10.4254 4.06474 9.87684C4.12486 9.00979 4.32139 8.16831 4.69133 7.37797C5.51908 5.61133 6.88324 4.5188 8.79769 4.16082C10.2243 3.89582 11.5838 4.09108 12.8116 4.91164C13.8197 5.58343 14.4832 6.53184 14.9202 7.65226C14.941 7.7034 14.9595 7.75454 15.0012 7.85682Z" fill="black"/>
</svg>
