<svg viewBox="0 0 40 25" fill="none" xmlns="http://www.w3.org/2000/svg">
<path d="M20.6152 24.3668C16.614 24.3668 13.3009 23.3423 10.3821 21.1311C9.16051 20.2071 8.10898 19.113 7.24689 17.845C6.03299 16.059 4.54462 14.5126 3.01372 13.0088C2.12069 12.1312 1.19287 11.2885 0.280521 10.4302C-0.167925 10.0088 -0.0635451 9.3439 0.485414 9.15447C0.616855 9.10808 0.763759 9.10808 0.902932 9.10421C2.32945 9.07328 3.72891 8.87612 5.08971 8.42768C6.46211 7.9715 7.72239 7.29497 8.93242 6.51019C10.1347 5.72927 11.3216 4.91743 12.6669 4.38007C13.7145 3.95869 14.7931 3.69581 15.9297 3.69581C17.016 3.69581 18.025 3.95096 18.9297 4.57723C19.2312 4.78599 19.5559 4.96383 19.8768 5.13779C19.9464 5.17645 20.074 5.17258 20.1436 5.13779C20.4219 4.98702 20.7041 4.83625 20.9593 4.65069C22.2234 3.73447 23.6422 3.56437 25.1383 3.77699C26.8084 4.01668 28.2813 4.74347 29.6962 5.6249C30.8212 6.32849 31.9384 7.04755 33.1098 7.66996C34.977 8.66736 37.0066 9.07328 39.1174 9.10421C39.2489 9.10421 39.388 9.11194 39.5118 9.15447C40.0646 9.35163 40.169 10.0088 39.7166 10.4302C38.9009 11.1957 38.0736 11.9495 37.2695 12.7304C35.8817 14.0719 34.5402 15.4559 33.3572 16.9907C32.7503 17.7754 32.2013 18.6143 31.5364 19.345C29.1666 21.9506 26.2053 23.5086 22.7414 24.1039C21.9219 24.247 21.0868 24.3088 20.6075 24.3629L20.6152 24.3668ZM19.9889 16.9752C20.0314 16.9752 20.0972 16.9675 20.1629 16.9636C21.4734 16.8476 22.6487 16.376 23.7504 15.6685C24.6899 15.0654 25.637 14.4624 26.6228 13.9366C28.1614 13.117 29.7387 12.367 31.3006 11.59C31.4436 11.5204 31.5789 11.4392 31.5209 11.2537C31.4707 11.0836 31.3238 11.072 31.173 11.0913C30.1679 11.2227 29.1705 11.1454 28.1808 10.9792C26.8741 10.7627 25.5713 10.4921 24.2607 10.3065C23.3329 10.1751 22.4128 10.2563 21.5662 10.7395C21.11 10.9985 20.6229 11.2034 20.1552 11.447C20.0121 11.5204 19.9039 11.5165 19.7608 11.447C19.3085 11.2111 18.8407 11.0101 18.3962 10.7588C17.5263 10.2717 16.5908 10.1751 15.6282 10.3104C14.681 10.4418 13.7377 10.6235 12.7945 10.7975C11.4453 11.0488 10.0922 11.2575 8.71207 11.099C8.61155 11.0874 8.49557 11.2034 8.3912 11.2575C8.45305 11.3619 8.49171 11.5127 8.58449 11.5591C9.3654 11.9573 10.1618 12.3245 10.9427 12.7188C12.7713 13.6351 14.596 14.5513 16.2854 15.7265C17.3833 16.4881 18.6204 16.9056 19.9889 16.9752Z" fill="black"/>
<path d="M33.508 2.46645C32.8199 2.46645 32.2709 1.90203 32.2786 1.21776C32.2864 0.548959 32.8508 0 33.5196 0C34.2 0 34.7606 0.57602 34.749 1.25642C34.7412 1.92909 34.1845 2.47031 33.508 2.47031V2.46645Z" fill="black"/>
</svg>
