<svg viewBox="0 0 15 32" fill="none" xmlns="http://www.w3.org/2000/svg">
<path d="M12.9204 12.566V1.06486C12.9204 0.661661 12.651 0.292862 12.2234 0.112462C11.7964 -0.0679374 11.2855 -0.0291374 10.9034 0.213262L2.58423 5.48445C2.267 5.68565 2.07997 6.00125 2.07997 6.33645V12.566H12.9204Z" fill="black"/>
<path d="M13.7396 14.0568H10.8404V23.628C10.8404 24.216 10.276 24.6928 9.58002 24.6928C8.884 24.6928 8.3196 24.216 8.3196 23.628V14.0568H1.26042C0.564394 14.0568 0 14.5336 0 15.1216V30.9352C0 31.5232 0.564394 32 1.26042 32H13.7396C14.4356 32 15 31.5232 15 30.9352V15.1216C15 14.5336 14.4356 14.0568 13.7396 14.0568ZM10.4706 28.174C10.2363 28.372 9.91099 28.486 9.57955 28.486C9.24811 28.486 8.92377 28.372 8.68845 28.174C8.45407 27.976 8.31913 27.7012 8.31913 27.4212C8.31913 27.1412 8.45407 26.8664 8.68845 26.6684C8.92282 26.4704 9.24811 26.3564 9.57955 26.3564C9.91099 26.3564 10.2363 26.4704 10.4706 26.6684C10.7064 26.8664 10.84 27.1412 10.84 27.4212C10.84 27.7012 10.7064 27.976 10.4706 28.174Z" fill="black"/>
</svg>
