<svg viewBox="0 0 35 30" fill="none" xmlns="http://www.w3.org/2000/svg">
<path d="M12.1965 29.9957C6.3742 30.0014 1.31125 25.9124 0.232733 20.0746C-0.546622 15.8581 0.641465 12.1586 3.6455 9.09399C6.43422 6.24934 9.27343 3.45515 12.0955 0.643823C12.952 -0.209191 14.0229 -0.213951 14.8775 0.630494C16.1761 1.91287 17.4671 3.20286 18.7505 4.50047C19.7309 5.49153 19.7223 6.50543 18.7381 7.48983C15.9999 10.2278 13.2588 12.963 10.5196 15.7001C9.42016 16.7987 9.23437 18.2477 10.049 19.353C11.0818 20.7553 12.9549 20.8867 14.2382 19.6243C15.7083 18.1772 17.1594 16.7102 18.619 15.2526C19.9214 13.9512 21.2219 12.6488 22.5263 11.3493C23.5695 10.3097 24.5756 10.3135 25.6199 11.3579C26.8765 12.6146 28.138 13.8674 29.389 15.1289C30.2674 16.0152 30.2969 17.0662 29.4185 17.945C26.4116 20.9534 23.4238 23.9817 20.3559 26.9263C18.5466 28.6628 16.3048 29.6034 13.8076 29.91C13.5408 29.9424 13.2731 29.9785 13.0044 29.9928C12.7357 30.0071 12.4652 29.9957 12.1955 29.9957H12.1965ZM24.1259 13.0525C22.3214 14.8461 20.5169 16.6407 18.7324 18.4134C19.8986 19.5758 21.0857 20.7601 22.1985 21.8692C23.9916 20.0861 25.7961 18.2924 27.5683 16.5302C26.4192 15.3688 25.2397 14.1778 24.1259 13.0525Z" fill="black"/>
<path d="M25.5427 5.95231C24.7243 5.15356 23.9497 4.40527 23.1837 3.64841C22.734 3.20477 22.8064 2.91726 23.419 2.76112C27.0395 1.83671 30.6609 0.91515 34.2871 0.0145348C34.4834 -0.0340184 34.8273 0.0430955 34.9321 0.185899C35.1322 0.45913 34.8473 0.625734 34.6301 0.766634C32.9532 1.85289 31.2764 2.9401 29.5995 4.02732C29.4566 4.11966 29.3194 4.21962 29.0993 4.371C29.7482 5.00028 30.3636 5.59054 30.9705 6.18936C31.4927 6.70346 31.4364 6.97097 30.7552 7.17756C27.2567 8.24002 23.7553 9.29486 20.2559 10.3583C19.9948 10.4373 19.7328 10.5058 19.5899 10.2145C19.4279 9.88417 19.6985 9.73089 19.9281 9.58238C21.765 8.3933 23.6029 7.20517 25.5417 5.95136L25.5427 5.95231Z" fill="black"/>
</svg>
