<svg viewBox="0 0 29 30" fill="none" xmlns="http://www.w3.org/2000/svg">
<path d="M14.7875 30C12.7926 27.3673 10.8296 24.7759 8.8237 22.1279C10.2445 20.7042 11.6671 19.2787 13.1245 17.8173C12.0529 17.5047 11.1725 16.964 10.4612 16.1628C9.82941 15.4505 9.40793 14.6367 9.20953 13.7142C9.14553 13.4178 9.05684 13.2004 8.73319 13.0369C4.36385 10.8309 1.59724 7.35561 0.387654 2.69379C0.165484 1.83778 0.127999 0.93416 0 0.00808407H2.60569C2.80226 0.953921 2.92569 1.90155 3.20089 2.80338C3.91494 5.14417 5.27173 7.09782 7.10394 8.73888C8.5485 10.0332 10.1814 11.0078 12.0904 11.474C15.0435 12.1944 17.7827 11.6393 20.2924 10.0009C23.24 8.07509 25.1884 5.42441 26.0853 2.04797C26.1731 1.71831 26.2252 1.37789 26.2691 1.03925C26.3129 0.702416 26.3257 0.361089 26.3541 0H29.0018C28.9543 0.575766 28.947 1.15243 28.8537 1.71652C28.2155 5.56274 26.2864 8.69757 23.2675 11.1704C22.345 11.9267 21.2369 12.4629 20.222 13.1133C20.0904 13.1977 19.9477 13.3468 19.9176 13.4887C19.486 15.4918 18.3121 16.8858 16.3427 17.6996C17.8156 19.1844 19.2648 20.6449 20.7432 22.1351C18.7683 24.7436 16.7916 27.3547 14.7894 30H14.7875ZM12.3665 14.3376C12.9892 15.1127 13.8586 15.4621 14.9119 15.3346C15.6479 15.2457 16.2513 14.9025 16.67 14.3376H12.3665Z" fill="black"/>
</svg>
