<svg viewBox="0 0 35 34" fill="none" xmlns="http://www.w3.org/2000/svg">
<path d="M12.0631 33.164C10.8909 33.164 9.71588 33.1305 8.54363 33.1696C5.80563 33.2617 3.73355 32.1148 2.20908 29.8295C0.313112 26.9889 -0.42436 23.8776 0.238814 20.5123C1.0781 16.2598 3.55193 13.2908 7.47319 11.5775C7.86119 11.4072 7.99603 11.2175 7.9575 10.8129C7.92448 10.492 7.9575 10.1655 7.94925 9.83903C7.94099 9.61301 8.00979 9.51256 8.24919 9.51256C10.7973 9.51814 13.3427 9.51814 15.8908 9.51256C16.1247 9.51256 16.2045 9.61022 16.2018 9.83624C16.1935 10.2688 16.21 10.7013 16.1963 11.1338C16.188 11.3626 16.2788 11.4742 16.4797 11.5663C19.1902 12.7857 21.265 14.725 22.7152 17.3396C24.0581 19.7589 24.4213 22.3456 23.915 25.0719C23.4857 27.3879 22.4923 29.4165 20.8935 31.1214C19.6993 32.3967 18.1941 33.0691 16.4687 33.1389C15.002 33.1975 13.5298 33.1501 12.0631 33.1501C12.0631 33.1557 12.0631 33.1584 12.0631 33.164ZM2.3219 24.8598C2.33566 24.9519 2.34116 25.0105 2.35217 25.0691C2.36317 25.1388 2.37418 25.2114 2.39344 25.2811C2.78695 26.7907 3.47489 28.1441 4.46277 29.344C5.41213 30.4964 6.62565 31.074 8.09509 31.0796C10.7505 31.088 13.4032 31.1019 16.0587 31.0684C16.6723 31.0601 17.3052 30.9233 17.8941 30.7336C18.9756 30.3876 19.6745 29.5421 20.2964 28.6296C21.0669 27.4995 21.5677 26.255 21.8456 24.8598H2.3219Z" fill="black"/>
<path d="M14.7626 2.33285C15.9101 2.33285 16.997 2.29378 18.084 2.34122C20.6514 2.45283 23.1004 3.03324 25.3486 4.34473C28.1719 5.98827 29.9413 8.48011 30.9154 11.5802C31.73 14.167 31.9253 16.8262 31.7492 19.5245C31.7492 19.5608 31.7492 19.5971 31.741 19.6334C31.6364 20.1384 31.7905 20.423 32.2858 20.6825C33.5902 21.3634 34.2809 22.5772 34.6358 23.9669C35.332 26.6763 35.0431 29.2826 33.6562 31.7242C33.0838 32.7287 32.2941 33.524 31.1604 33.8477C29.5231 34.3165 27.9435 33.6858 26.9612 32.1958C26.1989 31.0377 25.8605 29.7318 25.7559 28.3589C25.6073 26.428 25.8852 24.5724 26.7878 22.8423C27.4207 21.6313 28.3178 20.716 29.6414 20.2891C29.7432 20.2556 29.8643 20.0966 29.8698 19.9905C30.0376 17.3369 29.9468 14.7055 29.1351 12.1467C27.9105 8.2792 25.3431 5.83759 21.4907 4.77445C19.4461 4.208 17.3603 4.0908 15.2552 4.24706C14.7378 4.28613 14.7378 4.2945 14.7378 4.81351C14.7378 5.78737 14.7296 6.76122 14.7433 7.73507C14.7489 8.02527 14.6746 8.13689 14.3691 8.1341C12.8171 8.12293 11.2651 8.12572 9.71313 8.13689C9.44621 8.13689 9.39943 8.02527 9.39943 7.79088C9.40768 6.76959 9.38567 5.7483 9.40768 4.72701C9.41594 4.36984 9.29761 4.26939 8.9619 4.29171C8.56014 4.31961 8.15563 4.30566 7.75387 4.29729C7.25856 4.28613 7.02191 4.04057 7.0054 3.5383C6.99989 3.40715 7.00264 3.27321 7.0054 3.14206C7.02741 2.69839 7.25856 2.45562 7.69609 2.43888C8.06207 2.42493 8.43081 2.43888 8.79679 2.43609C9.45721 2.43051 9.39392 2.50864 9.39668 1.84731C9.39668 1.34225 9.40768 0.837188 9.39392 0.332125C9.38842 0.0809889 9.47373 -0.00272323 9.72138 6.7174e-05C11.2844 0.00843839 12.8501 0.00843839 14.4131 6.7174e-05C14.6635 6.7174e-05 14.7433 0.0893601 14.7378 0.337706C14.7241 0.890206 14.7323 1.44271 14.7323 1.99521C14.7323 2.12356 14.7461 2.25471 14.7516 2.33564L14.7626 2.33285Z" fill="black"/>
</svg>
