<svg viewBox="0 0 32 32" fill="none" xmlns="http://www.w3.org/2000/svg">
<path d="M13.7534 0C14.3315 0.188545 14.8921 0.407783 15.3651 0.811181C16.4863 1.77144 16.9067 2.99918 16.6965 4.44176C16.6265 4.91532 16.4425 5.36695 16.1666 5.77473C16.1228 5.8405 16.114 5.93258 16.0878 6.01151C16.1622 6.02466 16.241 6.05097 16.3155 6.05097C18.4703 6.05097 20.6294 6.05536 22.7842 6.05097C23.8047 6.05097 24.6281 6.44999 25.2543 7.24363C25.6923 7.79611 25.885 8.43628 25.885 9.14223C25.885 11.3171 25.885 13.4919 25.885 15.6624C25.885 15.7325 25.885 15.8071 25.885 15.9255C25.9945 15.8728 26.0733 15.8465 26.139 15.8027C26.8879 15.3291 27.7026 15.1274 28.5872 15.2327C29.8267 15.3774 30.7771 15.9912 31.4296 17.0523C31.9727 17.9381 32.1391 18.9159 31.8807 19.92C31.5566 21.1872 30.7858 22.108 29.5551 22.5815C28.3595 23.0419 27.2077 22.9148 26.1171 22.2351C26.0646 22.2044 26.0033 22.1913 25.9419 22.1694C25.9244 22.2351 25.8981 22.3053 25.8981 22.3711C25.8981 24.5371 25.8981 26.7032 25.8981 28.8693C25.8981 29.9479 25.4733 30.8117 24.6062 31.4475C24.085 31.829 23.4893 32.0044 22.8412 32C22.0572 31.9956 21.2776 32 20.4937 32C19.0878 32 17.6863 32 16.2805 31.9956C16.206 31.9956 16.1316 31.9825 16.0045 31.9649C16.6659 31.009 16.898 29.9918 16.6571 28.8956C16.4513 27.9441 15.9476 27.168 15.1505 26.6067C13.6571 25.5588 11.7651 25.6816 10.403 26.883C9.24676 27.9046 8.55915 29.9918 9.87305 31.9518C9.79421 31.9649 9.72852 31.9912 9.6672 31.9912C7.473 31.9912 5.27881 31.9956 3.08899 31.9912C1.81013 31.9912 0.890407 31.3817 0.303536 30.268C0.0889335 29.8646 0.00572034 29.4174 0.00572034 28.9526C0.00572034 26.7514 0.00572034 24.5459 0.00572034 22.3447C0.00572034 22.2746 0.0363778 22.2088 0.0538964 22.1387C0.119591 22.165 0.189665 22.1781 0.2466 22.2132C1.35903 22.9148 2.54591 23.0332 3.74593 22.5333C4.96785 22.0247 5.72115 21.0907 6.0102 19.7753C6.38685 18.0565 5.43647 16.2587 3.89484 15.5747C2.60285 15.0047 1.36779 15.1143 0.185286 15.8728C0.154628 15.8904 0.123971 15.9079 0.058276 15.943C0.0363778 15.8509 0.00572034 15.7808 0.00572034 15.7106C0.00572034 13.4788 -0.0117982 11.2469 0.0144796 9.01507C0.0276185 7.80488 0.649527 6.92354 1.70064 6.36229C2.12985 6.13428 2.60285 6.04659 3.09775 6.04659C5.18683 6.05536 7.2803 6.04659 9.36939 6.04659C9.43508 6.04659 9.50078 6.05097 9.56647 6.04659C9.64969 6.03782 9.7329 6.02028 9.81611 6.00712C9.78545 5.92381 9.76356 5.83173 9.71538 5.75719C9.14165 4.85393 9.0015 3.87175 9.25114 2.85448C9.59275 1.47328 10.4731 0.565634 11.8264 0.114004C11.9402 0.0789257 12.0585 0.0394629 12.1724 0C12.6979 0 13.2235 0 13.7534 0Z" fill="black"/>
</svg>
