<svg viewBox="0 0 32 32" fill="none" xmlns="http://www.w3.org/2000/svg">
<path d="M0 17.3927C0.264006 16.8643 0.494751 16.3859 0.737968 15.9137C1.21193 14.9963 1.66303 14.0665 2.17441 13.172C2.67124 12.3024 3.30735 11.5411 4.12639 10.944C5.05145 10.268 6.07837 9.93098 7.22378 9.93722C8.46897 9.94346 9.71416 9.93722 10.9594 9.9393C11.0924 9.9393 11.1755 9.89978 11.2566 9.79369C12.587 8.02342 14.1482 6.48198 15.8757 5.10279C17.362 3.91499 18.946 2.8832 20.6548 2.04487C22.0393 1.36464 23.4736 0.813384 24.9745 0.443105C26.0887 0.168517 27.2217 -0.00206141 28.3733 1.88122e-05C29.4668 0.00209903 30.5602 1.88122e-05 31.6557 1.88122e-05C31.7597 1.88122e-05 31.8636 1.88122e-05 31.9738 1.88122e-05C31.9842 0.0437034 31.9946 0.0665858 31.9946 0.0915484C31.9946 1.37088 32.0112 2.65022 31.9863 3.92955C31.9592 5.27545 31.7056 6.58807 31.3169 7.87365C30.4646 10.684 29.0863 13.2198 27.3235 15.5559C25.8622 17.4926 24.1596 19.1921 22.2659 20.7003C22.1245 20.8126 22.0601 20.9249 22.0601 21.1122C22.0642 22.431 22.0725 23.7499 22.0455 25.0687C22.0143 26.502 21.3948 27.6752 20.3762 28.6613C19.474 29.535 18.3889 30.1278 17.2851 30.6874C16.4182 31.1263 15.5451 31.5528 14.645 32C14.6367 31.9002 14.6242 31.8211 14.6242 31.74C14.6242 29.5121 14.6242 27.2821 14.6263 25.0542C14.6263 24.9023 14.5806 24.7941 14.4746 24.6901C12.0736 22.3 9.67674 19.9056 7.27367 17.5175C7.20091 17.4447 7.06787 17.399 6.96393 17.399C4.73755 17.3927 2.50909 17.3948 0.282715 17.3927C0.2058 17.3927 0.130963 17.3927 0 17.3927ZM24.54 9.92266C24.5213 8.52683 23.4113 7.4264 22.0434 7.4472C20.6714 7.468 19.5614 8.58092 19.5842 9.91642C19.6071 11.3497 20.6985 12.4439 22.0892 12.4252C23.457 12.4085 24.5588 11.2831 24.54 9.92266Z" fill="black"/>
<path d="M10.8346 24.5071C10.1237 25.1727 9.51044 25.9424 8.67269 26.4666C8.01787 26.8764 7.32772 27.2155 6.58767 27.436C5.83931 27.6607 5.08263 27.8583 4.32595 28.0517C4.037 28.1246 3.7335 28.1495 3.40297 28.1994C3.42376 28.0642 3.43623 27.9623 3.45702 27.8645C3.82288 26.1067 4.2823 24.3822 5.2323 22.8304C5.58777 22.25 6.08668 21.7965 6.55856 21.3222C6.74358 21.1371 6.91612 20.9395 7.08865 20.7523C8.35463 22.0212 9.58528 23.2568 10.8346 24.5091V24.5071Z" fill="black"/>
</svg>
