<svg viewBox="0 0 30 32" fill="none" xmlns="http://www.w3.org/2000/svg">
<path d="M13.6329 28.9692C12.8243 29.4201 12.0534 29.8493 11.2832 30.2796C11.1355 30.3621 10.9898 30.447 10.8421 30.5282C10.4145 30.7637 10.0329 30.6706 9.78423 30.2615C9.58863 29.9405 9.40007 29.6156 9.21533 29.2883C8.93088 28.7849 9.02229 28.4707 9.53814 28.1809C10.798 27.4738 12.056 26.763 13.3236 26.069C13.5562 25.9416 13.6496 25.8061 13.6419 25.5387C13.6208 24.7698 13.6342 23.9996 13.6342 23.1789C13.2948 23.4025 12.9739 23.6099 12.6575 23.8235C12.0208 24.2545 11.3835 24.6849 10.7526 25.1246C10.4918 25.3064 10.2278 25.3882 9.92294 25.2483C9.61804 25.1077 9.55412 24.8547 9.55539 24.5518C9.56051 23.3756 9.55476 22.1995 9.55284 21.0233C9.55284 20.9134 9.55284 20.8034 9.55284 20.6329C9.00631 20.9352 8.52818 21.2444 8.01169 21.4712C7.55977 21.6698 7.42745 21.9409 7.44215 22.4187C7.48115 23.7398 7.45622 25.0627 7.45494 26.3851C7.45494 26.9422 7.21843 27.1871 6.6604 27.2065C6.32033 27.2183 5.98027 27.229 5.64021 27.2277C4.97735 27.2252 4.71079 26.9647 4.70951 26.3232C4.7076 25.4488 4.70951 24.5743 4.70951 23.6998C4.70951 23.5986 4.70951 23.4968 4.70951 23.3388C4.07989 23.6898 3.49501 24.0153 2.91077 24.3413C2.53299 24.5518 2.16097 24.7723 1.77808 24.9728C1.3204 25.2127 0.999517 25.129 0.727212 24.6992C0.50988 24.3563 0.300857 24.0065 0.105896 23.6505C-0.107601 23.2601 0.0068183 22.8984 0.403131 22.6736C1.36515 22.1264 2.32972 21.5836 3.33073 21.0183C3.08591 20.8734 2.86602 20.7391 2.64166 20.611C1.96409 20.2238 1.28397 19.8409 0.606401 19.4536C0.141053 19.1875 0.038779 18.8421 0.298939 18.3836C0.473444 18.0751 0.659456 17.7727 0.846106 17.471C1.16507 16.9551 1.47829 16.8677 2.00756 17.1662C3.29302 17.8908 4.57656 18.6185 5.85435 19.3568C6.02374 19.4549 6.14135 19.4574 6.30691 19.3612C6.85152 19.0445 7.40572 18.7453 7.99507 18.418C6.62716 17.8296 5.30526 17.2612 3.98337 16.6921C3.71426 16.5766 3.46688 16.4404 3.42597 16.115C3.37803 15.7333 3.53975 15.5047 3.98017 15.3161C5.20171 14.7926 6.42261 14.268 7.64287 13.742C7.72916 13.7046 7.81162 13.659 7.92987 13.5996C7.30344 13.0531 6.69555 12.5228 6.08191 11.9875C4.76193 12.7351 3.46049 13.4728 2.15905 14.2099C1.47126 14.5996 1.2047 14.5309 0.798804 13.857C0.64795 13.6071 0.502848 13.3535 0.351994 13.1043C0.0547593 12.6133 0.128908 12.2835 0.631969 11.9875C1.17722 11.6664 1.7327 11.3628 2.2837 11.0511C2.62248 10.86 2.96063 10.6682 3.33968 10.4534C2.74777 10.1179 2.18398 9.79814 1.61955 9.48021C1.22452 9.25784 0.825012 9.04359 0.433813 8.81435C-0.0289777 8.54327 -0.114632 8.19972 0.153198 7.73875C0.331539 7.43206 0.510519 7.12599 0.69653 6.8243C1.00144 6.33022 1.33063 6.24402 1.83817 6.52635C2.69407 7.00231 3.54806 7.48203 4.40269 7.95987C4.50177 8.01483 4.60149 8.06855 4.75618 8.1535C4.75618 7.10725 4.77535 6.10972 4.74979 5.11407C4.73189 4.42636 5.06684 4.20524 5.67217 4.23335C6.01223 4.24896 6.35421 4.2271 6.69491 4.23709C7.22866 4.25271 7.46453 4.48757 7.46517 5.01288C7.46644 6.47013 7.46389 7.92801 7.45174 9.38526C7.44982 9.58952 7.50544 9.73568 7.66396 9.86935C8.28144 10.3872 8.89061 10.9143 9.55284 11.4815C9.55284 10.7975 9.55348 10.1779 9.55284 9.55891C9.55156 8.86183 9.55284 8.16412 9.54581 7.46704C9.54261 7.16409 9.6289 6.91112 9.91911 6.76745C10.2042 6.62629 10.4701 6.68688 10.7264 6.86052C11.6162 7.46329 12.5098 8.06168 13.4022 8.6607C13.4616 8.70067 13.5262 8.73378 13.6349 8.79811C13.6349 8.20534 13.5786 7.64505 13.6489 7.09976C13.7422 6.37706 13.4955 5.96856 12.8116 5.63938C11.7012 5.10532 10.6529 4.44822 9.57649 3.84608C9.01973 3.53502 8.92641 3.21708 9.24218 2.66991C9.40901 2.38133 9.57841 2.09463 9.74652 1.80667C10.0252 1.32946 10.3666 1.22577 10.8588 1.49499C11.691 1.95096 12.5162 2.41943 13.3453 2.88166C13.4252 2.92663 13.5089 2.96536 13.6432 3.03282C13.6432 2.63181 13.6432 2.27327 13.6432 1.91474C13.6438 1.50873 13.6381 1.10272 13.6489 0.697339C13.6598 0.297579 13.9123 0.0321126 14.3233 0.0152477C14.7701 -0.00349106 15.2188 -0.00661419 15.6656 0.0152477C16.1572 0.0389835 16.3701 0.321314 16.3662 0.864114C16.3617 1.56994 16.3649 2.27577 16.3649 3.03407C16.8654 2.75673 17.3404 2.49564 17.8134 2.23205C18.2653 1.98032 18.714 1.72298 19.1666 1.47375C19.5911 1.24014 19.9765 1.34133 20.2232 1.75108C20.4169 2.07277 20.6048 2.39882 20.7902 2.7255C21.0657 3.21208 20.9781 3.53377 20.4815 3.8136C19.2222 4.52255 17.963 5.23087 16.6967 5.92796C16.4634 6.05663 16.3432 6.1853 16.3547 6.47638C16.3841 7.24342 16.3643 8.01171 16.3643 8.83559C16.9236 8.45894 17.4516 8.10478 17.9783 7.74749C18.4143 7.45204 18.8489 7.1541 19.283 6.8549C19.5348 6.68126 19.7994 6.62067 20.0877 6.76058C20.3741 6.89925 20.4457 7.14098 20.4444 7.43331C20.4406 8.60948 20.4457 9.78502 20.447 10.9612C20.447 11.0749 20.447 11.1892 20.447 11.3428C20.5582 11.296 20.6451 11.2685 20.7231 11.2254C21.2031 10.9606 21.6691 10.6695 22.1639 10.434C22.4797 10.2841 22.5583 10.0911 22.5532 9.76191C22.5321 8.38773 22.5436 7.01356 22.5442 5.63938C22.5442 5.04786 22.782 4.80988 23.3816 4.79801C23.7108 4.79114 24.04 4.78614 24.3692 4.78114C25.0046 4.7724 25.2864 5.03787 25.289 5.65812C25.2928 6.54321 25.289 7.42831 25.2903 8.31278C25.2903 8.41272 25.2992 8.51266 25.3056 8.6582C25.9263 8.31153 26.5112 7.98485 27.0961 7.65817C27.4732 7.44767 27.8459 7.22718 28.2287 7.0273C28.6736 6.79556 28.9913 6.87489 29.2566 7.28652C29.4822 7.63693 29.6964 7.99609 29.8971 8.36088C30.0972 8.72316 30.0026 9.08794 29.6389 9.29906C28.7184 9.83312 27.7877 10.3516 26.8608 10.8769C26.8071 10.9075 26.7541 10.9387 26.6627 10.9912C27.3364 11.3766 27.9827 11.7463 28.6295 12.1161C28.8948 12.2679 29.1633 12.4153 29.4273 12.5696C29.8421 12.8126 29.9495 13.158 29.7232 13.5728C29.5334 13.92 29.3301 14.2605 29.1198 14.5959C28.8418 15.0394 28.4927 15.1206 28.0108 14.8489C26.8723 14.2074 25.7179 13.589 24.6108 12.8994C24.1116 12.589 23.7248 12.529 23.2384 12.8863C22.8709 13.1568 22.4387 13.3429 22.0015 13.5852C23.3726 14.1749 24.6977 14.7439 26.0228 15.3136C26.2817 15.4248 26.5189 15.5591 26.5719 15.8645C26.6358 16.2293 26.4747 16.4904 26.072 16.664C24.8908 17.1737 23.7082 17.6797 22.5263 18.1881C22.3819 18.2506 22.24 18.3187 22.0654 18.398C22.6574 18.9158 23.2224 19.4193 23.8028 19.9052C23.8642 19.9564 24.04 19.9396 24.1263 19.8921C25.3695 19.1981 26.6077 18.4967 27.8433 17.789C28.5023 17.4117 28.8047 17.4798 29.1914 18.1188C29.3423 18.368 29.4906 18.6191 29.6395 18.8696C29.9508 19.3918 29.8677 19.7291 29.3365 20.0333C28.5496 20.4849 27.7583 20.9277 26.9682 21.3743C26.8794 21.4249 26.7899 21.4755 26.662 21.5486C27.3863 21.9584 28.0805 22.3512 28.7753 22.7435C29.0508 22.899 29.3339 23.0421 29.6031 23.207C30.0058 23.4543 30.1023 23.8166 29.8741 24.2214C29.6798 24.5662 29.4759 24.9066 29.2636 25.2414C28.9996 25.6586 28.6474 25.743 28.2064 25.4987C27.2405 24.9628 26.2772 24.4219 25.2411 23.8429C25.2411 24.9078 25.243 25.9197 25.2391 26.9323C25.2391 27.0759 25.243 27.2308 25.1918 27.3601C25.0979 27.5981 24.9068 27.748 24.6325 27.753C24.1749 27.7618 23.7159 27.7761 23.2589 27.7611C22.7654 27.7449 22.534 27.4988 22.5334 27.0053C22.5321 25.5481 22.534 24.0902 22.5481 22.633C22.55 22.4156 22.4899 22.2626 22.3237 22.1226C21.712 21.6092 21.1085 21.087 20.4457 20.5205C20.4457 20.9683 20.445 21.3568 20.4457 21.7454C20.4482 22.6404 20.4482 23.5355 20.4559 24.4306C20.4585 24.7554 20.4246 25.0609 20.0909 25.2308C19.7656 25.3963 19.4843 25.2882 19.2037 25.0952C18.397 24.5399 17.582 23.9965 16.7689 23.45C16.65 23.37 16.5267 23.2969 16.3554 23.1895C16.3554 24.079 16.3496 24.9072 16.3643 25.7355C16.3656 25.8192 16.471 25.9304 16.5573 25.9791C17.8396 26.7086 19.1263 27.4307 20.4144 28.1515C20.9858 28.472 21.0766 28.7868 20.748 29.3502C20.5799 29.6381 20.4124 29.9267 20.2424 30.2128C19.9701 30.6706 19.623 30.7737 19.1494 30.5126C18.3184 30.0548 17.4944 29.5844 16.6666 29.1203C16.5855 29.0747 16.4992 29.0366 16.3547 28.9642C16.3547 29.3077 16.3547 29.6119 16.3547 29.9161C16.3547 30.3739 16.3605 30.8318 16.3515 31.2896C16.3432 31.7063 16.0907 31.9686 15.6599 31.9867C15.2239 32.0048 14.7861 32.0036 14.3495 31.988C13.8797 31.9717 13.6451 31.7131 13.6381 31.2128C13.6285 30.5264 13.6342 29.8393 13.6336 29.1528C13.6336 29.106 13.6336 29.0591 13.6336 28.9654L13.6329 28.9692Z" fill="black"/>
</svg>
