<svg viewBox="0 0 32 32" fill="none" xmlns="http://www.w3.org/2000/svg">
<path d="M24.7362 6.30483C24.7362 7.35649 24.7336 8.41081 24.7362 9.46247C24.7416 10.5807 25.188 11.4832 26.0888 12.1622C27.428 13.1739 28.7752 14.175 30.1117 15.1893C30.6549 15.602 31.1254 16.0839 31.432 16.6989C31.9187 17.6734 31.7547 18.5999 30.9641 19.356C30.4075 19.8885 29.7271 20.192 29.0038 20.4183C27.3285 20.9402 25.6505 21.4434 23.9779 21.9732C22.7948 22.3486 22.0149 23.126 21.6949 24.3294C21.2539 25.9855 20.821 27.6442 20.3638 29.2975C20.1541 30.059 19.8233 30.7725 19.256 31.3529C18.5165 32.1091 17.5403 32.2076 16.6556 31.6218C15.9915 31.1799 15.4778 30.5968 15.0584 29.9312C14.0688 28.3604 13.1061 26.7682 12.0977 25.208C11.4308 24.1777 10.4466 23.6665 9.19891 23.7171C7.34346 23.7943 5.4907 23.9008 3.63526 23.9753C2.89039 24.0073 2.14552 23.9567 1.44099 23.6798C0.150247 23.1713 -0.28269 22.2155 0.179827 20.9109C0.446043 20.1654 0.903182 19.5371 1.41679 18.946C2.44939 17.7533 3.50081 16.5765 4.51727 15.3704C5.28634 14.4572 5.52028 13.4029 5.16802 12.2554C4.60869 10.4476 4.02517 8.6451 3.46854 6.83732C3.28568 6.24626 3.22114 5.63124 3.32602 5.01355C3.51694 3.89001 4.29945 3.19512 5.44768 3.10992C6.1549 3.05933 6.83254 3.18713 7.49674 3.40279C9.02412 3.898 10.5461 4.41717 12.0789 4.89641C13.1545 5.23187 14.1763 5.0881 15.1068 4.42516C16.6798 3.30428 18.2503 2.18073 19.8233 1.05985C20.4633 0.601915 21.1302 0.191902 21.9208 0.0507931C23.2116 -0.180838 24.1662 0.386259 24.5883 1.61896C24.7847 2.19405 24.8465 2.7851 24.8438 3.38947C24.8411 4.36126 24.8438 5.33305 24.8438 6.30483H24.7362Z" fill="black"/>
<path d="M30.8431 31.9839C30.4343 31.9813 30.152 31.8614 29.9234 31.6378C28.2616 29.9978 26.6024 28.3577 24.9487 26.7097C24.4593 26.2198 24.4781 25.4743 24.9648 24.9844C25.4166 24.5318 26.1883 24.5158 26.667 24.9844C28.3261 26.6138 29.9799 28.2512 31.6256 29.8939C32.0048 30.272 32.0989 30.7379 31.8891 31.2358C31.6821 31.7257 31.2895 31.96 30.8431 31.9813V31.9839Z" fill="black"/>
</svg>
