<svg viewBox="0 0 24 35" fill="none" xmlns="http://www.w3.org/2000/svg">
<path d="M11.9948 10.939C13.5396 10.9302 15.0843 10.9946 16.6144 11.2145C18.1035 11.4285 19.5517 11.7714 20.8624 12.5599C22.1965 13.3601 23.0595 14.5296 23.5013 16.0069C24.0221 17.7421 24.1186 19.5184 23.867 21.3034C23.6564 22.7924 23.1151 24.1847 22.4247 25.5125C20.9414 28.3703 18.9578 30.8296 16.4681 32.8696C15.5641 33.6112 14.5899 34.2414 13.4986 34.6957C12.3459 35.1764 11.2429 35.0592 10.1429 34.5433C8.65376 33.8428 7.38404 32.8374 6.21379 31.703C4.09857 29.6542 2.3783 27.3181 1.15246 24.6273C0.198707 22.5257 -0.193326 20.3361 0.0904592 18.0352C0.225038 16.9419 0.44446 15.875 0.956444 14.8842C1.60593 13.6239 2.61235 12.7563 3.87914 12.17C5.11668 11.6014 6.43029 11.3053 7.77315 11.1764C9.17453 11.0415 10.5847 10.9741 11.989 10.8745C11.989 10.895 11.989 10.9184 11.9919 10.939H11.9948ZM10.374 19.6327C10.2716 19.2897 10.2131 18.9175 10.0551 18.5921C9.82694 18.1231 9.37347 18.1319 9.13942 18.595C8.80005 19.2692 8.81467 19.9639 9.13942 20.641C9.23304 20.8374 9.38225 21.0074 9.628 20.9956C9.86497 20.9839 10.023 20.8198 10.0961 20.6146C10.2073 20.3068 10.2775 19.9873 10.374 19.6297V19.6327ZM13.7151 19.6327C13.8146 19.9844 13.8731 20.3391 14.0164 20.6527C14.23 21.1158 14.6718 21.1334 14.9146 20.6879C15.2891 20.002 15.2949 19.2809 14.9322 18.5863C14.6893 18.1231 14.2476 18.1349 14.0223 18.6097C13.876 18.9204 13.8175 19.2751 13.7151 19.6297V19.6327ZM11.2781 14.7846C11.2985 14.7904 11.3219 14.7963 11.3424 14.8022C11.3278 15.1891 11.3921 15.5584 11.6116 15.8838C11.8456 16.2326 12.1704 16.2267 12.4073 15.8838C12.7584 15.3679 12.7701 14.3332 12.4307 13.8085C12.1704 13.404 11.793 13.4011 11.5794 13.8349C11.436 14.1309 11.3775 14.468 11.2781 14.7875V14.7846ZM16.0293 14.5413C16.0936 15.0074 16.1902 15.4324 16.4623 15.8017C16.5822 15.9629 16.7314 16.1124 16.9479 16.0801C17.1878 16.042 17.2931 15.8486 17.3516 15.6346C17.5096 15.0249 17.416 14.4475 17.0913 13.9111C17.0386 13.8261 16.9655 13.747 16.8865 13.6854C16.6641 13.5066 16.392 13.5389 16.2692 13.7939C16.1551 14.0284 16.1053 14.2922 16.0293 14.5442V14.5413ZM7.96624 14.553C7.93406 14.3684 7.91358 14.1808 7.86677 13.999C7.81411 13.8027 7.71757 13.6268 7.49522 13.5858C7.27287 13.5447 7.11489 13.6737 6.99786 13.8378C6.61168 14.386 6.51806 14.9927 6.67897 15.6375C6.73163 15.8486 6.8428 16.0508 7.08563 16.0801C7.32553 16.1124 7.47766 15.9424 7.60054 15.7636C7.84922 15.4001 7.93991 14.9898 7.96624 14.553ZM12.7116 24.0206C12.6034 23.6776 12.539 23.3405 12.3898 23.0445C12.2025 22.6693 11.8456 22.684 11.6086 23.0357C11.2751 23.534 11.2781 24.5306 11.6116 25.0259C11.8485 25.3777 12.2025 25.3865 12.3898 25.0083C12.539 24.7064 12.6034 24.3606 12.7087 24.0235L12.7116 24.0206ZM8.20322 24.384C8.16811 23.833 8.08327 23.4109 7.79948 23.0591C7.54203 22.7426 7.24069 22.7484 7.05637 23.0679C6.75211 23.5868 6.93642 24.6976 7.3899 25.0933C7.65028 25.319 7.92236 25.2751 8.05401 24.9585C8.14178 24.7445 8.17396 24.5071 8.20322 24.384ZM17.2024 23.7773C17.1644 23.578 17.1469 23.3698 17.0825 23.1793C16.9391 22.7719 16.5939 22.6986 16.3277 23.0298C15.8947 23.5692 15.7777 24.1964 15.9942 24.8559C16.1463 25.319 16.5061 25.3601 16.8046 24.979C17.0796 24.6302 17.1732 24.2199 17.2054 23.7773H17.2024ZM5.96804 19.6415C5.86564 19.322 5.81298 19.0318 5.68426 18.7768C5.53212 18.4778 5.24249 18.4807 5.03769 18.7445C4.72172 19.152 4.71002 20.1046 5.01721 20.5237C5.19568 20.767 5.47068 20.7963 5.61697 20.5413C5.77495 20.2629 5.85394 19.9375 5.96804 19.6415ZM19.3557 19.6766C19.3352 19.6678 19.3147 19.662 19.2972 19.6532C19.2855 19.3278 19.2445 19.0083 19.0427 18.7357C18.8642 18.4983 18.6067 18.4954 18.4283 18.724C18.1006 19.1432 18.1152 20.131 18.4546 20.5384C18.6506 20.7729 18.911 20.7875 19.0544 20.5237C19.1948 20.2629 19.2592 19.958 19.3586 19.6737L19.3557 19.6766ZM10.6373 28.4847C10.5905 28.1124 10.5232 27.7753 10.2746 27.5027C10.061 27.2653 9.80061 27.2888 9.62215 27.5496C9.33836 27.9659 9.44076 28.8452 9.81231 29.1823C10.023 29.3728 10.2716 29.3611 10.4121 29.1149C10.5203 28.9243 10.5642 28.6928 10.6373 28.4817V28.4847ZM13.4401 28.5374C13.4723 28.6517 13.5045 28.8657 13.5922 29.0533C13.7414 29.3728 14.0398 29.4021 14.2768 29.1442C14.6074 28.7836 14.6952 28.0127 14.4524 27.5907C14.2827 27.2946 14.0077 27.2565 13.7765 27.5057C13.5337 27.7695 13.4693 28.0978 13.4401 28.5404V28.5374ZM4.08394 14.6673C4.06638 14.4387 4.08394 14.1866 3.83233 14.0928C3.57195 13.9961 3.40227 14.1954 3.26476 14.3772C2.99268 14.7348 2.83762 15.1393 2.90784 15.5906C2.92832 15.7284 3.03364 15.9248 3.13896 15.9541C3.26184 15.9893 3.46663 15.916 3.57488 15.8193C3.91133 15.5144 4.0459 15.1041 4.08686 14.6673H4.08394ZM21.0467 15.4353C21.0379 14.9927 20.8917 14.6029 20.5903 14.2775C20.4645 14.1427 20.2948 13.9873 20.1222 14.0987C19.9935 14.1808 19.8823 14.3801 19.8735 14.5354C19.8384 15.0191 19.9935 15.4587 20.3475 15.7988C20.4557 15.9043 20.6547 15.9834 20.798 15.9658C21.0028 15.9395 21.0321 15.7196 21.0467 15.532C21.0467 15.4998 21.0467 15.4675 21.0467 15.4382V15.4353ZM20.8712 23.3669C20.8419 23.3024 20.8097 23.1178 20.7307 23.0914C20.6284 23.0591 20.4528 23.1207 20.3621 23.2028C19.9613 23.5662 19.7536 24.0381 19.7214 24.5745C19.7156 24.6859 19.7858 24.853 19.8735 24.9028C19.9438 24.9439 20.1222 24.8764 20.2012 24.8032C20.5991 24.4368 20.8097 23.9737 20.8683 23.3699L20.8712 23.3669ZM4.40576 24.5599C4.34724 24.085 4.05468 23.4519 3.70653 23.1911C3.61291 23.1207 3.43445 23.0504 3.35838 23.0914C3.27354 23.1412 3.21795 23.32 3.22673 23.4373C3.26184 23.959 3.46956 24.4163 3.85281 24.7768C3.94351 24.8618 4.1249 24.9321 4.22144 24.897C4.31214 24.8618 4.34724 24.6771 4.40868 24.5599H4.40576ZM11.6555 31.6767C11.7227 31.9053 11.7579 32.1368 11.8603 32.3332C12.0007 32.6117 12.2494 32.6058 12.3986 32.3332C12.6326 31.9023 12.6326 31.4568 12.3927 31.0289C12.2494 30.7739 11.9978 30.768 11.8632 31.0289C11.7608 31.2253 11.7257 31.4539 11.6555 31.6796V31.6767ZM6.1348 27.9248C6.21964 28.3967 6.47125 28.8423 6.93935 29.1471C7.13244 29.2731 7.2875 29.1705 7.25824 28.9331C7.19095 28.3909 6.91302 27.96 6.46247 27.6522C6.26645 27.5174 6.13188 27.6112 6.1348 27.9248ZM17.9192 27.9395C17.9251 27.6434 17.8256 27.5614 17.6384 27.6288C17.2551 27.7695 16.7285 28.5814 16.7607 28.98C16.7753 29.1618 16.8923 29.2438 17.0532 29.15C17.5477 28.8657 17.8022 28.4084 17.9192 27.9365V27.9395ZM22.1116 19.6708C22.0473 19.4011 21.9917 19.1256 21.9127 18.8559C21.8951 18.7944 21.8015 18.7035 21.7576 18.7094C21.6904 18.7211 21.6026 18.7944 21.5763 18.8618C21.389 19.3835 21.389 19.9082 21.6084 20.4211C21.6318 20.4768 21.7108 20.5501 21.7576 20.5442C21.8191 20.5384 21.9068 20.4739 21.9244 20.4153C21.9975 20.1779 22.0473 19.9346 22.1087 19.6708H22.1116ZM1.98626 19.6444C2.036 19.9023 2.07111 20.1427 2.12962 20.3772C2.14717 20.4446 2.24665 20.5472 2.29638 20.5413C2.36952 20.5325 2.46314 20.4504 2.48947 20.3772C2.67964 19.8847 2.69427 19.3806 2.50703 18.8823C2.4807 18.812 2.38708 18.7006 2.34904 18.7094C2.27298 18.7269 2.17643 18.8032 2.15595 18.8764C2.08281 19.1314 2.03893 19.3923 1.98626 19.6444ZM14.8444 31.6298C14.8473 31.4539 14.7508 31.3689 14.5723 31.3982C14.2973 31.4422 13.9053 31.8232 13.8555 32.0958C13.8233 32.2717 13.9082 32.3772 14.0779 32.3743C14.3821 32.3684 14.8356 31.9287 14.8415 31.6298H14.8444ZM9.47587 31.3835C9.29448 31.3777 9.24474 31.4832 9.25937 31.6415C9.28277 31.9317 9.65433 32.3362 9.94397 32.3801C10.1019 32.4036 10.2073 32.3567 10.2131 32.1749C10.2219 31.8672 9.78306 31.3923 9.47879 31.3835H9.47587Z" fill="black"/>
<path d="M9.44368 7.08159C9.31496 6.67417 9.1599 6.24622 9.0458 5.80656C8.97266 5.5281 8.95218 5.23206 8.9317 4.94187C8.91707 4.73376 8.96096 4.51393 9.16575 4.40841C9.36469 4.30582 9.57241 4.39375 9.71284 4.52859C10.0698 4.87153 10.415 5.22619 10.7339 5.60138C10.9475 5.85639 11.1084 6.15829 11.3424 6.43089C11.3424 6.31071 11.3424 6.1876 11.3424 6.06743C11.3424 4.69859 11.4243 3.33562 11.7813 2.00782C11.9129 1.51832 12.1411 1.05227 12.3401 0.583294C12.5331 0.126038 12.934 0 13.3816 0C13.838 0 14.2446 0.15535 14.584 0.46898C13.2528 2.28335 12.7964 4.36151 12.7028 6.54813C12.7204 6.55692 12.7409 6.56572 12.7584 6.57451C12.8345 6.4514 12.9076 6.33123 12.9837 6.20812C13.3348 5.63362 13.7122 5.07964 14.2388 4.64876C14.4465 4.47876 14.6835 4.27065 14.9585 4.4172C15.2393 4.56669 15.2393 4.89498 15.1838 5.16171C15.0609 5.73621 14.8941 6.30485 14.7361 6.87055C14.701 6.99659 14.6367 7.11677 14.5606 7.29557C14.979 7.0728 15.3447 6.86762 15.7191 6.68589C16.6056 6.25209 17.5038 5.84759 18.4868 5.6981C18.6857 5.66879 18.8964 5.66 19.0982 5.68638C19.3908 5.72448 19.5049 5.91208 19.3733 6.17881C19.2621 6.40744 19.1041 6.62434 18.9286 6.81193C18.32 7.46264 17.5857 7.95507 16.8338 8.42112C16.7694 8.46215 16.7022 8.50319 16.5793 8.57647C16.7929 8.60578 16.9508 8.61457 17.103 8.64975C17.3546 8.70837 17.612 8.76406 17.849 8.86079C18.0948 8.96338 18.1182 9.16562 17.89 9.30632C17.6384 9.46167 17.3634 9.59357 17.0796 9.6815C16.1112 9.97754 15.1135 10.13 14.1042 10.1681C13.3172 10.1974 12.5302 10.1417 11.7462 10.1886C10.7017 10.2501 9.66603 10.2062 8.63329 10.0655C8.06571 9.98927 7.50692 9.84271 6.95105 9.70788C6.76966 9.66391 6.59412 9.57891 6.43614 9.47925C6.33959 9.4177 6.20794 9.2858 6.21964 9.20666C6.23427 9.10407 6.36593 8.9751 6.47125 8.937C6.77551 8.83441 7.09148 8.77285 7.40745 8.69958C7.52155 8.6732 7.6415 8.67026 7.83166 8.64681C7.69416 8.55888 7.60347 8.50612 7.52155 8.4475C6.85158 7.95214 6.17283 7.4685 5.51749 6.94969C5.30685 6.78262 5.13716 6.54813 4.99381 6.31364C4.75683 5.92673 4.90896 5.67466 5.36244 5.66293C5.9973 5.64828 6.59705 5.83001 7.17047 6.06743C7.93991 6.38399 8.6918 6.74452 9.43783 7.07866L9.44368 7.08159Z" fill="black"/>
</svg>
