<svg viewBox="0 0 27 32" fill="none" xmlns="http://www.w3.org/2000/svg">
<path d="M19.74 18.4319C19.8759 19.1287 19.9627 19.8154 19.8726 20.5122C19.3699 20.5122 18.8802 20.4705 18.4021 20.5238C17.9222 20.5772 17.4523 20.7255 16.9741 20.8322C16.3715 19.1253 15.2039 18.0986 13.3583 18.1619C11.6536 18.2202 10.5728 19.2254 10.016 20.8705C9.09404 20.5322 8.14424 20.3655 7.13549 20.5438C7.02577 19.8237 7.12238 19.132 7.2583 18.4036C6.95699 18.4719 6.68515 18.5269 6.41495 18.5953C5.31941 18.872 4.25334 19.2337 3.2233 19.7121C2.10647 20.2321 0.922494 19.8487 0.316588 18.8236C-0.377747 17.6535 0.116803 16.1234 1.34335 15.5466C3.29535 14.6299 5.34724 14.0682 7.45645 13.6964C7.61202 13.6698 7.76759 13.6481 7.9641 13.6164C7.88386 13.5031 7.82818 13.4231 7.77251 13.3431C6.71954 11.8096 6.27739 10.1177 6.52303 8.25589C6.55742 7.99253 6.49192 7.86751 6.26429 7.7325C4.91001 6.93075 4.17965 5.72063 4.1862 4.12546C4.19111 2.49863 4.95095 1.2785 6.33962 0.486753C8.16716 -0.555021 10.6121 0.141717 11.6716 1.98857C11.7567 2.13692 11.8288 2.18693 12.0122 2.14359C13.0079 1.91023 14.0084 1.91357 15.0041 2.14359C15.1596 2.18026 15.235 2.14692 15.3152 2.01191C16.1831 0.531758 17.7749 -0.213319 19.3584 0.0533749C21.1647 0.35674 22.4403 1.65521 22.7564 3.40205C23.0708 5.13723 22.2618 6.87908 20.7209 7.74417C20.5064 7.86418 20.4425 7.98253 20.4736 8.22922C20.7192 10.1327 20.2722 11.8596 19.1701 13.4148C19.139 13.4581 19.1095 13.5031 19.0833 13.5498C19.0767 13.5614 19.08 13.5798 19.0784 13.6098C19.5991 13.7081 20.1232 13.7981 20.6423 13.9081C22.3945 14.2748 24.0976 14.7932 25.7155 15.5816C26.8356 16.1284 27.3187 17.5252 26.7783 18.6453C26.2199 19.8004 24.8787 20.2621 23.7209 19.6921C22.478 19.0803 21.1581 18.7086 19.8153 18.4153C19.8022 18.4119 19.7858 18.4203 19.74 18.4286V18.4319ZM17.1526 11.6146C17.1477 9.55269 15.5134 7.90418 13.4762 7.90252C11.4784 7.90085 9.84241 9.58436 9.84569 11.6379C9.84896 13.6848 11.4915 15.3633 13.4877 15.3616C15.5216 15.3583 17.1575 13.6864 17.1509 11.6146H17.1526ZM10.0733 2.86533C9.69175 2.18359 8.67809 1.64021 7.62185 1.93024C6.7179 2.17859 6.04158 3.03702 5.97608 4.07379C5.92695 4.8522 6.48373 5.84397 7.12566 6.084C7.77742 4.70219 8.76979 3.62874 10.0733 2.86366V2.86533ZM19.8775 6.089C20.5637 5.7923 21.0975 4.7872 21.0091 3.99378C20.8846 2.88033 20.1838 2.07858 19.1619 1.8819C18.3038 1.71688 17.2836 2.16193 16.925 2.87033C18.235 3.62874 19.2159 4.71219 19.8775 6.08733V6.089Z" fill="black"/>
<path d="M18.1761 31.995C16.4828 31.975 14.968 30.8816 14.3752 29.208C13.8004 27.5845 14.015 26.0311 14.837 24.5526C15.4495 23.4491 16.3191 22.6324 17.5096 22.2007C19.9266 21.3256 22.6106 22.6724 23.1183 25.4327C23.5375 27.7079 22.5484 30.0465 20.6226 31.2766C19.8906 31.745 19.0849 31.98 18.1744 31.995H18.1761Z" fill="black"/>
<path d="M8.77143 32C7.03887 31.9333 5.71734 31.1182 4.7659 29.6964C3.82265 28.2863 3.54099 26.7328 3.9684 25.0626C4.38271 23.4441 5.81887 22.1507 7.4368 21.9673C9.04818 21.7856 10.3795 22.3923 11.4391 23.5775C12.6754 24.9593 13.152 26.6078 12.8294 28.4646C12.5149 30.2715 11.1263 31.66 9.35277 31.9567C9.1579 31.99 8.95812 31.9867 8.77143 32Z" fill="black"/>
<path d="M13.5057 9.47435C14.2672 9.47101 14.8845 10.0961 14.8911 10.8728C14.8976 11.6712 14.2934 12.3096 13.5253 12.3163C12.7311 12.323 12.1072 11.7029 12.1039 10.9045C12.1006 10.0994 12.7098 9.47768 13.5057 9.47435Z" fill="black"/>
</svg>
